<svg xmlns="http://www.w3.org/2000/svg" class="svg-drawing" height="14100.6mm" viewBox="-300.3 -14400.3 17400.6 14400.6" width="17100.6mm"><g transform="scale(1 -1)"><path d="M10350 550h-700M9150 550H7850M5350 550h-700M4150 550H2850M550 550v4050M550 5100v550M550 5850v150M550 8100v150M550 8450v2400M550 11750v1800h700M1750 13550h1300M5550 13550h700M6750 13550h1300M10550 13550h700M11750 13550h2500M16550 13550V9500M16550 9000v-550M16550 8250v-150M16550 6000v-150M16550 5650V3950M16550 3050v-50M10800 100H9650M9150 100H7850M5550 100h-900M4150 100H2850M550 100H100v4500M100 5100v900M100 8100v2750" style="stroke-width:var(--lw-6)" /><path d="M100 11750v2250h1150M1750 14000h1300M5350 14000h900M6750 14000h1300M10350 14000h900M11750 14000h2500M16550 14000h450V9500M17000 9000v-900M17000 6000V3950M17000 3050v-400M550 8450h2550M4000 8450h1350M5550 8450h1350M7800 8450h2550M10550 8450h700M12150 8450h4400M550 8250h2550M4000 8250h2900M7800 8250h3450M12150 8250h4400M550 5650h2550M4000 5650h1350M5550 5650h1350M7800 5650h2550M13100 5650h3450M10800 100v2900M550 5850h2550M4000 5850h2900M7800 5850h3000M12900 5850h3650M5350 8450v5100M5550 8450v5100M10350 8450v5100M10550 8450v5100M5350 5650V550M5550 5650V550M10350 5650V550" style="stroke-width:var(--lw-6)" /><path d="M10550 10450h600M12350 10450h1600M14050 10450h400M10550 10550h600M12250 10550h2200M12250 10550v-500M12250 9250v-800M12350 10450v-400M12350 9250v-800M13950 10450V8850M14050 10450V8450" style="stroke-width:var(--lw-5)" /><path d="M11150 10450V8450" style="stroke-width:var(--lw-2)" /><path d="M11250 8450v-200M12150 8450v-200M3100 8450v-200M4000 8450v-200" style="stroke-width:var(--lw-6)" /><path d="M11150 9450h-600M11150 9450l-600 1000M10550 9450l600 1000M11150 9450l-600-1000M10550 9450l600-1000M11150 10550v3000M11150 10550v600h-600v-600ZM10850 11050v-400M11050 10850h-400M10991.421 10991.421l-282.842-282.842M10991.421 10708.579l-282.842 282.842M10550 11150h600v600h-600Z" style="stroke-width:var(--lw-2)" /><path d="M10700 11456.602V11550a100 100 0 0 0 100 100h150a100 100 0 0 0 100-100v-200a100 100 0 0 0-100-100h-150a100 100 0 0 0-100 100v76.13" style="stroke-width:var(--lw-2)" /><path d="M10843.675 11456.602v-30.472h-204.722v30.472ZM10834.998 12500a74.999 74.999 0 1 1 75 75M10834.998 12800a74.999 74.999 0 1 1 75 75M11150 12350h-600M10550 12950h600M10670.001 12875a75.009 75.009 0 0 1-75-75" style="stroke-width:var(--lw-2)" /><path d="M10595.001 12800a74.999 74.999 0 1 1 75 75M10909.998 12875a75.009 75.009 0 0 1-75-75M10550 12350v600" style="stroke-width:var(--lw-2)" /><circle cx="10670" cy="12500.002" r="49.999" style="stroke-width:var(--lw-2)" /><path d="M10909.998 12575a75.009 75.009 0 0 1-75-75M11150 12950v-600M11060.048 12818.988v-10.019M11085.104 12808.969v10.019M11029.999 12350v600M11060.048 12895.243v-10.019M11085.104 12895.243h-25.056M11085.104 12885.224v10.019M11060.048 12885.224h25.056M11060.048 12854.611v-10.019M11085.104 12854.611h-25.056M11085.104 12844.592v10.019M11060.048 12844.592h25.056M11060.048 12836.799v-10.018M11085.104 12836.799h-25.056M11085.104 12826.781v10.018M11060.048 12826.781h25.056M11085.104 12818.988h-25.056" style="stroke-width:var(--lw-2)" /><circle cx="11089.999" cy="12414.6" r="23.26" style="stroke-width:var(--lw-2)" /><circle cx="11089.999" cy="12502.355" r="23.26" style="stroke-width:var(--lw-2)" /><circle cx="11089.999" cy="12765.62" r="23.26" style="stroke-width:var(--lw-2)" /><circle cx="11089.999" cy="12677.865" r="23.26" style="stroke-width:var(--lw-2)" /><circle cx="11089.999" cy="12590.11" r="23.26" style="stroke-width:var(--lw-2)" /><path d="M11060.048 12808.969h25.056" style="stroke-width:var(--lw-2)" /><path d="M11150 10550v-100M13250 8750h700v-300h-700Z" style="stroke-width:var(--lw-5)" /><path d="M13150 8450v400h800" style="stroke-width:var(--lw-5)" /><path d="M15000 10300h1500V8450h-1500Z" style="stroke-width:var(--lw-2)" /><path d="M14950 10350h1600V8450h-1600Z" style="stroke-width:var(--lw-2)" /><path d="M15128.417 8500v387.832h558.168V8500ZM16371.583 8500v387.832h-558.168V8500ZM14450 8850h500v-400h-500ZM14450 10450V8450M14450 9450h-400M14050 10450l400-1000M14450 10450l-400-1000M14050 8450l400 1000M14450 8450l-400 1000" style="stroke-width:var(--lw-2)" /><path d="M14450 10450v100M12250 9250h100M12250 10050h100" style="stroke-width:var(--lw-5)" /><path d="M12567.5 8500v367.5M12607.5 8675v192.5M12932.5 8867.5V8500M12892.5 8867.5V8675M12882.5 8450h-265M12617.5 8450a50 50 0 0 0-50 50M12932.5 8500a50 50 0 0 0-50-50M12882.5 8635h-265M12892.5 8675h-285M12882.5 8635a50 50 0 0 0 50-50M12567.5 8867.5a182.5 182.5 0 0 0 365 0" style="stroke-width:var(--lw-2)" /><path d="M12607.5 8867.5a142.5 142.5 0 0 0 285 0M12567.5 8500v85M12567.5 8585a50 50 0 0 0 50 50M12932.5 8585v-85M12787.772 8701.875v71.584h-75.544v-71.584Z" style="stroke-width:var(--lw-2)" /><circle cx="12750" cy="8544.628" r="21.351" style="stroke-width:var(--lw-2)" /><path d="M13150 10050h-800M12765.236 10250.278h-30.472M12650 10100h200M12850 10100a100 100 0 0 1 100 100M12950 10250a100 100 0 0 1-100 100M12734.764 10350H12650M12765.236 10380v-129.722M12734.764 10250.278V10380M12734.764 10380h30.472M12950 10200v50M12850 10350h-84.764M12550 10200v50M12550 10200a100 100 0 0 1 100-100M12650 10350a100 100 0 0 1-100-100M12350 10400h800M13150 10450V9450M13200 10450v-950M13150 9450h800M13200 9500h750" style="stroke-width:var(--lw-2)" /><circle cx="13850" cy="10350" r="50" style="stroke-width:var(--lw-2)" /><path d="M13350 9450h600v-600h-600Z" style="stroke-width:var(--lw-2)" /><circle cx="13650" cy="9150" r="175" style="stroke-width:var(--lw-2)" /><path d="M14450 10550h2100M14450 13150h-700v-1600h700v-200h-900v2000h900ZM14450 13150v-1600M15250 12750h-500v-800h500ZM14450 12350l-700 .002M15717.817 10975.36l251.369 160.604M16034.018 11430.23l-220.257 344.736M15637.201 11813.865l-395.008-252.378M15203.293 11384.927l220.257-344.735M15717.817 10975.36l251.369 160.604a213.068 213.068 0 0 0 64.832 294.266l-220.257 344.736a127.841 127.841 0 0 0-176.56 38.899l-395.008-252.378a127.841 127.841 0 0 0-38.9-176.56l220.257-344.735a213.068 213.068 0 0 0 294.267-64.832" style="stroke-width:var(--lw-2)" /><path d="m15313.422 11212.56 17.954 11.471a63.92 63.92 0 0 1 88.28-19.45l75.714-118.502a127.841 127.841 0 0 0 176.56-38.9l251.37 160.605a127.841 127.841 0 0 0 38.899 176.56l-75.714 118.502a63.92 63.92 0 0 1 19.45 88.28l17.955 11.472M15899.148 13550h-298.295M15387.784 13336.932v-409.091M15515.625 12800h468.75M16112.216 12927.84v409.092M15899.148 13550h-298.295a213.068 213.068 0 0 0-213.069-213.068v-409.091a127.841 127.841 0 0 0 127.841-127.841h468.75a127.841 127.841 0 0 0 127.841 127.84v409.092a213.068 213.068 0 0 0-213.068 213.068" style="stroke-width:var(--lw-2)" /><path d="M16112.216 13132.386h-21.307a63.92 63.92 0 0 1-63.92 63.92v140.626a127.841 127.841 0 0 0-127.84 127.84h-298.296a127.841 127.841 0 0 0-127.841-127.84v-140.625a63.92 63.92 0 0 1-63.92-63.92h-21.308M16550 13150h-300v-1600h300Z" style="stroke-width:var(--lw-2)" /><path d="M16353.447 11592.04v1494.89h60.039v-1494.89ZM16413.486 11742.259v1215.482h54.035v-1215.482Z" style="stroke-width:var(--lw-2)" /><path d="m15922.864 11909.917 490.622 440.083-390.254 342.5M12250 13550h800v-1800h-800ZM12425 11650h450v-450h-450ZM12150 12775v450h-450v-450ZM12150 12525v-450h-450v450ZM12250 10050h100v-50h-100ZM12250 9250h100v50h-100ZM12350 10000h700v-50h-700Z" style="stroke-width:var(--lw-2)" /><path d="M12350 9300a700 700 0 0 1 700 700" style="stroke-width:var(--lw-1);stroke-dasharray:.3175,.1588;stroke-dashoffset:.2107" /><path d="M13250 5350h700v300h-700Z" style="stroke-width:var(--lw-5)" /><path d="M13100 5250h950v400" style="stroke-width:var(--lw-5)" /><path d="M10800 5650v200M12900 5650v200M12900 5650V3950M12900 3050v-400M13100 5650V3950M13100 3050v-50M16550 3000h-3450M17000 2650h-4100M17000 550h-1150V100h1150Z" style="stroke-width:var(--lw-6)" /><path d="M10800 100h6200v2550" style="stroke-width:var(--lw-5)" /><path d="M10800 3000h-250v2650h250M550 550V100M2850 550V100M4650 550V100M4150 550V100M5550 550V100M7850 550V100M9650 550V100M9150 550V100" style="stroke-width:var(--lw-6)" /><path d="M15330 6950h-810M15330 7150h-2430M12900 8250V7150" style="stroke-width:var(--lw-5)" /><path d="M13170 8250V7150M13440 8250V7150M13710 8250V7150M13980 8250V7150M14250 8250V7150M14520 8250V7150M14520 6950V5850M14790 8250V7150M14790 6950V5850M15060 8250V7150M15060 6950V5850" style="stroke-width:var(--lw-2)" /><path d="M15330 8250V5850M5350 10850H4050M3050 10850h-700M5350 10750H4150M2950 10750h-600M2450 10050V8450M2350 10850v-100M2350 10150V8450" style="stroke-width:var(--lw-5)" /><path d="M3050 13550h750v-1200h-750ZM3175 12250h450v-450h-450ZM3900 12725v450h450v-450Z" style="stroke-width:var(--lw-2)" /><path d="M4050 8450v800M4050 10050v800M4150 8450v800M4150 10050v700" style="stroke-width:var(--lw-5)" /><path d="M3050 10050V8450M4050 9250h100v50h-100ZM4050 10050h100v-50h-100ZM4150 10000h700v-50h-700Z" style="stroke-width:var(--lw-2)" /><path d="M4150 9300a700 700 0 0 1 700 700" style="stroke-width:var(--lw-1);stroke-dasharray:.3175,.1588;stroke-dashoffset:.2107" /><path d="M4150 10050v700h1200v-700Z" style="stroke-width:var(--lw-2)" /><path d="M4200 10100v600h1100v-600Z" style="stroke-width:var(--lw-2)" /><circle cx="5200" cy="10200" r="50" style="stroke-width:var(--lw-2)" /><path d="M4150 10050h-100M4150 9250h-100M5150 9350v-900h200v900Z" style="stroke-width:var(--lw-5)" /><path d="M5350 9450h-300V8450M3050 10050v800M2350 10150h600M2450 10050h600M2950 10150v600" style="stroke-width:var(--lw-5)" /><path d="M4950 9450v600h400v-600Z" style="stroke-width:var(--lw-2)" /><path d="M5200 9725v-225h-200v500h200v-225M5300 10050v-600" style="stroke-width:var(--lw-2)" /><path d="M5100 9725v50h150v-50ZM5000 9032.5h-367.5M4825 8992.5h-192.5M4632.5 8667.5H5000M4632.5 8707.5H4825M5050 8717.5v265M5050 8982.5a50 50 0 0 1-50 50M5000 8667.5a50 50 0 0 1 50 50M4865 8717.5v265M4825 8707.5v285M4865 8717.5a50 50 0 0 1 50-50M4632.5 9032.5a182.5 182.5 0 0 1 0-365" style="stroke-width:var(--lw-2)" /><path d="M4632.5 8992.5a142.5 142.5 0 0 1 0-285M5000 9032.5h-85M4915 9032.5a50 50 0 0 1-50-50M4915 8667.5h85M4798.125 8812.228h-71.584v75.544h71.584Z" style="stroke-width:var(--lw-2)" /><circle cx="4955.372" cy="8850" r="21.351" style="stroke-width:var(--lw-2)" /><path d="M2350 10150v600M4750 10850v2700M4750 10850v600h600v-600ZM5050 11350v-400M4850 11150h400M4908.579 11291.421l282.842-282.842M4908.579 11008.579l282.842 282.842M5350 11450h-600v600h600Z" style="stroke-width:var(--lw-2)" /><path d="M5200 11756.602V11850a100 100 0 0 1-100 100h-150a100 100 0 0 1-100-100v-200a100 100 0 0 1 100-100h150a100 100 0 0 1 100 100v76.13" style="stroke-width:var(--lw-2)" /><path d="M5056.325 11756.602v-30.472h204.722v30.472ZM5065.002 12650a74.999 74.999 0 1 0-75 75M5065.002 12950a74.999 74.999 0 1 0-75 75M4750 12500h600M5350 13100h-600M5229.999 13025a75.009 75.009 0 0 0 75-75" style="stroke-width:var(--lw-2)" /><path d="M5304.999 12950a74.999 74.999 0 1 0-75 75M4990.002 13025a75.009 75.009 0 0 0 75-75M5350 12500v600" style="stroke-width:var(--lw-2)" /><circle cx="5230" cy="12650.002" r="49.999" style="stroke-width:var(--lw-2)" /><path d="M4990.002 12725a75.009 75.009 0 0 0 75-75M4750 13100v-600M4839.953 12968.988v-10.019M4814.896 12958.969v10.019M4870.001 12500v600M4839.953 13045.243v-10.019M4814.896 13045.243h25.057M4814.896 13035.224v10.019M4839.953 13035.224h-25.057M4839.953 13004.611v-10.019M4814.896 13004.611h25.057M4814.896 12994.592v10.019M4839.953 12994.592h-25.057M4839.953 12986.799v-10.018M4814.896 12986.799h25.057M4814.896 12976.781v10.018M4839.953 12976.781h-25.057M4814.896 12968.988h25.057" style="stroke-width:var(--lw-2)" /><circle cx="4810.001" cy="12564.6" r="23.26" style="stroke-width:var(--lw-2)" /><circle cx="4810.001" cy="12652.355" r="23.26" style="stroke-width:var(--lw-2)" /><circle cx="4810.001" cy="12915.62" r="23.26" style="stroke-width:var(--lw-2)" /><circle cx="4810.001" cy="12827.865" r="23.26" style="stroke-width:var(--lw-2)" /><circle cx="4810.001" cy="12740.11" r="23.26" style="stroke-width:var(--lw-2)" /><path d="M4839.953 12958.969h-25.057M3050 9250h-600M2450 10050l600-800M3050 10050l-600-800M2450 9250l600-800M3050 9250l-600-800M2350 10150l600 600M2950 10150l-600 600M2200 10400H700V8450h1500Z" style="stroke-width:var(--lw-2)" /><path d="M2250 10450H650V8450h1600Z" style="stroke-width:var(--lw-2)" /><path d="M2071.583 8500v387.832h-558.168V8500ZM828.417 8500v387.832h558.168V8500ZM2350 10850H550M2350 10550H550M1950 13250h700v-1600h-700v-200h900v2000h-900ZM1950 13250v-1600M1250 12850h500v-800h-500ZM1950 12450l700 .002" style="stroke-width:var(--lw-2)" /><path d="M5550 10850h1300M7850 10850h700M5550 10750h1200M7950 10750h600M8450 10050V8450M8550 10850v-100M8550 10150V8450" style="stroke-width:var(--lw-5)" /><path d="M7850 13550h-750v-1200h750ZM7725 12250h-450v-450h450ZM7000 12725v450h-450v-450Z" style="stroke-width:var(--lw-2)" /><path d="M6850 8450v800M6850 10050v800M6750 8450v800M6750 10050v700" style="stroke-width:var(--lw-5)" /><path d="M7850 10050V8450M6850 9250h-100v50h100ZM6850 10050h-100v-50h100ZM6750 10000h-700v-50h700Z" style="stroke-width:var(--lw-2)" /><path d="M6050 10000a700 700 0 0 1 700-700" style="stroke-width:var(--lw-1);stroke-dasharray:.3175,.1588;stroke-dashoffset:.2107" /><path d="M6750 10050v700H5550v-700Z" style="stroke-width:var(--lw-2)" /><path d="M6700 10100v600H5600v-600Z" style="stroke-width:var(--lw-2)" /><circle cx="5700" cy="10200" r="50" style="stroke-width:var(--lw-2)" /><path d="M6750 10050h100M6750 9250h100M5750 9350v-900h-200v900Z" style="stroke-width:var(--lw-5)" /><path d="M5550 9450h300V8450M7850 10050v800M8550 10150h-600M8450 10050h-600M7950 10150v600" style="stroke-width:var(--lw-5)" /><path d="M5950 9450v600h-400v-600Z" style="stroke-width:var(--lw-2)" /><path d="M5700 9725v-225h200v500h-200v-225M5600 10050v-600" style="stroke-width:var(--lw-2)" /><path d="M5800 9725v50h-150v-50ZM5900 9032.5h367.5M6075 8992.5h192.5M6267.5 8667.5H5900M6267.5 8707.5H6075M5850 8717.5v265M5850 8982.5a50 50 0 0 0 50 50M5900 8667.5a50 50 0 0 0-50 50M6035 8717.5v265M6075 8707.5v285M6035 8717.5a50 50 0 0 0-50-50M6267.5 9032.5a182.5 182.5 0 0 0 0-365" style="stroke-width:var(--lw-2)" /><path d="M6267.5 8992.5a142.5 142.5 0 0 0 0-285M5900 9032.5h85M5985 9032.5a50 50 0 0 0 50-50M5985 8667.5h-85M6101.875 8812.228h71.584v75.544h-71.584Z" style="stroke-width:var(--lw-2)" /><circle cx="5944.628" cy="8850" r="21.351" style="stroke-width:var(--lw-2)" /><path d="M8550 10150v600M6150 10850v2700M6150 10850v600h-600v-600ZM5850 11350v-400M6050 11150h-400M5991.421 11291.421l-282.842-282.842M5991.421 11008.579l-282.842 282.842M5550 11450h600v600h-600Z" style="stroke-width:var(--lw-2)" /><path d="M5700 11756.602V11850a100 100 0 0 0 100 100h150a100 100 0 0 0 100-100v-200a100 100 0 0 0-100-100h-150a100 100 0 0 0-100 100v76.13" style="stroke-width:var(--lw-2)" /><path d="M5843.675 11756.602v-30.472h-204.722v30.472ZM5834.998 12650a74.999 74.999 0 1 1 75 75M5834.998 12950a74.999 74.999 0 1 1 75 75M6150 12500h-600M5550 13100h600M5670.001 13025a75.009 75.009 0 0 1-75-75" style="stroke-width:var(--lw-2)" /><path d="M5595.001 12950a74.999 74.999 0 1 1 75 75M5909.998 13025a75.009 75.009 0 0 1-75-75M5550 12500v600" style="stroke-width:var(--lw-2)" /><circle cx="5670" cy="12650.002" r="49.999" style="stroke-width:var(--lw-2)" /><path d="M5909.998 12725a75.009 75.009 0 0 1-75-75M6150 13100v-600M6060.047 12968.988v-10.019M6085.104 12958.969v10.019M6029.999 12500v600M6060.047 13045.243v-10.019M6085.104 13045.243h-25.057M6085.104 13035.224v10.019M6060.047 13035.224h25.057M6060.047 13004.611v-10.019M6085.104 13004.611h-25.057M6085.104 12994.592v10.019M6060.047 12994.592h25.057M6060.047 12986.799v-10.018M6085.104 12986.799h-25.057M6085.104 12976.781v10.018M6060.047 12976.781h25.057M6085.104 12968.988h-25.057" style="stroke-width:var(--lw-2)" /><circle cx="6089.999" cy="12564.6" r="23.26" style="stroke-width:var(--lw-2)" /><circle cx="6089.999" cy="12652.355" r="23.26" style="stroke-width:var(--lw-2)" /><circle cx="6089.999" cy="12915.62" r="23.26" style="stroke-width:var(--lw-2)" /><circle cx="6089.999" cy="12827.865" r="23.26" style="stroke-width:var(--lw-2)" /><circle cx="6089.999" cy="12740.11" r="23.26" style="stroke-width:var(--lw-2)" /><path d="M6060.047 12958.969h25.057M7850 9250h600M8450 10050l-600-800M7850 10050l600-800M8450 9250l-600-800M7850 9250l600-800M8550 10150l-600 600M7950 10150l600 600M8700 10400h1500V8450H8700Z" style="stroke-width:var(--lw-2)" /><path d="M8650 10450h1600V8450H8650Z" style="stroke-width:var(--lw-2)" /><path d="M8828.417 8500v387.832h558.168V8500ZM10071.583 8500v387.832h-558.168V8500ZM8550 10850h1800M8550 10550h1800M8950 13250h-700v-1600h700v-200h-900v2000h900ZM8950 13250v-1600M9650 12850h-500v-800h500ZM8950 12450l-700 .002M10350 13450h-300v-2000h300Z" style="stroke-width:var(--lw-2)" /><path d="M10153.447 11692.04v1494.89h60.04v-1494.89Z" style="stroke-width:var(--lw-2)" /><path d="M10213.486 11842.259v1215.482h54.035v-1215.482ZM9722.864 12009.917l490.622 440.083-390.253 342.5" style="stroke-width:var(--lw-2)" /><path d="M5350 3250H4050M3050 3250h-700M5350 3350H4150M2950 3350h-600M2450 4050v1600M2350 3250v100M2350 3950v1700" style="stroke-width:var(--lw-5)" /><path d="M3050 550h750v1200h-750ZM3175 1850h450v450h-450ZM3900 1375V925h450v450Z" style="stroke-width:var(--lw-2)" /><path d="M4050 5650v-800M4050 4050v-800M4150 5650v-800M4150 4050v-700" style="stroke-width:var(--lw-5)" /><path d="M3050 4050v1600M4050 4850h100v-50h-100ZM4050 4050h100v50h-100ZM4150 4100h700v50h-700Z" style="stroke-width:var(--lw-2)" /><path d="M4850 4100a700 700 0 0 1-700 700" style="stroke-width:var(--lw-1);stroke-dasharray:.3175,.1588;stroke-dashoffset:.2107" /><path d="M4150 4050v-700h1200v700Z" style="stroke-width:var(--lw-2)" /><path d="M4200 4000v-600h1100v600Z" style="stroke-width:var(--lw-2)" /><circle cx="5200" cy="3900" r="50" style="stroke-width:var(--lw-2)" /><path d="M4150 4050h-100M4150 4850h-100M5150 4750v900h200v-900Z" style="stroke-width:var(--lw-5)" /><path d="M5350 4650h-300v1000M3050 4050v-800M2350 3950h600M2450 4050h600M2950 3950v-600" style="stroke-width:var(--lw-5)" /><path d="M4950 4650v-600h400v600Z" style="stroke-width:var(--lw-2)" /><path d="M5200 4375v225h-200v-500h200v225M5300 4050v600" style="stroke-width:var(--lw-2)" /><path d="M5100 4375v-50h150v50ZM5000 5067.5h-367.5M4825 5107.5h-192.5M4632.5 5432.5H5000M4632.5 5392.5H4825M5050 5382.5v-265M5050 5117.5a50 50 0 0 0-50-50M5000 5432.5a50 50 0 0 0 50-50M4865 5382.5v-265M4825 5392.5v-285M4865 5382.5a50 50 0 0 0 50 50M4632.5 5067.5a182.5 182.5 0 0 0 0 365" style="stroke-width:var(--lw-2)" /><path d="M4632.5 5107.5a142.5 142.5 0 0 0 0 285M5000 5067.5h-85M4915 5067.5a50 50 0 0 0-50 50M4915 5432.5h85M4798.125 5287.772h-71.584v-75.544h71.584Z" style="stroke-width:var(--lw-2)" /><circle cx="4955.372" cy="5250" r="21.351" style="stroke-width:var(--lw-2)" /><path d="M2350 3950v-600M4750 3250V550M4750 3250v-600h600v600ZM5050 2750v400M4850 2950h400M4908.579 2808.579l282.842 282.842M4908.579 3091.421l282.842-282.842M5350 2650h-600v-600h600Z" style="stroke-width:var(--lw-2)" /><path d="M5200 2343.398V2250a100 100 0 0 0-100-100h-150a100 100 0 0 0-100 100v200a100 100 0 0 0 100 100h150a100 100 0 0 0 100-100v-76.13" style="stroke-width:var(--lw-2)" /><path d="M5056.325 2343.398v30.472h204.722v-30.472ZM5065.002 1450a74.999 74.999 0 1 1-75-75M5065.002 1150a74.999 74.999 0 1 1-75-75M4750 1600h600M5350 1000h-600M5229.999 1075a75.009 75.009 0 0 1 75 75" style="stroke-width:var(--lw-2)" /><path d="M5304.999 1150a74.999 74.999 0 1 1-75-75M4990.002 1075a75.009 75.009 0 0 1 75 75M5350 1600v-600" style="stroke-width:var(--lw-2)" /><circle cx="5230" cy="1449.998" r="49.999" style="stroke-width:var(--lw-2)" /><path d="M4990.002 1375a75.009 75.009 0 0 1 75 75M4750 1000v600M4839.953 1131.012v10.019M4814.896 1141.031v-10.019M4870.001 1600v-600M4839.953 1054.757v10.019M4814.896 1054.757h25.057M4814.896 1064.776v-10.019M4839.953 1064.776h-25.057M4839.953 1095.389v10.019M4814.896 1095.389h25.057M4814.896 1105.408v-10.019M4839.953 1105.408h-25.057M4839.953 1113.201v10.018M4814.896 1113.201h25.057M4814.896 1123.219v-10.018M4839.953 1123.219h-25.057M4814.896 1131.012h25.057" style="stroke-width:var(--lw-2)" /><circle cx="4810.001" cy="1535.4" r="23.26" style="stroke-width:var(--lw-2)" /><circle cx="4810.001" cy="1447.645" r="23.26" style="stroke-width:var(--lw-2)" /><circle cx="4810.001" cy="1184.38" r="23.26" style="stroke-width:var(--lw-2)" /><circle cx="4810.001" cy="1272.135" r="23.26" style="stroke-width:var(--lw-2)" /><circle cx="4810.001" cy="1359.89" r="23.26" style="stroke-width:var(--lw-2)" /><path d="M4839.953 1141.031h-25.057M3050 4850h-600M2450 4050l600 800M3050 4050l-600 800M2450 4850l600 800M3050 4850l-600 800M2350 3950l600-600M2950 3950l-600-600M2200 3700H700v1950h1500Z" style="stroke-width:var(--lw-2)" /><path d="M2250 3650H650v2000h1600Z" style="stroke-width:var(--lw-2)" /><path d="M2071.583 5600v-387.832h-558.168V5600ZM828.417 5600v-387.832h558.168V5600ZM2350 3250H550M2350 3550H550M1950 850h700v1600h-700v200h900V650h-900ZM1950 850v1600M1250 1250h500v800h-500ZM1950 1650l700-.002M550 650h300v2000H550Z" style="stroke-width:var(--lw-2)" /><path d="M746.553 2407.96V913.07h-60.04v1494.89Z" style="stroke-width:var(--lw-2)" /><path d="M686.514 2257.741V1042.259h-54.035v1215.482ZM1177.136 2090.083 686.514 1650l390.253-342.5" style="stroke-width:var(--lw-2)" /><path d="M5550 3250h1300M7850 3250h700M5550 3350h1200M7950 3350h600M8450 4050v1600M8550 3250v100M8550 3950v1700" style="stroke-width:var(--lw-5)" /><path d="M7850 550h-750v1200h750ZM7725 1850h-450v450h450ZM7000 1375V925h-450v450Z" style="stroke-width:var(--lw-2)" /><path d="M6850 5650v-800M6850 4050v-800M6750 5650v-800M6750 4050v-700" style="stroke-width:var(--lw-5)" /><path d="M7850 4050v1600M6850 4850h-100v-50h100ZM6850 4050h-100v50h100ZM6750 4100h-700v50h700Z" style="stroke-width:var(--lw-2)" /><path d="M6750 4800a700 700 0 0 1-700-700" style="stroke-width:var(--lw-1);stroke-dasharray:.3175,.1588;stroke-dashoffset:.2107" /><path d="M6750 4050v-700H5550v700Z" style="stroke-width:var(--lw-2)" /><path d="M6700 4000v-600H5600v600Z" style="stroke-width:var(--lw-2)" /><circle cx="5700" cy="3900" r="50" style="stroke-width:var(--lw-2)" /><path d="M6750 4050h100M6750 4850h100M5750 4750v900h-200v-900Z" style="stroke-width:var(--lw-5)" /><path d="M5550 4650h300v1000M7850 4050v-800M8550 3950h-600M8450 4050h-600M7950 3950v-600" style="stroke-width:var(--lw-5)" /><path d="M5950 4650v-600h-400v600Z" style="stroke-width:var(--lw-2)" /><path d="M5700 4375v225h200v-500h-200v225M5600 4050v600" style="stroke-width:var(--lw-2)" /><path d="M5800 4375v-50h-150v50ZM5900 5067.5h367.5M6075 5107.5h192.5M6267.5 5432.5H5900M6267.5 5392.5H6075M5850 5382.5v-265M5850 5117.5a50 50 0 0 1 50-50M5900 5432.5a50 50 0 0 1-50-50M6035 5382.5v-265M6075 5392.5v-285M6035 5382.5a50 50 0 0 1-50 50M6267.5 5067.5a182.5 182.5 0 0 1 0 365" style="stroke-width:var(--lw-2)" /><path d="M6267.5 5107.5a142.5 142.5 0 0 1 0 285M5900 5067.5h85M5985 5067.5a50 50 0 0 1 50 50M5985 5432.5h-85M6101.875 5287.772h71.584v-75.544h-71.584Z" style="stroke-width:var(--lw-2)" /><circle cx="5944.628" cy="5250" r="21.351" style="stroke-width:var(--lw-2)" /><path d="M8550 3950v-600M6150 3250V550M6150 3250v-600h-600v600ZM5850 2750v400M6050 2950h-400M5991.421 2808.579 5708.58 3091.42M5991.421 3091.421 5708.58 2808.58M5550 2650h600v-600h-600Z" style="stroke-width:var(--lw-2)" /><path d="M5700 2343.398V2250a100 100 0 0 1 100-100h150a100 100 0 0 1 100 100v200a100 100 0 0 1-100 100h-150a100 100 0 0 1-100-100v-76.13" style="stroke-width:var(--lw-2)" /><path d="M5843.675 2343.398v30.472h-204.722v-30.472ZM5834.998 1450a74.999 74.999 0 1 0 75-75M5834.998 1150a74.999 74.999 0 1 0 75-75M6150 1600h-600M5550 1000h600M5670.001 1075a75.009 75.009 0 0 0-75 75" style="stroke-width:var(--lw-2)" /><path d="M5595.001 1150a74.999 74.999 0 1 0 75-75M5909.998 1075a75.009 75.009 0 0 0-75 75M5550 1600v-600" style="stroke-width:var(--lw-2)" /><circle cx="5670" cy="1449.998" r="49.999" style="stroke-width:var(--lw-2)" /><path d="M5909.998 1375a75.009 75.009 0 0 0-75 75M6150 1000v600M6060.047 1131.012v10.019M6085.104 1141.031v-10.019M6029.999 1600v-600M6060.047 1054.757v10.019M6085.104 1054.757h-25.057M6085.104 1064.776v-10.019M6060.047 1064.776h25.057M6060.047 1095.389v10.019M6085.104 1095.389h-25.057M6085.104 1105.408v-10.019M6060.047 1105.408h25.057M6060.047 1113.201v10.018M6085.104 1113.201h-25.057M6085.104 1123.219v-10.018M6060.047 1123.219h25.057M6085.104 1131.012h-25.057" style="stroke-width:var(--lw-2)" /><circle cx="6089.999" cy="1535.4" r="23.26" style="stroke-width:var(--lw-2)" /><circle cx="6089.999" cy="1447.645" r="23.26" style="stroke-width:var(--lw-2)" /><circle cx="6089.999" cy="1184.38" r="23.26" style="stroke-width:var(--lw-2)" /><circle cx="6089.999" cy="1272.135" r="23.26" style="stroke-width:var(--lw-2)" /><circle cx="6089.999" cy="1359.89" r="23.26" style="stroke-width:var(--lw-2)" /><path d="M6060.047 1141.031h25.057M7850 4850h600M8450 4050l-600 800M7850 4050l600 800M8450 4850l-600 800M7850 4850l600 800M8550 3950l-600-600M7950 3950l600-600M8700 3700h1500v1950H8700Z" style="stroke-width:var(--lw-2)" /><path d="M8650 3650h1600v2000H8650Z" style="stroke-width:var(--lw-2)" /><path d="M8828.417 5600v-387.832h558.168V5600ZM10071.583 5600v-387.832h-558.168V5600ZM8550 3250h1800M8550 3550h1800M8950 850h-700v1600h700v200h-900V650h900ZM8950 850v1600M9650 1250h-500v800h500ZM8950 1650l-700-.002M10350 650h-300v2000h300Z" style="stroke-width:var(--lw-2)" /><path d="M10153.447 2407.96V913.07h60.04v1494.89Z" style="stroke-width:var(--lw-2)" /><path d="M10213.486 2257.741V1042.259h54.035v1215.482ZM9722.864 2090.083 10213.486 1650l-390.253-342.5" style="stroke-width:var(--lw-2)" /><path d="M16550 6000h450M16550 8100h450M17000 3050h-450M17000 3950h-450M550 6000H100M550 8100H100M16550 9000h450M16550 9500h450M16550 13550v450M14250 13550v450M11250 13550v450M11750 13550v450M5350 13550v450M3050 13550v450M1250 13550v450M1750 13550v450M10350 13550v450M8050 13550v450M6250 13550v450M6750 13550v450M550 11750H100M550 10850H100M550 5100H100M550 4600H100M3100 5650v200M4000 5650v200M7800 8450v-200M6900 8450v-200M7800 5850v-200M6900 5850v-200" style="stroke-width:var(--lw-6)" /><path d="M250 11750h100v-900H250Z" style="stroke-width:var(--lw-2)" /><path d="M350 11750H250v-70h100ZM350 10850H250v70h100ZM300 11680v-760" style="stroke-width:var(--lw-2)" /><path d="M100 11750v-900" style="stroke-width:var(--lw-5)" /><path d="M4750 13550h600M1750 13850v-100h-500v100Z" style="stroke-width:var(--lw-2)" /><path d="M1750 13750v100h-70v-100ZM1250 13750v100h70v-100ZM1680 13800h-360" style="stroke-width:var(--lw-2)" /><path d="M1750 14000h-500" style="stroke-width:var(--lw-5)" /><path d="M5350 13850v-100H3050v100Z" style="stroke-width:var(--lw-2)" /><path d="M5350 13750v100h-70v-100ZM4750 13750v100h70v-100ZM5280 13800h-460" style="stroke-width:var(--lw-2)" /><path d="M5350 14000H3050" style="stroke-width:var(--lw-5)" /><path d="M3050 13750v100h70v-100ZM4750 13750v100h-70v-100ZM3120 13800h1560M4000 8300v100h-50v-100ZM3100 8300v100h50v-100ZM3150 8400v800h50v-800Z" style="stroke-width:var(--lw-2)" /><path d="M3950 8400a800 800 0 0 1-800 800" style="stroke-width:var(--lw-1);stroke-dasharray:.3175,.1588;stroke-dashoffset:.014" /><path d="M4000 5800v-100h-50v100ZM3100 5800v-100h50v100ZM3150 5700v-800h50v800Z" style="stroke-width:var(--lw-2)" /><path d="M3150 4900a800 800 0 0 1 800 800" style="stroke-width:var(--lw-1);stroke-dasharray:.3175,.1588;stroke-dashoffset:.014" /><path d="M6900 8300v100h50v-100ZM7800 8300v100h-50v-100ZM7750 8400v800h-50v-800Z" style="stroke-width:var(--lw-2)" /><path d="M7750 9200a800 800 0 0 1-800-800" style="stroke-width:var(--lw-1);stroke-dasharray:.3175,.1588;stroke-dashoffset:.014" /><path d="M6900 5800v-100h50v100ZM7800 5800v-100h-50v100ZM7750 5700v-800h-50v800Z" style="stroke-width:var(--lw-2)" /><path d="M6950 5700a800 800 0 0 1 800-800" style="stroke-width:var(--lw-1);stroke-dasharray:.3175,.1588;stroke-dashoffset:.014" /><path d="M12150 8300v100h-50v-100ZM11250 8300v100h50v-100ZM11300 8400v800h50v-800Z" style="stroke-width:var(--lw-2)" /><path d="M12100 8400a800 800 0 0 1-800 800" style="stroke-width:var(--lw-1);stroke-dasharray:.3175,.1588;stroke-dashoffset:.014" /><path d="M6750 13850v-100h-500v100Z" style="stroke-width:var(--lw-2)" /><path d="M6750 13750v100h-70v-100ZM6250 13750v100h70v-100ZM6680 13800h-360" style="stroke-width:var(--lw-2)" /><path d="M6750 14000h-500" style="stroke-width:var(--lw-5)" /><path d="M10350 13850v-100H8050v100Z" style="stroke-width:var(--lw-2)" /><path d="M10350 13750v100h-70v-100ZM9750 13750v100h70v-100ZM10280 13800h-460" style="stroke-width:var(--lw-2)" /><path d="M10350 14000H8050" style="stroke-width:var(--lw-5)" /><path d="M8050 13750v100h70v-100ZM9750 13750v100h-70v-100ZM8120 13800h1560M11750 13850v-100h-500v100Z" style="stroke-width:var(--lw-2)" /><path d="M11750 13750v100h-70v-100ZM11250 13750v100h70v-100ZM11680 13800h-360" style="stroke-width:var(--lw-2)" /><path d="M11750 14000h-500" style="stroke-width:var(--lw-5)" /><path d="M16550 13850v-100h-2300v100Z" style="stroke-width:var(--lw-2)" /><path d="M16550 13750v100h-70v-100ZM15950 13750v100h70v-100ZM16480 13800h-460" style="stroke-width:var(--lw-2)" /><path d="M16550 14000h-2300" style="stroke-width:var(--lw-5)" /><path d="M14250 13750v100h70v-100ZM15950 13750v100h-70v-100ZM14320 13800h1560M4150 250v100h500V250Z" style="stroke-width:var(--lw-2)" /><path d="M4150 350V250h70v100ZM4650 350V250h-70v100ZM4220 300h360" style="stroke-width:var(--lw-2)" /><path d="M4150 100h500" style="stroke-width:var(--lw-5)" /><path d="M550 250v100h2300V250Z" style="stroke-width:var(--lw-2)" /><path d="M550 350V250h70v100ZM1150 350V250h-70v100ZM620 300h460" style="stroke-width:var(--lw-2)" /><path d="M550 100h2300" style="stroke-width:var(--lw-5)" /><path d="M2850 350V250h-70v100ZM1150 350V250h70v100ZM2780 300H1220M250 5100h100v-500H250Z" style="stroke-width:var(--lw-2)" /><path d="M350 5100H250v-70h100ZM350 4600H250v70h100ZM300 5030v-360" style="stroke-width:var(--lw-2)" /><path d="M100 5100v-500" style="stroke-width:var(--lw-5)" /><path d="M550 4600v500M9150 250v100h500V250Z" style="stroke-width:var(--lw-2)" /><path d="M9150 350V250h70v100ZM9650 350V250h-70v100ZM9220 300h360" style="stroke-width:var(--lw-2)" /><path d="M9150 100h500" style="stroke-width:var(--lw-5)" /><path d="M5550 250v100h2300V250Z" style="stroke-width:var(--lw-2)" /><path d="M5550 350V250h70v100ZM6150 350V250h-70v100ZM5620 300h460" style="stroke-width:var(--lw-2)" /><path d="M5550 100h2300" style="stroke-width:var(--lw-5)" /><path d="M7850 350V250h-70v100ZM6150 350V250h70v100ZM7780 300H6220M6150 550h-600M250 6000h100v2100H250Z" style="stroke-width:var(--lw-2)" /><path d="M350 6000H250v70h100ZM350 6600H250v-70h100ZM300 6070v460" style="stroke-width:var(--lw-2)" /><path d="M100 6000v2100" style="stroke-width:var(--lw-5)" /><path d="M350 8100H250v-70h100ZM350 6600H250v70h100ZM300 8030V6670M16850 8100h-100V6000h100Z" style="stroke-width:var(--lw-2)" /><path d="M16750 8100h100v-70h-100ZM16750 7500h100v70h-100ZM16800 8030v-460" style="stroke-width:var(--lw-2)" /><path d="M17000 8100V6000" style="stroke-width:var(--lw-5)" /><path d="M16750 6000h100v70h-100ZM16750 7500h100v-70h-100ZM16800 6070v1360M12900 2700v100h-1200v-100Z" style="stroke-width:var(--lw-2)" /><path d="M12900 2800v-100h-70v100ZM11700 2800v-100h70v100ZM12830 2750h-1060M11700 2800v-100h-50v100ZM10850 2700v-800h50v800Z" style="stroke-width:var(--lw-2)" /><path d="M10850 1900a800 800 0 0 1 800 800" style="stroke-width:var(--lw-1);stroke-dasharray:.3175,.1588;stroke-dashoffset:.014" /><path d="M10850 2800v-100h-50v100ZM12900 5700v100h-1200v-100Z" style="stroke-width:var(--lw-2)" /><path d="M12900 5800v-100h-70v100ZM11700 5800v-100h70v100ZM12830 5750h-1060M11700 5800v-100h-50v100ZM10850 5700v-800h50v800Z" style="stroke-width:var(--lw-2)" /><path d="M10850 4900a800 800 0 0 1 800 800" style="stroke-width:var(--lw-1);stroke-dasharray:.3175,.1588;stroke-dashoffset:.014" /><path d="M10850 5800v-100h-50v100ZM16850 9000h-100v500h100Z" style="stroke-width:var(--lw-2)" /><path d="M16750 9000h100v70h-100ZM16750 9500h100v-70h-100ZM16800 9070v360" style="stroke-width:var(--lw-2)" /><path d="M17000 9000v500" style="stroke-width:var(--lw-5)" /><path d="M16750 3050h100v50h-100ZM16750 3950h100v-50h-100ZM16750 3100h-800v50h800Z" style="stroke-width:var(--lw-2)" /><path d="M16750 3900a800 800 0 0 1-800-800" style="stroke-width:var(--lw-1);stroke-dasharray:.3175,.1588;stroke-dashoffset:.014" /><path d="M17000 3950v-900" style="stroke-width:var(--lw-5)" /><path d="M12900 3950h200M12900 3050h200" style="stroke-width:var(--lw-6)" /><path d="M12950 3950h100v-50h-100ZM12950 3050h100v50h-100ZM13050 3100h800v50h-800Z" style="stroke-width:var(--lw-2)" /><path d="M13850 3100a800 800 0 0 1-800 800" style="stroke-width:var(--lw-1);stroke-dasharray:.3175,.1588;stroke-dashoffset:.014" /><path d="M15330 7700h-2430" style="stroke-width:var(--lw-3)" /><circle cx="12900" cy="7700" r="75" style="stroke-width:var(--lw-3)" /><path d="m15060 7835 270-135-270-135" style="stroke-width:var(--lw-3)" /><path d="M12900 7150v-50h2380v-100h-747.727M14532.273 7000l-12.273-50" style="stroke-width:var(--lw-2)" /><path d="m14520 6950-270-1100" style="stroke-width:var(--lw-5)" /><path d="M14385 6400h945" style="stroke-width:var(--lw-3)" /><circle cx="15330" cy="6400" r="75" style="stroke-width:var(--lw-3)" /><path d="m14655 6265-270 135 270 135" style="stroke-width:var(--lw-3)" /><path d="M16550 8100V6000" style="stroke-width:var(--lw-5)" /><path d="M4150 8450h900v1000h300v1300H4150ZM2450 8450h1600v2400H3050v-800h-600Z" style="stroke-width:var(--lw-1);stroke:transparent" /><path d="M746.553 11892.04v1494.89h-60.04v-1494.89Z" style="stroke-width:var(--lw-2)" /><path d="M686.514 12042.259v1215.482h-54.035v-1215.482ZM1177.136 12209.917 686.514 12650l390.253 342.5" style="stroke-width:var(--lw-2)" /><path d="M550 13550h300v-1800H550Z" style="stroke-width:var(--lw-2)" /><path d="M550 10850V8450h1800v1700h600v700ZM5350 10850H550v2700h4800Z" style="stroke-width:var(--lw-1);stroke:transparent" /><text dx="0" dy="150" fill="var(--text-color)" font-family="Oswald" font-size="var(--dxf-big-font)" text-anchor="middle" transform="matrix(1 0 0 -1 3628.373 9634.284)">3.4</text><text dx="0" dy="150" fill="var(--text-color)" font-family="Oswald" font-size="var(--dxf-big-font)" text-anchor="middle" transform="matrix(1 0 0 -1 4645.954 9458.308)">2.5</text><text dx="0" dy="150" fill="var(--text-color)" font-family="Oswald" font-size="var(--dxf-big-font)" text-anchor="middle" transform="matrix(1 0 0 -1 1431.994 9800.256)">4.7</text><text dx="0" dy="150" fill="var(--text-color)" font-family="Oswald" font-size="var(--dxf-big-font)" text-anchor="middle" transform="matrix(1 0 0 -1 3272.275 11249.023)">13.0</text><path d="M12250 8450h-1700v2000h1700ZM16550 10550h-6000v3000h6000ZM14050 8450h2500v2100h-2500ZM12350 8450v2000h1600V8850h-800v-400Z" style="stroke-width:var(--lw-1);stroke:transparent" /><text dx="0" dy="150" fill="var(--text-color)" font-family="Oswald" font-size="var(--dxf-big-font)" text-anchor="middle" transform="matrix(1 0 0 -1 11746.872 9634.284)">3.4</text><text dx="0" dy="150" fill="var(--text-color)" font-family="Oswald" font-size="var(--dxf-big-font)" text-anchor="middle" transform="matrix(1 0 0 -1 12808.896 9458.308)">2.9</text><text dx="0" dy="150" fill="var(--text-color)" font-family="Oswald" font-size="var(--dxf-big-font)" text-anchor="middle" transform="matrix(1 0 0 -1 15683.588 9800.348)">5.3</text><text dx="0" dy="150" fill="var(--text-color)" font-family="Oswald" font-size="var(--dxf-big-font)" text-anchor="middle" transform="matrix(1 0 0 -1 13983.477 11130.816)">18.0</text><path d="M550 5850h16000v2400H550Z" style="stroke-width:var(--lw-1);stroke:transparent" /><text dx="0" dy="150" fill="var(--text-color)" font-family="Oswald" font-size="var(--dxf-big-font)" text-anchor="middle" transform="matrix(1 0 0 -1 8647.97 7144.244)">38.4</text><path d="M10550 5650h2350V3000h-2350ZM16550 3000v2650h-2500v-400h-950V3000Z" style="stroke-width:var(--lw-1);stroke:transparent" /><text dx="0" dy="150" fill="var(--text-color)" font-family="Oswald" font-size="var(--dxf-big-font)" text-anchor="middle" transform="matrix(1 0 0 -1 11754.61 4364.29)">6.2</text><text dx="0" dy="150" fill="var(--text-color)" font-family="Oswald" font-size="var(--dxf-big-font)" text-anchor="middle" transform="matrix(1 0 0 -1 14782.727 4364.29)">8.8</text><text dx="0" dy="150" fill="var(--text-color)" font-family="Oswald" font-size="var(--dxf-big-font)" text-anchor="middle" transform="matrix(1 0 0 -1 7271.627 9634.284)">3.4</text><text dx="0" dy="150" fill="var(--text-color)" font-family="Oswald" font-size="var(--dxf-big-font)" text-anchor="middle" transform="matrix(1 0 0 -1 6254.046 9458.308)">2.5</text><text dx="0" dy="150" fill="var(--text-color)" font-family="Oswald" font-size="var(--dxf-big-font)" text-anchor="middle" transform="matrix(1 0 0 -1 9468.006 9800.256)">4.7</text><text dx="0" dy="150" fill="var(--text-color)" font-family="Oswald" font-size="var(--dxf-big-font)" text-anchor="middle" transform="matrix(1 0 0 -1 7627.725 11249.023)">13.0</text><text dx="0" dy="150" fill="var(--text-color)" font-family="Oswald" font-size="var(--dxf-big-font)" text-anchor="middle" transform="matrix(1 0 0 -1 3628.373 4615.9)">3.4</text><text dx="0" dy="150" fill="var(--text-color)" font-family="Oswald" font-size="var(--dxf-big-font)" text-anchor="middle" transform="matrix(1 0 0 -1 4645.954 4791.877)">2.5</text><text dx="0" dy="150" fill="var(--text-color)" font-family="Oswald" font-size="var(--dxf-big-font)" text-anchor="middle" transform="matrix(1 0 0 -1 1431.994 4449.744)">4.7</text><text dx="0" dy="150" fill="var(--text-color)" font-family="Oswald" font-size="var(--dxf-big-font)" text-anchor="middle" transform="matrix(1 0 0 -1 3272.275 3001.162)">13.0</text><text dx="0" dy="150" fill="var(--text-color)" font-family="Oswald" font-size="var(--dxf-big-font)" text-anchor="middle" transform="matrix(1 0 0 -1 7271.627 4615.9)">3.4</text><text dx="0" dy="150" fill="var(--text-color)" font-family="Oswald" font-size="var(--dxf-big-font)" text-anchor="middle" transform="matrix(1 0 0 -1 6254.046 4791.877)">2.5</text><text dx="0" dy="150" fill="var(--text-color)" font-family="Oswald" font-size="var(--dxf-big-font)" text-anchor="middle" transform="matrix(1 0 0 -1 9468.006 4449.744)">4.7</text><text dx="0" dy="150" fill="var(--text-color)" font-family="Oswald" font-size="var(--dxf-big-font)" text-anchor="middle" transform="matrix(1 0 0 -1 7627.725 3001.162)">13.0</text><path d="M17000 550v2100h-6200V100h5050v450Z" style="stroke-width:var(--lw-1);stroke:transparent" /><text dx="0" dy="150" fill="var(--text-color)" font-family="Oswald" font-size="var(--dxf-big-font)" text-anchor="middle" transform="matrix(1 0 0 -1 13810.646 1416.414)">15.3</text><path d="M0 14100h17100V0H0Z" style="stroke-width:var(--lw-1);stroke:transparent" /></g></svg>