<svg xmlns="http://www.w3.org/2000/svg" class="svg-drawing" height="1444490.266" viewBox="744.9259999999999 -16025.716 14946.774 15346.774" width="1406090.266"><g transform="scale(1 -1)"><path d="M6764.938 9105.704h-5400v600M1364.938 10705.704v1650M2214.938 14205.704h2950M7164.938 14205.704h600v-5100h-100M6464.938 7905.704v-5400h-600M4864.938 2505.704h-1650M1364.938 3355.704v2950M1364.938 8305.704v600h5100v-100M8964.938 9105.704h5400v600M14364.938 11705.704v1650M12514.938 14205.704h-2950M8564.938 14205.704h-600v-5100h100M9264.938 7905.704v-5400h600M11864.938 2505.704h1650M14364.938 4355.704v2950M14364.938 8305.704v600h-5100v-100M8864.938 2185.704h1000M11864.938 2185.704h1650M14684.938 4355.704v2950M14684.938 8305.704v1400M14684.938 11705.704v1650" style="stroke-width:.0236" /><path d="M14684.938 13355.704v1170h-2170" style="stroke-width:.0118" /><path d="M12514.938 14525.704h-2950M8564.938 14525.704h-1400M5164.938 14525.704h-2950M1044.938 12355.704v-1650M1044.938 9705.704v-1400M1044.938 6305.704v-2950M3214.938 2185.704h1650M5864.938 2185.704h1000M9064.938 7905.704v-5400h-200M6864.938 2505.704h-200v5400M6664.938 8805.704v100h100M7664.938 8905.704h400M8964.938 8905.704h100v-100M8964.938 8905.704v200M8064.938 8905.704v200" style="stroke-width:.0236" /><path d="M6664.938 6535.704h2400M6664.938 4105.704h2400M7764.938 6535.704v-2430M7964.938 6535.704v-810M7964.938 5455.704v-1350" style="stroke-width:.0035" /><path d="M7214.938 6535.704v-2430M7079.938 6265.704l135 270 135-270" style="stroke-width:.0051" /><path d="M6664.938 6265.704h1100M6664.938 5995.704h1100M6664.938 5725.704h1100M6664.938 5455.704h1100M6664.938 5185.704h1100M6664.938 4915.704h1100M6664.938 4645.704h1100M6664.938 4375.704h1100M9064.938 6265.704h-1100M9064.938 5995.704h-1100M9064.938 5725.704h-1100M9064.938 5185.704h-1100M9064.938 4915.704h-1100M9064.938 4645.704h-1100M9064.938 4375.704h-1100M7964.938 5725.704l1100-270M7964.938 5725.704l1100-270M7964.938 5455.704l1100-270M7964.938 5455.704l1100-270" style="stroke-width:.0035" /><path d="M8514.938 4105.704v1215M8514.938 5590.704v945M8649.938 4375.704l-135-270-135 270M8649.938 5860.704l-135-270-135 270" style="stroke-width:.0051" /><path d="M6764.938 8905.704v200M7664.938 8905.704v200M8564.938 14205.704v320M9564.938 14205.704v320M14364.938 11705.704h320M14364.938 9705.704h320M14364.938 14305.704h100v-100h-100ZM12514.938 14205.704v320M14364.938 13355.704h320" style="stroke-width:.0236" /><path d="M11664.938 14205.704v-2800M11664.938 10405.704v-1300M11564.938 14205.704v-2700M11564.938 10305.704v-1200M11564.938 11505.704h-2200M8564.938 11505.704h-600M11664.938 11405.704h-2300M8564.938 11405.704h-600M11664.938 10405.704h-800M10064.938 10405.704h-900M11564.938 10305.704h-700M10064.938 10305.704h-800M9164.938 9105.704v1300M9264.938 9405.704v900M8564.938 11505.704v-100M9364.938 11505.704v-100M10864.938 10305.704v100M10064.938 10305.704v100M10164.938 9305.704h-900v-200h900Z" style="stroke-width:.0157" /><path d="M10264.938 9105.704v300h-1000" style="stroke-width:.0157" /><path d="M8364.938 11405.704h-400v-1000h400ZM8364.938 10405.704l-400 1000M8364.938 11405.704l-400-1000M8564.938 11505.704v2700M8564.938 13305.704h-600M8564.938 12405.704h-600M7964.938 13305.704l600 900M8564.938 13305.704l-600 900M7964.938 12405.704l600-900M8564.938 12405.704l-600-900M8064.938 13205.704h50v-700h-50ZM8114.938 13255.704h50v-800h-50Z" style="stroke-width:.0035" /><path d="m8433.136 12537.506-318.199 318.198 212.132 212.132M9614.938 13605.704v-1500h1950v1500Z" style="stroke-width:.0035" /><path d="M9564.938 13655.704v-1600h2000v1600Z" style="stroke-width:.0035" /><path d="M11514.938 13477.287h-387.833v-558.168h387.833ZM11514.938 12234.12h-387.833v558.168h387.833ZM11164.938 14205.704v-550h400v550ZM11164.938 11505.704v550h400v-550ZM8564.938 11405.704v100h50v-100ZM9364.938 11405.704v100h-50v-100ZM8614.938 11505.704v700h50v-700Z" style="stroke-width:.0035" /><path d="M9314.938 11505.704a700 700 0 0 1-700 700M11664.938 9705.704h2700M11664.938 9705.704h600v-600h-600ZM12164.938 9405.704h-400M11964.938 9605.704v-400M12106.359 9547.125l-282.843-282.843M11823.516 9547.125l282.843-282.843M12264.938 9105.704v600h600v-600Z" style="stroke-width:.0035" /><path d="M12571.54 9255.704h93.397a100 100 0 0 1 100 100v150a100 100 0 0 1-100 100h-200a100 100 0 0 1-100-100v-150a100 100 0 0 1 100-100h76.13" style="stroke-width:.0035" /><path d="M12571.54 9399.38h-30.473v-204.723h30.473ZM13464.938 9390.701a74.999 74.999 0 1 0 75 75M13764.938 9390.701a74.999 74.999 0 1 0 75 75M13314.938 9705.704v-600M13914.938 9105.704v600M13839.938 9225.705a75.009 75.009 0 0 0-75-75" style="stroke-width:.0035" /><path d="M13764.938 9150.705a74.999 74.999 0 1 0 75 75M13839.938 9465.701a75.009 75.009 0 0 0-75-75M13314.938 9105.704h600" style="stroke-width:.0035" /><circle cx="13464.939" cy="9225.704" r="49.999" style="stroke-width:.0035" /><path d="M13539.938 9465.701a75.009 75.009 0 0 0-75-75M13914.938 9705.704h-600M13783.925 9615.751h-10.019M13773.906 9640.808h10.019M13314.938 9585.703h600M13860.18 9615.751h-10.019M13860.18 9640.808v-25.057M13850.161 9640.808h10.019M13850.161 9615.751v25.057M13819.548 9615.751h-10.019M13819.548 9640.808v-25.057M13809.529 9640.808h10.019M13809.529 9615.751v25.057M13801.737 9615.751h-10.019M13801.737 9640.808v-25.057M13791.718 9640.808h10.019M13791.718 9615.751v25.057M13783.925 9640.808v-25.057" style="stroke-width:.0035" /><circle cx="13379.538" cy="9645.703" r="23.26" style="stroke-width:.0035" /><circle cx="13467.293" cy="9645.703" r="23.26" style="stroke-width:.0035" /><circle cx="13730.558" cy="9645.703" r="23.26" style="stroke-width:.0035" /><circle cx="13642.803" cy="9645.703" r="23.26" style="stroke-width:.0035" /><circle cx="13555.048" cy="9645.703" r="23.26" style="stroke-width:.0035" /><path d="M13773.906 9615.751v25.057M13164.938 14005.704v-600h200v800h-1600v-2800h800v200h-600v2400Z" style="stroke-width:.0035" /><path d="M13164.938 13405.704h-600v-1200M12564.938 11605.704h222.222v600h-822.222M12564.938 12805.704h-600M11964.938 13405.704h600v600M9847.438 9455.704v367.5M9482.438 9823.204v-367.5M9482.438 9405.704h365M9482.438 9590.704h365M9847.438 9823.204a182.5 182.5 0 0 1-365 0M9847.438 9405.704v135M9482.438 9540.704v-135M10064.938 10405.704v-100h50v100ZM10864.938 10405.704v-100h-50v100ZM10114.938 10305.704v-700h50v700Z" style="stroke-width:.0035" /><path d="M10114.938 9605.704a700 700 0 0 1 700 700M10864.938 10305.704h700v-1200h-700Z" style="stroke-width:.0035" /><path d="M10914.938 10255.704h600v-1100h-600ZM10264.938 9505.704h600v-400h-600Z" style="stroke-width:.0035" /><path d="M10539.938 9255.704h-225v200h500v-200h-225M10864.938 9155.704h-600" style="stroke-width:.0035" /><path d="M10539.938 9355.704h50v-150h-50Z" style="stroke-width:.0035" /><circle cx="11014.938" cy="9255.704" r="50" style="stroke-width:.0035" /><path d="M13564.938 11405.704h800v-1000h-800ZM13739.938 10305.704h450v-450h-450ZM13464.938 10680.704v450h-450v-450ZM13739.938 11505.704h450v450h-450ZM14364.937 13605.704h-300v-1400h300Z" style="stroke-width:.0035" /><path d="M14168.384 12247.743v1294.89h60.04v-1294.89Z" style="stroke-width:.0035" /><path d="M14228.423 12397.963v1015.482h54.035v-1015.482ZM13737.802 12465.62l490.621 440.084-390.253 342.5M8064.938 8955.704v100h50v-100ZM8964.938 8955.704v100h-50v-100ZM8114.938 9055.704v800h50v-800Z" style="stroke-width:.0035" /><path d="M8914.938 9055.704a800 800 0 0 1-800 800" style="stroke-width:.0035" /><path d="M14364.938 5205.704h-2800M10564.938 5205.704h-1300M14364.938 5305.704h-2700M10464.938 5305.704h-1200M11664.938 5305.704v2200M11664.938 8305.704v600M11564.938 5205.704v2300M11564.938 8305.704v600M10564.938 5205.704v800M10564.938 6805.704v900M10464.938 5305.704v700M10464.938 6805.704v800M9264.938 7705.704h1300M9564.938 7605.704h900M11664.938 8305.704h-100M11664.938 7505.704h-100M10464.938 6005.704h100M10464.938 6805.704h100M9464.938 6705.704v900h-200v-900Z" style="stroke-width:.0157" /><path d="M9264.938 6605.704h300v1000" style="stroke-width:.0157" /><path d="M11564.938 8505.704v400h-1000v-400ZM10564.938 8505.704l1000 400M11564.938 8505.704l-1000 400M11664.938 8305.704h2700M13464.938 8305.704v600M12564.938 8305.704v600M13464.938 8905.704l900-600M13464.938 8305.704l900 600M12564.938 8905.704l-900-600M12564.938 8305.704l-900 600M13364.938 8805.704v-50h-700v50ZM13414.938 8755.704v-50h-800v50Z" style="stroke-width:.0035" /><path d="m12696.74 8437.506 318.198 318.198 212.131-212.132M13764.938 7255.704h-1500v-1950h1500Z" style="stroke-width:.0035" /><path d="M13814.938 7305.704h-1600v-2000h1600Z" style="stroke-width:.0035" /><path d="M13636.52 5355.704v387.832h-558.167v-387.832ZM12393.354 5355.704v387.832h558.168v-387.832ZM14364.938 5705.704h-550v-400h550ZM11664.938 5705.704h550v-400h-550ZM11564.938 8305.704h100v-50h-100ZM11564.938 7505.704h100v50h-100ZM11664.938 8255.704h700v-50h-700Z" style="stroke-width:.0035" /><path d="M11664.938 7555.704a700 700 0 0 1 700 700M9864.938 5205.704v-2700M9864.938 5205.704v-600h-600v600ZM9564.938 4705.704v400M9764.938 4905.704h-400M9706.359 4764.282l-282.843 282.843M9706.359 5047.125l-282.843-282.843M9264.938 4605.704h600v-600h-600Z" style="stroke-width:.0035" /><path d="M9414.938 4299.102v-93.398a100 100 0 0 1 100-100h150a100 100 0 0 1 100 100v200a100 100 0 0 1-100 100h-150a100 100 0 0 1-100-100v-76.13" style="stroke-width:.0035" /><path d="M9558.613 4299.102v30.472H9353.89v-30.472ZM9549.935 3405.704a74.999 74.999 0 1 0 75-75M9549.935 3105.704a74.999 74.999 0 1 0 75-75M9864.938 3555.704h-600M9264.938 2955.704h600M9384.939 3030.704a75.009 75.009 0 0 0-75 75" style="stroke-width:.0035" /><path d="M9309.939 3105.704a74.999 74.999 0 1 0 75-75M9624.935 3030.704a75.009 75.009 0 0 0-75 75M9264.938 3555.704v-600" style="stroke-width:.0035" /><circle cx="9384.937" cy="3405.702" r="49.999" style="stroke-width:.0035" /><path d="M9624.935 3330.704a75.009 75.009 0 0 0-75 75M9864.938 2955.704v600M9774.985 3086.716v10.019M9800.042 3096.735v-10.019M9744.936 3555.704v-600M9774.985 3010.461v10.019M9800.042 3010.461h-25.057M9800.042 3020.48v-10.019M9774.985 3020.48h25.057M9774.985 3051.093v10.019M9800.042 3051.093h-25.057M9800.042 3061.112v-10.019M9774.985 3061.112h25.057M9774.985 3068.904v10.019M9800.042 3068.904h-25.057M9800.042 3078.923v-10.019M9774.985 3078.923h25.057M9800.042 3086.716h-25.057" style="stroke-width:.0035" /><circle cx="9804.937" cy="3491.104" r="23.26" style="stroke-width:.0035" /><circle cx="9804.937" cy="3403.349" r="23.26" style="stroke-width:.0035" /><circle cx="9804.937" cy="3140.084" r="23.26" style="stroke-width:.0035" /><circle cx="9804.937" cy="3227.838" r="23.26" style="stroke-width:.0035" /><circle cx="9804.937" cy="3315.593" r="23.26" style="stroke-width:.0035" /><path d="M9774.985 3096.735h25.057M14164.938 3705.704h-600v-200h800v1600h-2800v-800h200v600h2400Z" style="stroke-width:.0035" /><path d="M13564.938 3705.704v600h-1200M11764.938 4305.704v-222.222h600v822.222M12964.938 4305.704v600M13564.938 4905.704v-600h600M9614.938 7023.204h367.5M9982.438 7388.204h-367.5M9564.938 7388.204v-365M9749.938 7388.204v-365M9982.438 7023.204a182.5 182.5 0 0 1 0 365M9564.938 7023.204h135M9699.938 7388.204h-135M10564.938 6805.704h-100v-50h100ZM10564.938 6005.704h-100v50h100ZM10464.938 6755.704h-700v-50h700Z" style="stroke-width:.0035" /><path d="M9764.938 6755.704a700 700 0 0 1 700-700M10464.938 6005.704v-700h-1200v700Z" style="stroke-width:.0035" /><path d="M10414.938 5955.704v-600h-1100v600ZM9664.938 6605.704v-600h-400v600Z" style="stroke-width:.0035" /><path d="M9414.938 6330.704v225h200v-500h-200v225M9314.938 6005.704v600" style="stroke-width:.0035" /><path d="M9514.938 6330.704v-50h-150v50Z" style="stroke-width:.0035" /><circle cx="9414.938" cy="5855.704" r="50" style="stroke-width:.0035" /><path d="M11564.938 3305.704v-800h-1000v800ZM10464.938 3130.704v-450h-450v450ZM10839.938 3405.704h450v450h-450ZM11664.938 3130.704v-450h450v450ZM13764.938 2505.704v300h-1400v-300Z" style="stroke-width:.0035" /><path d="M12406.977 2702.257h1294.89v-60.04h-1294.89Z" style="stroke-width:.0035" /><path d="M12557.197 2642.218h1015.481v-54.035h-1015.481ZM12624.854 3132.84l440.084-490.622 342.5 390.254M9114.938 8805.704h100v-50h-100ZM9114.938 7905.704h100v50h-100ZM9214.938 8755.704h800v-50h-800Z" style="stroke-width:.0035" /><path d="M9214.938 7955.704a800 800 0 0 1 800 800" style="stroke-width:.0035" /><path d="M9064.938 7905.704h200M9064.938 8805.704h200M6664.938 7905.704h-200M6664.938 8805.704h-200M8864.938 2505.704v-320M6864.938 2505.704v-320" style="stroke-width:.0236" /><path d="M9564.938 14455.704v-100h-1000v100Z" style="stroke-width:.0035" /><path d="M9564.938 14355.704v100h-70v-100ZM8564.938 14355.704v100h70v-100ZM9494.938 14405.704h-860" style="stroke-width:.0035" /><path d="M9564.938 14525.704h-1000" style="stroke-width:.0118" /><path d="M7164.938 14205.704v320M5164.938 14205.704v320" style="stroke-width:.0236" /><path d="M5164.938 14455.704v-100h2000v100Z" style="stroke-width:.0035" /><path d="M6164.938 14355.704v100h70v-100ZM7164.938 14355.704v100h-70v-100ZM6234.938 14405.704h860M5164.938 14355.704v100h70v-100ZM6164.938 14355.704v100h-70v-100ZM5234.938 14405.704h860" style="stroke-width:.0035" /><path d="M5164.938 14525.704h2000" style="stroke-width:.0118" /><path d="M14514.938 14455.704v-100h-2000v100Z" style="stroke-width:.0035" /><path d="M13514.938 14355.704v100h-70v-100ZM12514.938 14355.704v100h70v-100ZM13444.938 14405.704h-860M14514.938 14355.704v100h-70v-100ZM13514.938 14355.704v100h70v-100ZM14444.938 14405.704h-860M14614.938 14355.704h-100v-1000h100Z" style="stroke-width:.0035" /><path d="M14514.938 14355.704h100v-70h-100ZM14514.938 13355.704h100v70h-100ZM14564.938 14285.704v-860M14514.938 14455.704h100v-100h-100ZM14614.938 11705.704h-100v-2000h100Z" style="stroke-width:.0035" /><path d="M14514.938 10705.704h100v-70h-100ZM14514.938 9705.704h100v70h-100ZM14564.938 10635.704v-860M14514.938 11705.704h100v-70h-100ZM14514.938 10705.704h100v70h-100ZM14564.938 11635.704v-860" style="stroke-width:.0035" /><path d="M14684.938 11705.704v-2000M13514.938 2185.704h1170v2170" style="stroke-width:.0118" /><path d="M14364.938 8305.704h320M14364.938 7305.704h320M11864.938 2505.704v-320M9864.938 2505.704v-320M14464.938 2505.704v-100h-100v100ZM14364.938 4355.704h320M13514.938 2505.704v-320" style="stroke-width:.0236" /><path d="M14614.938 7305.704h-100v1000h100Z" style="stroke-width:.0035" /><path d="M14514.938 7305.704h100v70h-100ZM14514.938 8305.704h100v-70h-100ZM14564.938 7375.704v860" style="stroke-width:.0035" /><path d="M14684.938 7305.704v1000" style="stroke-width:.0118" /><path d="M14614.938 2355.704h-100v2000h100Z" style="stroke-width:.0035" /><path d="M14514.938 3355.704h100v70h-100ZM14514.938 4355.704h100v-70h-100ZM14564.938 3425.704v860M14514.938 2355.704h100v70h-100ZM14514.938 3355.704h100v-70h-100ZM14564.938 2425.704v860M14514.938 2255.704v100h-1000v-100Z" style="stroke-width:.0035" /><path d="M14514.938 2355.704v-100h-70v100ZM13514.938 2355.704v-100h70v100ZM14444.938 2305.704h-860M14614.938 2355.704v-100h-100v100ZM11864.938 2255.704v100h-2000v-100Z" style="stroke-width:.0035" /><path d="M10864.938 2355.704v-100h-70v100ZM9864.938 2355.704v-100h70v100ZM10794.938 2305.704h-860M11864.938 2355.704v-100h-70v100ZM10864.938 2355.704v-100h70v100ZM11794.938 2305.704h-860" style="stroke-width:.0035" /><path d="M11864.938 2185.704h-2000M2214.938 14525.704h-1170v-2170" style="stroke-width:.0118" /><path d="M1364.938 6305.704h-320M1364.938 8305.704h-320M1264.938 14205.704v100h100v-100ZM1364.938 12355.704h-320M2214.938 14205.704v320" style="stroke-width:.0236" /><path d="M1114.938 14355.704h100v-2000h-100Z" style="stroke-width:.0035" /><path d="M1214.938 13355.704h-100v-70h100ZM1214.938 12355.704h-100v70h100ZM1164.938 13285.704v-860M1214.938 14355.704h-100v-70h100ZM1214.938 13355.704h-100v70h100ZM1164.938 14285.704v-860M1214.938 14455.704v-100h1000v100Z" style="stroke-width:.0035" /><path d="M1214.938 14355.704v100h70v-100ZM2214.938 14355.704v100h-70v-100ZM1284.938 14405.704h860M1114.938 14355.704v100h100v-100ZM1114.938 6305.704h100v2000h-100Z" style="stroke-width:.0035" /><path d="M1214.938 7305.704h-100v70h100ZM1214.938 8305.704h-100v-70h100ZM1164.938 7375.704v860M1214.938 6305.704h-100v70h100ZM1214.938 7305.704h-100v-70h100ZM1164.938 6375.704v860" style="stroke-width:.0035" /><path d="M1044.938 6305.704v2000M1044.938 3355.704v-1170h2170" style="stroke-width:.0118" /><path d="M1364.938 9705.704h-320M1364.938 10705.704h-320M4864.938 2505.704v-320M5864.938 2505.704v-320M1364.938 2405.704h-100v100h100ZM3214.938 2505.704v-320M1364.938 3355.704h-320" style="stroke-width:.0236" /><path d="M1114.938 10705.704h100v-1000h-100Z" style="stroke-width:.0035" /><path d="M1214.938 10705.704h-100v-70h100ZM1214.938 9705.704h-100v70h100ZM1164.938 10635.704v-860" style="stroke-width:.0035" /><path d="M1044.938 10705.704v-1000" style="stroke-width:.0118" /><path d="M1214.938 2255.704v100h2000v-100Z" style="stroke-width:.0035" /><path d="M2214.938 2355.704v-100h70v100ZM3214.938 2355.704v-100h-70v100ZM2284.938 2305.704h860M1214.938 2355.704v-100h70v100ZM2214.938 2355.704v-100h-70v100ZM1284.938 2305.704h860M1114.938 2355.704h100v1000h-100Z" style="stroke-width:.0035" /><path d="M1214.938 2355.704h-100v70h100ZM1214.938 3355.704h-100v-70h100ZM1164.938 2425.704v860M1214.938 2255.704h-100v100h100ZM4864.938 2255.704v100h1000v-100Z" style="stroke-width:.0035" /><path d="M4864.938 2355.704v-100h70v100ZM5864.938 2355.704v-100h-70v100ZM4934.938 2305.704h860" style="stroke-width:.0035" /><path d="M4864.938 2185.704h1000M6864.938 2185.704h2000" style="stroke-width:.0118" /><path d="M8864.938 2255.704v100h-1000v-100Z" style="stroke-width:.0035" /><path d="M8864.938 2355.704v-100h-70v100ZM7864.938 2355.704v-100h70v100ZM8794.938 2305.704h-860M7864.938 2355.704v-100h-50v100ZM6914.938 2255.704v-900h50v900Z" style="stroke-width:.0035" /><path d="M6914.938 1355.704a900 900 0 0 1 900 900M6914.938 2355.704v-100h-50v100Z" style="stroke-width:.0035" /><path d="M4064.938 14205.704v-2800M4064.938 10405.704v-1300M4164.938 14205.704v-2700M4164.938 10305.704v-1200M4164.938 11505.704h2200M7164.938 11505.704h600M4064.938 11405.704h2300M7164.938 11405.704h600M4064.938 10405.704h800M5664.938 10405.704h900M4164.938 10305.704h700M5664.938 10305.704h800M6564.938 9105.704v1300M6464.938 9405.704v900M7164.938 11505.704v-100M6364.938 11505.704v-100M4864.938 10305.704v100M5664.938 10305.704v100M5564.938 9305.704h900v-200h-900Z" style="stroke-width:.0157" /><path d="M5464.938 9105.704v300h1000" style="stroke-width:.0157" /><path d="M7364.938 11405.704h400v-1000h-400ZM7364.938 10405.704l400 1000M7364.938 11405.704l400-1000M7164.938 11505.704v2700M7164.938 13305.704h600M7164.938 12405.704h600M7764.938 13305.704l-600 900M7164.938 13305.704l600 900M7764.938 12405.704l-600-900M7164.938 12405.704l600-900M7664.938 13205.704h-50v-700h50ZM7614.938 13255.704h-50v-800h50Z" style="stroke-width:.0035" /><path d="m7296.74 12537.506 318.198 318.198-212.133 212.132M6114.938 13605.704v-1500h-1950v1500Z" style="stroke-width:.0035" /><path d="M6164.938 13655.704v-1600h-2000v1600Z" style="stroke-width:.0035" /><path d="M4214.938 13477.287h387.832v-558.168h-387.833ZM4214.938 12234.12h387.832v558.168h-387.833ZM4564.938 14205.704v-550h-400v550ZM4564.938 11505.704v550h-400v-550ZM7164.938 11405.704v100h-50v-100ZM6364.938 11405.704v100h50v-100ZM7114.938 11505.704v700h-50v-700Z" style="stroke-width:.0035" /><path d="M7114.938 12205.704a700 700 0 0 1-700-700M4064.938 9705.704h-2700M4064.938 9705.704h-600v-600h600ZM3564.938 9405.704h400M3764.938 9605.704v-400M3623.516 9547.125l282.843-282.843M3906.359 9547.125l-282.843-282.843M3464.938 9105.704v600h-600v-600Z" style="stroke-width:.0035" /><path d="M3158.335 9255.704h-93.398a100 100 0 0 0-100 100v150a100 100 0 0 0 100 100h200a100 100 0 0 0 100-100v-150a100 100 0 0 0-100-100h-76.13" style="stroke-width:.0035" /><path d="M3158.335 9399.38h30.472v-204.723h-30.472ZM2264.938 9390.701a74.999 74.999 0 1 1-75 75M1964.937 9390.701a74.999 74.999 0 1 1-75 75M2414.938 9705.704v-600M1814.937 9105.704v600M1889.937 9225.705a75.009 75.009 0 0 1 75-75" style="stroke-width:.0035" /><path d="M1964.937 9150.705a74.999 74.999 0 1 1-75 75M1889.937 9465.701a75.009 75.009 0 0 1 75-75M2414.938 9105.704h-600.001" style="stroke-width:.0035" /><circle cx="2264.936" cy="9225.704" r="49.999" style="stroke-width:.0035" /><path d="M2189.937 9465.701a75.009 75.009 0 0 1 75-75M1814.937 9705.704h600.001M1945.949 9615.751h10.019M1955.968 9640.808h-10.019M2414.938 9585.703h-600.001M1869.695 9615.751h10.019M1869.695 9640.808v-25.057M1879.714 9640.808h-10.019M1879.714 9615.751v25.057M1910.327 9615.751h10.019M1910.327 9640.808v-25.057M1920.346 9640.808h-10.019M1920.346 9615.751v25.057M1928.138 9615.751h10.019M1928.138 9640.808v-25.057M1938.157 9640.808h-10.019M1938.157 9615.751v25.057M1945.949 9640.808v-25.057" style="stroke-width:.0035" /><circle cx="2350.337" cy="9645.703" r="23.26" style="stroke-width:.0035" /><circle cx="2262.582" cy="9645.703" r="23.26" style="stroke-width:.0035" /><circle cx="1999.317" cy="9645.703" r="23.26" style="stroke-width:.0035" /><circle cx="2087.072" cy="9645.703" r="23.26" style="stroke-width:.0035" /><circle cx="2174.827" cy="9645.703" r="23.26" style="stroke-width:.0035" /><path d="M1955.968 9615.751v25.057M2564.938 14005.704v-600h-200v800h1600v-2800h-800v200h600v2400Z" style="stroke-width:.0035" /><path d="M2564.938 13405.704h600v-1200M3164.938 11605.704h-222.223v600h822.222M3164.938 12805.704h600M3764.938 13405.704h-600v600M5882.438 9455.704v367.5M6247.438 9823.204v-367.5M6247.438 9405.704h-365M6247.438 9590.704h-365M5882.438 9823.204a182.5 182.5 0 0 0 365 0M5882.438 9405.704v135M6247.438 9540.704v-135M5664.938 10405.704v-100h-50v100ZM4864.938 10405.704v-100h50v100ZM5614.938 10305.704v-700h-50v700Z" style="stroke-width:.0035" /><path d="M4914.938 10305.704a700 700 0 0 1 700-700M4864.938 10305.704h-700v-1200h700Z" style="stroke-width:.0035" /><path d="M4814.938 10255.704h-600v-1100h600ZM5464.938 9505.704h-600v-400h600Z" style="stroke-width:.0035" /><path d="M5189.938 9255.704h225v200h-500v-200h225M4864.938 9155.704h600" style="stroke-width:.0035" /><path d="M5189.938 9355.704h-50v-150h50Z" style="stroke-width:.0035" /><circle cx="4714.938" cy="9255.704" r="50" style="stroke-width:.0035" /><path d="M2164.938 11405.704h-800v-1000h800ZM1989.938 10305.704h-450v-450h450ZM2264.938 10680.704v450h450v-450ZM1989.938 11505.704h-450v450h450ZM1364.938 13605.704h300v-1400h-300Z" style="stroke-width:.0035" /><path d="M1561.49 12247.743v1294.89h-60.038v-1294.89ZM1501.452 12397.963v1015.482h-54.036v-1015.482Z" style="stroke-width:.0035" /><path d="m1992.073 12465.62-490.621 440.084 390.253 342.5M7664.938 8955.704v100h-50v-100ZM6764.938 8955.704v100h50v-100ZM7614.938 9055.704v800h-50v-800Z" style="stroke-width:.0035" /><path d="M7614.938 9855.704a800 800 0 0 1-800-800" style="stroke-width:.0035" /><path d="M1364.938 5205.704h2800M5164.938 5205.704h1300M1364.938 5305.704h2700M5264.938 5305.704h1200M4064.938 5305.704v2200M4064.938 8305.704v600M4164.938 5205.704v2300M4164.938 8305.704v600M5164.938 5205.704v800M5164.938 6805.704v900M5264.938 5305.704v700M5264.938 6805.704v800M6464.938 7705.704h-1300M6164.938 7605.704h-900M4064.938 8305.704h100M4064.938 7505.704h100M5264.938 6005.704h-100M5264.938 6805.704h-100M6264.938 6705.704v900h200v-900Z" style="stroke-width:.0157" /><path d="M6464.938 6605.704h-300v1000" style="stroke-width:.0157" /><path d="M4164.938 8505.704v400h1000v-400ZM5164.938 8505.704l-1000 400M4164.938 8505.704l1000 400M4064.938 8305.704h-2700M2264.938 8305.704v600M3164.938 8305.704v600M2264.938 8905.704l-900-600M2264.938 8305.704l-900 600M3164.938 8905.704l900-600M3164.938 8305.704l900 600M2364.938 8805.704v-50h700v50ZM2314.938 8755.704v-50h800v50Z" style="stroke-width:.0035" /><path d="m3033.135 8437.506-318.198 318.198-212.132-212.132M1964.938 7255.704h1500v-1950h-1500Z" style="stroke-width:.0035" /><path d="M1914.938 7305.704h1600v-2000h-1600Z" style="stroke-width:.0035" /><path d="M2093.354 5355.704v387.832h558.168v-387.832ZM3336.52 5355.704v387.832h-558.167v-387.832ZM1364.938 5705.704h550v-400h-550ZM4064.938 5705.704h-550v-400h550ZM4164.938 8305.704h-100v-50h100ZM4164.938 7505.704h-100v50h100ZM4064.938 8255.704h-700v-50h700Z" style="stroke-width:.0035" /><path d="M3364.938 8255.704a700 700 0 0 1 700-700M5864.938 5205.704v-2700M5864.938 5205.704v-600h600v600ZM6164.938 4705.704v400M5964.938 4905.704h400M6023.516 4764.282l282.843 282.843M6023.516 5047.125l282.843-282.843M6464.938 4605.704h-600v-600h600Z" style="stroke-width:.0035" /><path d="M6314.938 4299.102v-93.398a100 100 0 0 0-100-100h-150a100 100 0 0 0-100 100v200a100 100 0 0 0 100 100h150a100 100 0 0 0 100-100v-76.13" style="stroke-width:.0035" /><path d="M6171.262 4299.102v30.472h204.722v-30.472ZM6179.94 3405.704a74.999 74.999 0 1 1-75-75M6179.94 3105.704a74.999 74.999 0 1 1-75-75M5864.938 3555.704h600M6464.938 2955.704h-600M6344.936 3030.704a75.009 75.009 0 0 1 75 75" style="stroke-width:.0035" /><path d="M6419.936 3105.704a74.999 74.999 0 1 1-75-75M6104.94 3030.704a75.009 75.009 0 0 1 75 75M6464.938 3555.704v-600" style="stroke-width:.0035" /><circle cx="6344.938" cy="3405.702" r="49.999" style="stroke-width:.0035" /><path d="M6104.94 3330.704a75.009 75.009 0 0 1 75 75M5864.938 2955.704v600M5954.89 3086.716v10.019M5929.833 3096.735v-10.019M5984.939 3555.704v-600M5954.89 3010.461v10.019M5929.833 3010.461h25.057M5929.833 3020.48v-10.019M5954.89 3020.48h-25.057M5954.89 3051.093v10.019M5929.833 3051.093h25.057M5929.833 3061.112v-10.019M5954.89 3061.112h-25.057M5954.89 3068.904v10.019M5929.833 3068.904h25.057M5929.833 3078.923v-10.019M5954.89 3078.923h-25.057M5929.833 3086.716h25.057" style="stroke-width:.0035" /><circle cx="5924.938" cy="3491.104" r="23.26" style="stroke-width:.0035" /><circle cx="5924.938" cy="3403.349" r="23.26" style="stroke-width:.0035" /><circle cx="5924.938" cy="3140.084" r="23.26" style="stroke-width:.0035" /><circle cx="5924.938" cy="3227.838" r="23.26" style="stroke-width:.0035" /><circle cx="5924.938" cy="3315.593" r="23.26" style="stroke-width:.0035" /><path d="M5954.89 3096.735h-25.057M1564.938 3705.704h600v-200h-800v1600h2800v-800h-200v600h-2400Z" style="stroke-width:.0035" /><path d="M2164.938 3705.704v600h1200M3964.938 4305.704v-222.222h-600v822.222M2764.938 4305.704v600M2164.938 4905.704v-600h-600M6114.938 7023.204h-367.5M5747.438 7388.204h367.5M6164.938 7388.204v-365M5979.938 7388.204v-365M5747.438 7023.204a182.5 182.5 0 0 0 0 365M6164.938 7023.204h-135M6029.938 7388.204h135M5164.938 6805.704h100v-50h-100ZM5164.938 6005.704h100v50h-100ZM5264.938 6755.704h700v-50h-700Z" style="stroke-width:.0035" /><path d="M5264.938 6055.704a700 700 0 0 1 700 700M5264.938 6005.704v-700h1200v700Z" style="stroke-width:.0035" /><path d="M5314.938 5955.704v-600h1100v600ZM6064.938 6605.704v-600h400v600Z" style="stroke-width:.0035" /><path d="M6314.938 6330.704v225h-200v-500h200v225M6414.938 6005.704v600" style="stroke-width:.0035" /><path d="M6214.938 6330.704v-50h150v50Z" style="stroke-width:.0035" /><circle cx="6314.938" cy="5855.704" r="50" style="stroke-width:.0035" /><path d="M4164.938 3305.704v-800h1000v800ZM5264.938 3130.704v-450h450v450ZM4889.938 3405.704h-450v450h450ZM4064.938 3130.704v-450h-450v450ZM1964.938 2505.704v300h1400v-300Z" style="stroke-width:.0035" /><path d="M3322.898 2702.257h-1294.89v-60.04h1294.89Z" style="stroke-width:.0035" /><path d="M3172.678 2642.218H2157.197v-54.035h1015.481ZM3105.02 3132.84l-440.082-490.622-342.5 390.254M6614.938 8805.704h-100v-50h100ZM6614.938 7905.704h-100v50h100ZM6514.938 8755.704h-800v-50h800Z" style="stroke-width:.0035" /><path d="M5714.938 8755.704a800 800 0 0 1 800-800" style="stroke-width:.002;stroke-dasharray:.0125,.0063;stroke-dashoffset:.0002" /><path d="M7964.938 11505.704h3600v2700h-3600ZM11664.938 11405.704v-1000h-2500v-1300h-1200v2300Z" style="stroke-width:var(--lw-1);stroke:transparent" /><path d="M9264.938 10305.704h2300v-1200h-1300v300h-1000ZM11664.938 9105.704h2700v5100h-2700Z" style="stroke-width:var(--lw-1);stroke:transparent" /><path d="M5374.938 15525.704v-1000M5644.938 15525.704v-1000" style="stroke-width:.0035" /><path d="M3214.938 15025.704h2430M3484.938 15160.704l-270-135 270-135" style="stroke-width:.0051" /><path d="M5104.938 15525.704v-1000M4834.938 15525.704v-1000M4564.938 15525.704v-1000M4294.938 15525.704v-1000M4024.938 15525.704v-1000M3754.938 15525.704v-1000M3484.938 15525.704v-1000M3214.938 15525.704v-1000M7964.938 14525.704v1200h-4750v-200h4550v-1000" style="stroke-width:.0035" /><text dx="0" dy="200" fill="var(--text-color)" font-family="Oswald" font-size="var(--dxf-big-font)" text-anchor="middle" transform="matrix(1 0 0 -1 10114.53 6587.906)">2.5</text><text dx="0" dy="200" fill="var(--text-color)" font-family="Oswald" font-size="var(--dxf-big-font)" text-anchor="middle" transform="matrix(1 0 0 -1 7903.053 7869.552)">5.7</text><text dx="0" dy="200" fill="var(--text-color)" font-family="Oswald" font-size="var(--dxf-big-font)" text-anchor="middle" transform="matrix(1 0 0 -1 7903.053 3404.31)">3.8</text><text dx="0" dy="200" fill="var(--text-color)" font-family="Oswald" font-size="var(--dxf-big-font)" text-anchor="middle" transform="matrix(1 0 0 -1 10915.928 8136.901)">5.3</text><text dx="0" dy="200" fill="var(--text-color)" font-family="Oswald" font-size="var(--dxf-big-font)" text-anchor="middle" transform="matrix(1 0 0 -1 13001.28 7768.233)">9.7</text><text dx="0" dy="200" fill="var(--text-color)" font-family="Oswald" font-size="var(--dxf-big-font)" text-anchor="middle" transform="matrix(1 0 0 -1 11857.463 3729.104)">13.8</text><text dx="0" dy="200" fill="var(--text-color)" font-family="Oswald" font-size="var(--dxf-big-font)" text-anchor="middle" transform="matrix(1 0 0 -1 3481.67 3729.104)">13.8</text><text dx="0" dy="200" fill="var(--text-color)" font-family="Oswald" font-size="var(--dxf-big-font)" text-anchor="middle" transform="matrix(1 0 0 -1 3285.431 10908.37)">13.8</text><text dx="0" dy="200" fill="var(--text-color)" font-family="Oswald" font-size="var(--dxf-big-font)" text-anchor="middle" transform="matrix(1 0 0 -1 12366.13 11069.56)">13.8</text><text dx="0" dy="200" fill="var(--text-color)" font-family="Oswald" font-size="var(--dxf-big-font)" text-anchor="middle" transform="matrix(1 0 0 -1 8999.207 12991.102)">9.7</text><text dx="0" dy="200" fill="var(--text-color)" font-family="Oswald" font-size="var(--dxf-big-font)" text-anchor="middle" transform="matrix(1 0 0 -1 6633.925 12969.611)">9.7</text><text dx="0" dy="200" fill="var(--text-color)" font-family="Oswald" font-size="var(--dxf-big-font)" text-anchor="middle" transform="matrix(1 0 0 -1 2697.228 7923.503)">9.7</text><text dx="0" dy="200" fill="var(--text-color)" font-family="Oswald" font-size="var(--dxf-big-font)" text-anchor="middle" transform="matrix(1 0 0 -1 4750.742 8136.901)">5.3</text><text dx="0" dy="200" fill="var(--text-color)" font-family="Oswald" font-size="var(--dxf-big-font)" text-anchor="middle" transform="matrix(1 0 0 -1 6855.92 10993.648)">5.3</text><text dx="0" dy="200" fill="var(--text-color)" font-family="Oswald" font-size="var(--dxf-big-font)" text-anchor="middle" transform="matrix(1 0 0 -1 9030.516 11028.162)">5.3</text><text dx="0" dy="200" fill="var(--text-color)" font-family="Oswald" font-size="var(--dxf-big-font)" text-anchor="middle" transform="matrix(1 0 0 -1 5631.17 6587.906)">2.5</text><text dx="0" dy="200" fill="var(--text-color)" font-family="Oswald" font-size="var(--dxf-big-font)" text-anchor="middle" transform="matrix(1 0 0 -1 5232.273 10188.063)">2.5</text><text dx="0" dy="200" fill="var(--text-color)" font-family="Oswald" font-size="var(--dxf-big-font)" text-anchor="middle" transform="matrix(1 0 0 -1 10476.507 10162.017)">2.5</text><text dx="0" dy="6.75" fill="var(--text-color)" font-family="Oswald" font-size="var(--dxf-small-font)" text-anchor="middle" transform="matrix(1 0 0 -1 7864.938 695.829)">13640.0000</text><path d="M1044.938 685.704h13640" style="stroke-width:.002" /><path d="m1044.938 685.704 6.75 1.124v-2.248ZM14684.938 685.704l-6.75-1.124v2.248Z" style="stroke-width:.002;fill:var(--text-color);fill-rule:evenodd" /><path d="M1044.938 690.704v-11.75M14684.938 690.704v-11.75" style="stroke-width:.002" /><text dx="0" dy="6.75" fill="var(--text-color)" font-family="Oswald" font-size="var(--dxf-small-font)" text-anchor="middle" transform="matrix(0 1 1 0 15674.813 8355.704)">12340.0000</text><path d="M15684.938 2185.704v12340" style="stroke-width:.002" /><path d="m15684.938 2185.704-1.124 6.75h2.247ZM15684.938 14525.704l1.123-6.75h-2.247Z" style="stroke-width:.002;fill:var(--text-color);fill-rule:evenodd" /><path d="M15679.938 2185.704h11.75M15679.938 14525.704h11.75" style="stroke-width:.002" /></g></svg>