<svg width="20000.6mm" height="20000.6mm" viewBox="-577.556 -19560.55 20000.6 20000.6" version="1.1" xmlns="http://www.w3.org/2000/svg" class="svg-drawing">
    <g transform="scale(1,-1)">
        <!-- Polyline -->
        <path d="M-577.256,4457.7207 L4609.2098,6623.8137 A11359.7,11359.7 0 0 1 9469.9355,10496.0739 A6374.01,6374.01 0 0 0 15734.2934,13068.9179 A10572.6,10572.6 0 0 1 19422.744,13087.3204" style=";stroke-width:var(--lw-5);"/>
        <!-- Polyline -->
        <path d="M9469.9355,10496.0739 L11445.4178,8728.8679 A7148.69,7148.69 0 0 0 13810.7976,3895.0398 A8698,8698 0 0 1 15326.2102,-439.75" style=";stroke-width:var(--lw-5);"/>
        <!-- Polyline -->
        <path d="M5787.8476,9336.9974 L6481.2059,10057.5903 L5040.0201,11444.3071 L4346.6617,10723.7141 Z" style=";stroke-width:var(--lw-6);"/>
        <!-- Polyline -->
        <path d="M6827.8851,10417.8868 L7521.2435,11138.4797 L6080.0576,12525.1965 L5386.6993,11804.6035 Z" style=";stroke-width:var(--lw-6);"/>
        <!-- Polyline -->
        <path d="M7867.9227,11498.7762 L8561.281,12219.3691 L7120.0952,13606.0859 L6426.7368,12885.4929 Z" style=";stroke-width:var(--lw-6);"/>
        <!-- Polyline -->
        <path d="M8907.9602,12579.6656 L9601.3186,13300.2585 L8160.1327,14686.9753 L7466.7744,13966.3823 Z" style=";stroke-width:var(--lw-6);"/>
        <!-- Polyline -->
        <path d="M3986.3652,11070.3933 L4679.7236,11790.9863 L3238.5377,13177.703 L2545.1794,12457.1101 Z" style=";stroke-width:var(--lw-6);"/>
        <!-- Polyline -->
        <path d="M5026.4028,12151.2827 L5719.7612,12871.8757 L4278.5753,14258.5924 L3585.2169,13537.9995 Z" style=";stroke-width:var(--lw-6);"/>
        <!-- Polyline -->
        <path d="M6066.4403,13232.1721 L6759.7987,13952.7651 L5318.6128,15339.4818 L4625.2545,14618.8889 Z" style=";stroke-width:var(--lw-6);"/>
        <!-- Polyline -->
        <path d="M7106.4779,14313.0615 L7799.8362,15033.6545 L6358.6504,16420.3712 L5665.292,15699.7783 Z" style=";stroke-width:var(--lw-6);"/>
        <!-- Polyline -->
        <path d="M2184.8829,12803.7892 L2878.2413,13524.3822 L1437.0554,14911.0989 L743.697,14190.506 Z" style=";stroke-width:var(--lw-6);"/>
        <!-- Polyline -->
        <path d="M3224.9205,13884.6786 L3918.2788,14605.2716 L2477.0929,15991.9883 L1783.7346,15271.3954 Z" style=";stroke-width:var(--lw-6);"/>
        <!-- Polyline -->
        <path d="M4264.958,14965.568 L4958.3164,15686.161 L3517.1305,17072.8777 L2823.7721,16352.2848 Z" style=";stroke-width:var(--lw-6);"/>
        <!-- Polyline -->
        <path d="M5304.9955,16046.4574 L5998.3539,16767.0504 L4557.168,18153.7671 L3863.8097,17433.1742 Z" style=";stroke-width:var(--lw-6);"/>
        <!-- Polyline -->
        <path d="M12737.8509,8105.6067 L15668.4154,10828.0674 L14307.185,12293.3496 L11376.6206,9570.8889 Z" style=";stroke-width:var(--lw-6);"/>
        <!-- Polyline -->
        <path d="M14439.3888,6274.0039 L17369.9533,8996.4646 L16008.7229,10461.7468 L13078.1585,7739.2861 Z" style=";stroke-width:var(--lw-6);"/>
        <!-- Polyline -->
        <path d="M16140.9267,4442.4012 L19071.4912,7164.8618 L17710.2609,8630.144 L14779.6964,5907.6834 Z" style=";stroke-width:var(--lw-6);"/>
        <!-- Polyline -->
        <path d="M7783.7801,4440.9779 L5783.7801,4440.9779 L5783.7801,5940.9779 L7783.7801,5940.9779 L7783.7801,6940.9779 L10783.7801,6940.9779 L10783.7801,5940.9779 L12783.7801,5940.9779 L12783.7801,4440.9779 L10783.7801,4440.9779 L10783.7801,3440.9779 L7783.7801,3440.9779 Z" style=";stroke-width:var(--lw-6);"/>
        <!-- Polyline -->
        <path d="M3860.2355,989.5064 L1860.2355,989.5064 L1860.2355,2489.5064 L3860.2355,2489.5064 L3860.2355,3489.5064 L6860.2355,3489.5064 L6860.2355,2489.5064 L8860.2355,2489.5064 L8860.2355,989.5064 L6860.2355,989.5064 L6860.2355,-10.4936 L3860.2355,-10.4936 Z" style=";stroke-width:var(--lw-6);"/>
        <!-- Polyline -->
        <path d="M5983.6546,8119.2062 L12112.1162,14354.2069 L4355.6937,19277.3636 L-167.951,14442.2766 Z" style=";stroke-width:var(--lw-1);stroke:rgba(0, 0, 0, 0);" id="cont1" class="area" data-popup="popup1"/>
        <!-- Polyline -->
        <path d="M9898.1005,10329.4827 L16870.1334,3186.9495 L19381.7226,7368.4806 L14279.4309,12923.5792 Z" style=";stroke-width:var(--lw-1);stroke:rgba(0, 0, 0, 0);" id="cont2" class="area" data-popup="popup2"/>
        <!-- Polyline -->
        <path d="M609.7175,107.1475 L609.7175,4284.4496 L9907.8934,8517.1536 L13010.9794,6145.9529 L13010.9794,3132.0904 L7569.4964,-302.8264 Z" style=";stroke-width:var(--lw-1);stroke:rgba(0, 0, 0, 0);" id="cont3" class="area" data-popup="popup3"/>
    </g>
</svg>