<svg width="101358.598" height="63675.496" viewBox="121.087 -16875.3 26817.796 16847.475" xmlns="http://www.w3.org/2000/svg" class="svg-drawing"><g transform="scale(1 -1)"><path d="M2238.582 11875h2700M5238.582 11875h700M8238.582 11875h300M11538.582 11875h1300M17638.582 11875h700M20638.582 11875h800M1738.582 12375h4200M8238.582 12375h300M11538.582 12375h1300M17338.582 12375h1000M20638.582 12375h1300M5238.582 11875V8275M5238.582 7475v-600M5238.582 6575v-100M5238.582 5575V3075M4938.582 11875V8275M4938.582 7475v-600M4938.582 6575v-100M4938.582 5575V3075M2238.582 6875h1200M4238.582 6875h700M5238.582 6875h3000M10838.582 6875h700M11838.582 6875h1575M14413.582 6875h1925M17638.582 6875h700M19238.582 6875h2200M2238.582 6575h1200M4238.582 6575h700M5238.582 6575h3000M10838.582 6575h2575M14413.582 6575h1925M17638.582 6575h700M19238.582 6575h2200M8238.582 7475v-600M8238.582 6575v-100M8238.582 5575v-950M8538.582 7475V6475M8538.582 5575v-950M11538.582 5475V3075M11838.582 5475V3075M17338.582 11875V6475M17338.582 5575V3075M17638.582 11875V6875M17638.582 6575v-100M17638.582 5575V3075M2238.582 3075h1100M4238.582 3075h700M5238.582 3075h700M8238.582 3075h300M10838.582 3075h700M11838.582 3075h1575M17638.582 3075h700M19238.582 3075h2200M1738.582 2575h1600M4238.582 2575h1700M8238.582 2575h300M10838.582 2575h2575M17338.582 2575h1000M19238.582 2575h2700M21438.582 11875V6875M21438.582 6575v-100M21438.582 5575V3075M21938.582 12375V6475M21938.582 5575V2575M2238.582 11875v-1300M2238.582 9675V6875M2238.582 6575v-100M2238.582 5575V3075M1738.582 12375v-1800M1738.582 9675V6475M1738.582 5575V2575M11538.582 1575h300v-500h-300ZM4938.582 1575h300v-500h-300ZM1738.582 1575h300v-500h-300ZM11538.582 15375h300v-500h-300ZM4938.582 15375h300v-500h-300ZM1738.582 15375h300v-500h-300ZM1738.582 5575h500M4938.582 5575h300M8238.582 5575h300" style="stroke-width:var(--lw-6)"/><path d="M10838.582 5475h700M11838.582 5475h100M12738.582 5475h675" style="stroke-width:var(--lw-5)"/><path d="M17338.582 5575h300M21438.582 5575h500M1738.582 6475h500M4938.582 6475h300M8238.582 6475h300M11538.582 6575h300M17338.582 6475h300M21438.582 6475h500M25638.582 12375h300v-500h-300ZM25638.582 7075h300v-500h-300ZM25638.582 3075h300v-500h-300Z" style="stroke-width:var(--lw-6)"/><path d="M15788.582 4075h1550M16338.582 3075v2100M17338.582 4350h-1000M13413.582 5450h3925M15788.582 3075v1000M16063.582 3075v1000M17338.582 4625h-1000M17338.582 4900h-1000M17338.582 5175h-1000" style="stroke-width:var(--lw-2)"/><path d="M13413.582 5475V3075M10838.582 5325h700M11838.582 5325h100M12738.582 5325h525M13263.582 5325V4125M13063.582 4025v-950M2238.582 5475h1200M4238.582 5475h700M5238.582 5475h3000M2238.582 5325h1200M4238.582 5325h700M5238.582 5325h3000M17638.582 5475h700M19238.582 5475h2200M17638.582 5325h700M19238.582 5325h100M19438.582 5125h900M20438.582 5325h1000" style="stroke-width:var(--lw-5)"/><path d="M18338.582 12375v-500M20638.582 12375v-500M18338.582 6875v-300" style="stroke-width:var(--lw-6)"/><path d="M18338.582 5475v-150" style="stroke-width:var(--lw-5)"/><path d="M18338.582 3075v-500M19238.582 6875v-300" style="stroke-width:var(--lw-6)"/><path d="M19238.582 5475v-150" style="stroke-width:var(--lw-5)"/><path d="M19238.582 3075v-500M10838.582 3075v-500M5938.582 3075v-500M8538.582 3075v-500M8238.582 3075v-500" style="stroke-width:var(--lw-6)"/><path d="M10838.582 5475v-150" style="stroke-width:var(--lw-5)"/><path d="M11538.582 5475h300M4238.582 3075v-500M3338.582 3075v-500M1738.582 9675h500M1738.582 10575h500M13413.582 3075v-500M17338.582 3075v-500M17338.582 11875v500M11538.582 11875v500M12838.582 11875v500M5938.582 12375v-500M8238.582 12375v-500M8538.582 12375v-500M13413.582 6575v300M14413.582 6575v300M16338.582 6575v300M10838.582 6575v300M8238.582 4625h300M4238.582 6875v-300M3438.582 6875v-300" style="stroke-width:var(--lw-6)"/><path d="M4238.582 5475v-150M3438.582 5475v-150" style="stroke-width:var(--lw-5)"/><path d="M8238.582 7475h300M4938.582 7475h300M4938.582 8275h300M11538.582 7475v-600M11838.582 7475v-600M11538.582 7475h300" style="stroke-width:var(--lw-6)"/><path d="M4938.582 8675h-700M3438.582 8675h-1200M4938.582 8825h-700M3438.582 8825h-1200M4238.582 8825v-150M3438.582 8825v-150" style="stroke-width:var(--lw-5)"/><path d="M13413.582 2575V575h-12675v16300h12100v-1500h14100v-3000h-5000" style="stroke-width:var(--lw-4)"/><path d="M13413.582 1575h13525v10800" style="stroke-width:var(--lw-2)"/><path d="M11938.582 5475v-150M12738.582 5475v-150" style="stroke-width:var(--lw-5)"/><path d="M5238.582 7475h3000M5838.582 8475v3400M5838.582 8475h-600M8038.582 10875h-1000V8475h1000ZM10488.582 10875h-900V8475h900ZM10888.582 5325V3075" style="stroke-width:var(--lw-2)"/><path d="M13413.582 2575h3925" style="stroke-width:var(--lw-4)"/><path d="M15513.582 3075h1825" style="stroke-width:var(--lw-2)"/><path d="M18338.582 2575h900M21938.582 6475v-900" style="stroke-width:var(--lw-4)"/><path d="M11838.582 7475h1475v-600h-1475Z" style="stroke-width:var(--lw-2)"/><path d="M13313.582 6875v600h100v-600" style="stroke-width:var(--lw-5)"/><path d="m11838.582 7475 1475-600M13313.582 7475l-1475-600M10888.582 5325l650-2250M11538.582 5325l-650-2250M5238.582 4675h3000M5888.582 5325V3075M5238.582 4675l650-1600M5888.582 4675l-650-1600M5888.582 4675l2350 650M5888.582 5325l2350-650" style="stroke-width:var(--lw-2)"/><path d="M14413.582 6875v600h250M16088.582 7475h250v-600M15126.082 7125h500v-250h-500ZM14663.582 7475v-250h1425v250" style="stroke-width:var(--lw-5)"/><path d="M14663.582 7475h1425M9138.582 9750h350v400h-350ZM9138.582 10300h350v400h-350ZM9138.582 9600h350v-400h-350ZM9138.582 9050h350v-400h-350ZM10938.582 9750h-350v400h350ZM10938.582 10300h-350v400h350ZM10938.582 9600h-350v-400h350ZM10938.582 9050h-350v-400h350ZM8488.582 9750h-350v400h350ZM8488.582 10300h-350v400h350ZM8488.582 9600h-350v-400h350ZM8488.582 9050h-350v-400h350Z" style="stroke-width:var(--lw-2)"/><path d="M12763.582 4125h500M12763.582 4025h300M12763.582 4125v-100" style="stroke-width:var(--lw-5)"/><path d="M12863.582 4125v1200h400V4125Z" style="stroke-width:var(--lw-2)"/><path d="M12913.134 4550a75 75 0 0 1 75-75h100a75 75 0 0 1 75 75v350a75 75 0 0 1-75 75h-100a75 75 0 0 1-75-75ZM12766.082 3732.5h297.5v-365h-297.5a182.5 182.5 0 0 0 0 365M4388.582 3639.286a50 50 0 0 0-50 50v1021.428a100 100 0 0 0 13.622 50.387l75 128.572a100 100 0 0 0 172.756 0l75-128.572a100 100 0 0 0 13.622-50.387V3689.286a50 50 0 0 0-50-50ZM2838.582 5325V3075" style="stroke-width:var(--lw-2)"/><circle cx="2538.582" cy="3375" r="200" style="stroke-width:var(--lw-2)"/><circle cx="2538.582" cy="3975" r="200" style="stroke-width:var(--lw-2)"/><path d="M2838.582 8675V6875M2238.582 8675l600-1800M2838.582 8675l-600-1800M2438.582 10875v800h800v-800ZM3438.582 10875v800h800v-800ZM4538.582 8825v3050M4938.582 8825l-400 3050M4538.582 8825l400 3050M7138.582 9825a100 100 0 0 1 100-100h150a100 100 0 0 1 100 100v300a100 100 0 0 1-100 100h-150a100 100 0 0 1-100-100Z" style="stroke-width:var(--lw-2)"/><circle cx="5413.582" cy="9850" r="100" style="stroke-width:var(--lw-2)"/><circle cx="5663.582" cy="9850" r="75" style="stroke-width:var(--lw-2)"/><circle cx="5663.582" cy="10100" r="100" style="stroke-width:var(--lw-2)"/><circle cx="5413.582" cy="10100" r="75" style="stroke-width:var(--lw-2)"/><path d="M13413.582 10875h-1000V8475h1000v2150M12663.582 8475v2150" style="stroke-width:var(--lw-2)"/><path d="M13413.582 10875h2925V9875h-3675M16338.582 10625h-3675M13413.582 9175h-750M12113.582 10875h300V8475h-300ZM14138.582 9875v750M14863.582 9875v750M15588.582 9875v750M14013.582 9375h1500v-700h-1500ZM15663.794 8218.899l368.81-257.836a250 250 0 0 1 348.137 61.653l143.242 204.895a250 250 0 0 1-61.653 348.136l-368.81 257.835ZM17163.582 10875h75V8475h-75ZM18238.582 5325V3075h-600v2250Z" style="stroke-width:var(--lw-2)"/><path d="M18139.03 3950a75 75 0 0 1-75 75h-200a75 75 0 0 1-75-75v-350a75 75 0 0 1 75-75h200a75 75 0 0 1 75 75Z" style="stroke-width:var(--lw-2)"/><path d="M19338.582 5325v-850h100v650M20338.582 5125v-850h100v1050M20338.582 3075v200h100v-200" style="stroke-width:var(--lw-5)"/><path d="M19706.082 4827.5V5125h365v-297.5a182.5 182.5 0 0 0-365 0M20338.582 4275V3275M20438.582 4275V3275" style="stroke-width:var(--lw-2)"/><circle cx="20938.582" cy="5225" r="25" style="stroke-width:var(--lw-2)"/><path d="M18238.582 11875V6875M19338.582 6875h2100v650h-2100ZM19338.582 7525l2100-650M19338.582 6875l2100 650M20388.582 11675h850V9175h-850v2250M20988.582 9175v2250" style="stroke-width:var(--lw-2)"/><path d="M20388.582 11675h-950v-850h1550M19438.582 11425h1550M20388.582 10025h600M19988.582 10325v-800h-550v800ZM17813.582 9825h-75v1200h75ZM18238.582 9150h401v550h-401M21238.582 8475v500h-400v-500ZM5938.582 14875v-900h2300v900ZM7013.582 13525v350h-400v-350ZM6463.582 13525v350h-400v-350ZM7163.582 13525v350h400v-350ZM7713.582 13525v350h400v-350ZM7013.582 15325v-350h-400v350ZM6463.582 15325v-350h-400v350ZM7163.582 15325v-350h400v350ZM7713.582 15325v-350h400v350Z" style="stroke-width:var(--lw-2)"/><circle cx="20596.237" cy="14351.588" r="400" style="stroke-width:var(--lw-2)"/><path d="m21433.256 14301.347 389.712-225a250 250 0 0 0 91.506-341.506l-125-216.506a250 250 0 0 0-341.506-91.506l-389.712 225ZM20545.997 13514.569l-225-389.711a250 250 0 0 0-341.506-91.507l-216.507 125a250 250 0 0 0-91.506 341.506l225 389.712ZM15788.582 4075l-275-1000M16063.582 4350h-2650v825h2650Z" style="stroke-width:var(--lw-2)"/><circle cx="14214.534" cy="4738.65" r="247.487" style="stroke-width:var(--lw-2)"/><circle cx="14694.534" cy="4868.65" r="350" style="stroke-width:var(--lw-2)"/><circle cx="15244.534" cy="4638.65" r="190" style="stroke-width:var(--lw-2)"/><path d="M16838.582 5175V3575h-1187.5" style="stroke-width:var(--lw-3)"/><path d="m15926.082 3437.5-275 137.5 275 137.5" style="stroke-width:var(--lw-3)"/><path d="M24035.107 6560.098a8338.13 8338.13 0 0 1 761.439 22.94 141.079 141.079 0 0 1 96.146 48.531 201.772 201.772 0 0 1 48.696 121.075l28.257 976.92-11.18 1610.835 16.7 352.5 147.3-13.963a93.386 93.386 0 0 1-44.075 75.208l-101.088 4.169a9802.9 9802.9 0 0 1-28.09 1162.656 1469.47 1469.47 0 0 1-55.249 487.387 2628.61 2628.61 0 0 1-858.856 176.075 2628.61 2628.61 0 0 1-858.856-176.075 1469.47 1469.47 0 0 1-55.25-487.387 9802.9 9802.9 0 0 1-28.09-1162.656l-101.087-4.169a93.386 93.386 0 0 1-44.076-75.208l147.301 13.964 16.7-352.5-11.18-1610.835 28.257-976.921a201.772 201.772 0 0 1 48.696-121.075 141.079 141.079 0 0 1 96.146-48.53 8338.13 8338.13 0 0 1 761.439-22.941Z" style="stroke-width:var(--lw-2)"/><path d="M2238.582 3075h2700v2250h-2700ZM2238.582 6575h2700V5475h-2700ZM4938.582 6875h-2700v1800h2700ZM4938.582 8825h-2700v3050h2700ZM5238.582 6875h3150v5000h-3150ZM8388.582 11875h3300V6875h-3300ZM11688.582 6875h5650v5000h-5650ZM17638.582 11875h3800V6875h-3800ZM17638.582 6575h3800V5475h-3800ZM21438.582 5325h-3800V3075h3800ZM13413.582 6575h3925V3075h-3925ZM13413.582 6575h-4875V5475h4875ZM11538.582 5325h-3000V3075h3000ZM13263.582 5325h-1425V3075h1425ZM5238.582 3075h3000v2250h-3000ZM5238.582 6575h3000V5475h-3000Z" style="stroke-width:var(--lw-1);stroke:transparent"/><text dx="0" dy="200" font-family="Fugue" font-size="280" fill="var(--text-color)" transform="matrix(1 0 0 -1 9868.576 4293.773)" text-anchor="middle">6.8</text><text dx="0" dy="200" font-family="Fugue" font-size="280" fill="var(--text-color)" transform="matrix(1 0 0 -1 6978.575 4293.773)" text-anchor="middle">6.8</text><text dx="0" dy="200" font-family="Fugue" font-size="280" fill="var(--text-color)" transform="matrix(1 0 0 -1 3668.575 4293.773)" text-anchor="middle">6.1</text><text dx="0" dy="200" font-family="Fugue" font-size="280" fill="var(--text-color)" transform="matrix(1 0 0 -1 12298.576 4293.773)" text-anchor="middle">3.2</text><text dx="0" dy="200" font-family="Fugue" font-size="280" fill="var(--text-color)" transform="matrix(1 0 0 -1 15348.781 5851.513)" text-anchor="middle">13.7</text><text dx="0" dy="200" font-family="Fugue" font-size="280" fill="var(--text-color)" transform="matrix(1 0 0 -1 3668.575 6101.513)" text-anchor="middle">3.0</text><text dx="0" dy="200" font-family="Fugue" font-size="280" fill="var(--text-color)" transform="matrix(1 0 0 -1 6978.575 6163.773)" text-anchor="middle">3.3</text><text dx="0" dy="200" font-family="Fugue" font-size="280" fill="var(--text-color)" transform="matrix(1 0 0 -1 10758.781 6165.593)" text-anchor="middle">5.4</text><text dx="0" dy="200" font-family="Fugue" font-size="280" fill="var(--text-color)" transform="matrix(1 0 0 -1 19648.781 6161.83)" text-anchor="middle">4.2</text><text dx="0" dy="200" font-family="Fugue" font-size="280" fill="var(--text-color)" transform="matrix(1 0 0 -1 19388.781 4073.773)" text-anchor="middle">8.6</text><text dx="0" dy="200" font-family="Fugue" font-size="280" fill="var(--text-color)" transform="matrix(1 0 0 -1 19388.781 8991.513)" text-anchor="middle">19.0</text><text dx="0" dy="200" font-family="Fugue" font-size="280" fill="var(--text-color)" transform="matrix(1 0 0 -1 3668.575 7931.513)" text-anchor="middle">4.9</text><text dx="0" dy="200" font-family="Fugue" font-size="280" fill="var(--text-color)" transform="matrix(1 0 0 -1 3668.575 10251.513)" text-anchor="middle">8.2</text><text dx="0" dy="200" font-family="Fugue" font-size="280" fill="var(--text-color)" transform="matrix(1 0 0 -1 6689.466 8187.853)" text-anchor="middle">15.7</text><text dx="0" dy="200" font-family="Fugue" font-size="280" fill="var(--text-color)" transform="matrix(1 0 0 -1 9999.466 8186.033)" text-anchor="middle">16.5</text><text dx="0" dy="200" font-family="Fugue" font-size="280" fill="var(--text-color)" transform="matrix(1 0 0 -1 14389.466 8186.033)" text-anchor="middle">28.3</text><path d="M21788.582 6475h-100v-50h100ZM21788.582 5625h-100v-50h100ZM21788.582 6425h800M21788.58 5625a800 800 0 0 1 800.002 800M19238.582 2825v-100h-70v100ZM18338.582 2825v-100h70v100Z" style="stroke-width:var(--lw-2)"/><path d="M19238.582 2725v100h-900v-100ZM3338.582 2575h900M4238.582 2825v-100h-70v100ZM3338.582 2825v-100h70v100Z" style="stroke-width:var(--lw-2)"/><path d="M4238.582 2725v100h-900v-100ZM1738.582 6475v-900M1888.582 6475h100v-50h-100ZM1888.582 5625h100v-50h-100ZM1888.582 6425h-800" style="stroke-width:var(--lw-2)"/><path d="M1088.582 6425a800 800 0 0 1 800.002-800M1738.582 10575v-900M1888.582 10575h100v-50h-100ZM1888.582 9725h100v-50h-100ZM1888.582 10525h-800" style="stroke-width:var(--lw-2)"/><path d="M1088.582 10525a800 800 0 0 1 800.002-800M4238.582 5325v100h-50v-100ZM3488.582 5325v100h-50v-100ZM3488.582 5325v-700" style="stroke-width:var(--lw-2)"/><path d="M3488.582 4625a700 700 0 0 1 700 700.002M4238.582 6875v-100h-50v100ZM3488.582 6875v-100h-50v100ZM3488.582 6875v700" style="stroke-width:var(--lw-2)"/><path d="M4188.582 6874.998a700 700 0 0 1-700 700.002M4238.582 8825v-100h-50v100ZM3488.582 8825v-100h-50v100ZM4188.582 8825v700" style="stroke-width:var(--lw-2)"/><path d="M4188.582 9525a700 700 0 0 1-700-700.002M4938.582 7475h100v50h-100ZM4938.582 8225h100v50h-100ZM4938.582 8225h-700M4238.582 8225a700 700 0 0 1 700.002-700M17638.582 6475h-100v-50h100ZM17638.582 5625h-100v-50h100ZM17638.582 6425h800M17638.58 5625a800 800 0 0 1 800.002 800M19238.582 5325v100h-50v-100ZM18388.582 5325v100h-50v-100ZM19188.582 5325v-800" style="stroke-width:var(--lw-2)"/><path d="M18388.582 5325.002a800 800 0 0 1 800-800.002M18338.582 6875v-100h50v100ZM19188.582 6875v-100h50v100ZM18388.582 6875v800" style="stroke-width:var(--lw-2)"/><path d="M19188.582 6874.998a800 800 0 0 1-800 800.002M12738.582 5325v100h-50v-100ZM11988.582 5325v100h-50v-100ZM11988.582 5325v-700" style="stroke-width:var(--lw-2)"/><path d="M11988.582 4625a700 700 0 0 1 700 700.002M17338.582 2825v-100h-70v100ZM16438.582 2825v-100h70v100Z" style="stroke-width:var(--lw-2)"/><path d="M17338.582 2725v100h-3925v-100Z" style="stroke-width:var(--lw-2)"/><path d="M13413.582 2825v-100h70v100ZM14313.582 2825v-100h-70v100ZM14383.582 2825v-100h-70v100ZM16368.582 2825v-100h70v100ZM16438.582 12225v-100h-3600v100Z" style="stroke-width:var(--lw-2)"/><path d="M12838.582 12125v100h70v-100ZM14313.582 12125v100h-70v-100ZM14383.582 12125v100h-70v-100ZM16368.582 12125v100h70v-100ZM17338.582 12125v100h-50v-100Z" style="stroke-width:var(--lw-2)"/><path d="M16488.582 12125v100h-50v-100ZM17288.582 12125v-800" style="stroke-width:var(--lw-2)"/><path d="M16488.582 12125.002a800 800 0 0 1 800-800.002M19238.582 12225v-100h1400v100Z" style="stroke-width:var(--lw-2)"/><path d="M20568.582 12125v100h70v-100ZM19308.582 12125v100h-70v-100ZM18338.582 12125v100h50v-100ZM19188.582 12125v100h50v-100ZM18388.582 12125v-800" style="stroke-width:var(--lw-2)"/><path d="M18388.582 11325a800 800 0 0 1 800 800.002M6838.582 12225v-100h1400v100Z" style="stroke-width:var(--lw-2)"/><path d="M8168.582 12125v100h70v-100ZM6908.582 12125v100h-70v-100ZM5938.582 12125v100h50v-100ZM6788.582 12125v100h50v-100ZM5988.582 12125v-800" style="stroke-width:var(--lw-2)"/><path d="M5988.582 11325a800 800 0 0 1 800 800.002M9588.582 12125v100h50v-100ZM10438.582 12125v100h50v-100ZM9638.582 12125v-800" style="stroke-width:var(--lw-2)"/><path d="M9638.582 11325a800 800 0 0 1 800 800.002M10488.582 12225v-100h1050v100Z" style="stroke-width:var(--lw-2)"/><path d="M11468.582 12125v100h70v-100ZM10558.582 12125v100h-70v-100ZM8538.582 12225v-100h1050v100Z" style="stroke-width:var(--lw-2)"/><path d="M9518.582 12125v100h70v-100ZM8608.582 12125v100h-70v-100ZM9938.582 2725v100h-1400v-100Z" style="stroke-width:var(--lw-2)"/><path d="M8608.582 2825v-100h-70v100ZM9868.582 2825v-100h70v100ZM10838.582 2825v-100h-50v100ZM9988.582 2825v-100h-50v100ZM10788.582 2725v-800" style="stroke-width:var(--lw-2)"/><path d="M9988.582 2725.002a800 800 0 0 1 800-800.002M8238.582 2725v100h-2300v-100Z" style="stroke-width:var(--lw-2)"/><path d="M6008.582 2825v-100h-70v100ZM7268.582 2825v-100h70v100ZM7338.582 2825v-100h70v100ZM8168.582 2825v-100h70v100ZM5938.582 12375h2300M8538.582 12375h3000M12838.582 12375h4500M18338.582 12375h2300M5938.582 2575h2300M8538.582 2575h2300" style="stroke-width:var(--lw-2)"/><text dx="0" dy="93.75" font-family="Standard" font-size="131.25" fill="var(--text-color)" transform="matrix(1 0 0 -1 11838.582 192.187)" text-anchor="middle">20200</text><path style="stroke-width:var(--lw-1)" d="M1738.582 75h20200"/><path d="m1738.582 75 93.75 15.61V59.39ZM21938.582 75l-93.75-15.61v31.22Z" style="stroke-width:var(--lw-1);fill:var(--text-color);fill-rule:evenodd"/><path style="stroke-width:var(--lw-1)" d="M1738.582 80V28.125M21938.582 80V28.125"/><text dx="0" dy="93.75" font-family="Standard" font-size="131.25" fill="var(--text-color)" transform="matrix(0 1 1 0 121.395 7475)" text-anchor="middle">9800</text><path style="stroke-width:var(--lw-1)" d="M238.582 2575v9800"/><path d="m238.582 2575-15.61 93.75h31.221ZM238.582 12375l15.611-93.75h-31.221Z" style="stroke-width:var(--lw-1);fill:var(--text-color);fill-rule:evenodd"/><path style="stroke-width:var(--lw-1)" d="M243.582 2575h-51.875M243.582 12375h-51.875"/></g></svg>