<svg xmlns="http://www.w3.org/2000/svg" class="svg-drawing" height="57724.365" viewBox="-332.123 -14607.633 22402.128 15572.905" width="83535.604"><g transform="scale(1 -1)"><text dx="0" dy="93.75" fill="var(--text-color)" font-family="Oswald" font-size="var(--dxf-small-font)" text-anchor="middle" transform="matrix(1 0 0 -1 10588.177 -800.91)">20040</text><path style="stroke-width:var(--lw-1)" d="M568.177-918.097h20040"/><path d="m568.177-918.097 93.75 15.61v-31.22ZM20608.177-918.097l-93.75-15.61v31.22Z" style="stroke-width:var(--lw-1);fill:var(--text-color);fill-rule:evenodd"/><path style="stroke-width:var(--lw-1)" d="M568.177-913.097v-51.875M20608.177-913.097v-51.875"/><text dx="0" dy="93.75" fill="var(--text-color)" font-family="Oswald" font-size="var(--dxf-small-font)" text-anchor="middle" transform="matrix(0 1 1 0 21905.643 7037.333)">13340</text><path style="stroke-width:var(--lw-1)" d="M22022.831 367.333v13340"/><path d="m22022.83 367.333-15.61 93.75h31.221ZM22022.83 13707.333l15.611-93.75h-31.221Z" style="stroke-width:var(--lw-1);fill:var(--text-color);fill-rule:evenodd"/><path style="stroke-width:var(--lw-1)" d="M22017.831 367.333h51.875M22017.831 13707.333h51.875"/><path d="M12338.177 13237.333h1600M15738.177 13237.333h900M18438.177 13237.333h1700v-2900M20138.177 8537.333v-1300M11938.177 13707.333h2000M15738.177 13707.333h900" style="stroke-width:var(--lw-6)"/><path d="M18438.177 13707.333h2170v-3370" style="stroke-width:var(--lw-6)"/><path d="M9238.177 12037.333h2700" style="stroke-width:var(--lw-5)"/><path d="M9238.177 11762.333h1100M9238.177 11487.333h1100M9238.177 11212.333h1100M9238.177 10937.333h1100M9238.177 10662.333h1100M9238.177 10387.333h1100M9238.177 10112.333h1100M9238.177 9837.333h1100" style="stroke-width:var(--lw-2)"/><path d="M9238.177 9562.333h1100M10338.177 12037.333v-2475" style="stroke-width:var(--lw-5)"/><path d="M10388.177 11987.333v-2425M10388.177 11987.333h400" style="stroke-width:var(--lw-2)"/><circle cx="9788.177" cy="9562.333" r="75" style="stroke-width:var(--lw-3)"/><path d="m11525.677 11624.833-137.5-275-137.5 275" style="stroke-width:var(--lw-3)"/><path d="M9788.177 9562.333v2975h1600v-1187.5" style="stroke-width:var(--lw-3)"/><path d="M10338.177 9562.333h50M11938.177 11762.333h-1100M11938.177 11487.333h-1100" style="stroke-width:var(--lw-2)"/><path d="M10838.177 12037.333v-550" style="stroke-width:var(--lw-5)"/><path d="M10788.177 11987.333v-487.5" style="stroke-width:var(--lw-2)"/><path d="M11938.177 13237.333v-4200M11938.177 8137.333v-2200M11938.177 5037.333v-100M12338.177 13237.333v-3000M12338.177 9437.333v-400M12338.177 8137.333v-900M12338.177 7237.333h7800" style="stroke-width:var(--lw-6)"/><path d="M16538.177 13237.333v-2900M16538.177 9337.333v-2100M16438.177 13237.333v-2800M16438.177 9237.333v-1000M16438.177 8137.333v-900M12338.177 10437.333h2500M15638.177 10437.333h800M12338.177 10337.333h2500M15638.177 10337.333h900M16538.177 9337.333h-900M14838.177 9337.333h-500M16438.177 9237.333h-800M14838.177 9237.333h-400M14438.177 9237.333v-1000M14438.177 8137.333v-900M14338.177 9337.333v-2100" style="stroke-width:var(--lw-5)"/><path d="M12338.177 9037.333h-400M12338.177 8137.333h-400" style="stroke-width:var(--lw-6)"/><path d="M14838.177 9337.333v-100M15638.177 9337.333v-100M14838.177 10437.333v-100M15638.177 10437.333v-100M16438.177 8237.333h-400M14838.177 8237.333h-400M16438.177 8137.333h-300M14838.177 8137.333h-400M14838.177 8137.333v100M16038.177 8237.333v-1000M16138.177 8137.333v-900" style="stroke-width:var(--lw-5)"/><path d="M16038.177 8237.333h-1200M16038.177 8187.333h-1200M14838.177 8237.333v1000M16388.177 8919.833h-367.5M16213.177 8879.833h-192.5M16020.677 8554.833h367.5M16020.677 8594.833h192.5M16438.177 8604.833v265M16438.177 8869.833a50 50 0 0 1-50 50M16388.177 8554.833a50 50 0 0 1 50 50M16253.177 8604.833v265M16213.177 8594.833v285M16253.177 8604.833a50 50 0 0 1 50-50M16020.677 8919.833a182.5 182.5 0 0 1 0-365" style="stroke-width:var(--lw-2)"/><path d="M16020.677 8879.833a142.5 142.5 0 0 1 0-285M16388.177 8919.833h-85M16303.177 8919.833a50 50 0 0 1-50-50M16303.177 8554.833h85M16186.302 8699.561h-71.584v75.544h71.584Z" style="stroke-width:var(--lw-2)"/><circle cx="16343.549" cy="8737.333" r="21.351" style="stroke-width:var(--lw-2)"/><path style="stroke-width:var(--lw-2)" d="M14637.899 8722.097v30.472M14788.177 8837.333v-200M14688.177 8537.333a100 100 0 0 1 100 100M14538.177 8637.333a100 100 0 0 1 100-100M14538.177 8752.569v84.764M14508.177 8722.097h129.722M14637.899 8752.569h-129.722M14508.177 8752.569v-30.472M14688.177 8537.333h-50M14538.177 8637.333v84.764M14688.177 8937.333h-50M14788.177 8837.333a100 100 0 0 1-100 100M14638.177 8937.333a100 100 0 0 1-100-100M14488.177 9237.333v-1000"/><circle cx="15888.177" cy="7387.333" r="50" style="stroke-width:var(--lw-2)"/><path d="M12338.177 7837.333h1000v-600h-1000ZM12338.177 7837.333l1000-600M13338.177 7837.333l-1000-600M14338.177 7837.333h-1000v-600h1000ZM14338.177 7837.333l-1000-600M13338.177 7837.333l1000-600M16438.177 10437.333v700h-600v-700ZM16438.177 10437.333l-600 700M16438.177 11137.333l-600-700M16438.177 12537.333v700h-600v-700ZM16438.177 12537.333l-600 700M16438.177 13237.333l-600-700M15838.177 12537.333h600v-1400h-600Z" style="stroke-width:var(--lw-2)"/><path d="M16224.103 12395.294v-1094.89h60.039v1094.89ZM16284.142 12245.074v-815.482h54.035v815.482Z" style="stroke-width:var(--lw-2)"/><path d="m15953.927 12142.278 330.215-304.945-195.127-171.25M14188.177 11087.333v1500h-1850v-1500Z" style="stroke-width:var(--lw-2)"/><path d="M14238.177 11037.333v1600h-1900v-1600Z" style="stroke-width:var(--lw-2)"/><path d="M12388.177 11215.75h387.832v558.168h-387.832ZM12388.177 12458.916h387.832v-558.168h-387.832ZM12738.177 13162.333v-450h-400v450ZM12738.177 10512.333v450h-400v-450ZM16538.177 8437.333h600v-600h-600ZM17138.177 7837.333h600v-600h-600ZM17738.177 7837.333h600v-600h-600ZM18338.177 7837.333h600v-600h-600Z" style="stroke-width:var(--lw-2)"/><path d="M18031.575 7387.333h-93.398a100 100 0 0 0-100 100v150a100 100 0 0 0 100 100h200a100 100 0 0 0 100-100v-150a100 100 0 0 0-100-100h-76.13" style="stroke-width:var(--lw-2)"/><path d="M18031.575 7531.008h30.472v-204.722h-30.472ZM19388.177 7522.33a74.999 74.999 0 1 1-75 75M19088.177 7522.33a74.999 74.999 0 1 1-75 75M19538.177 7837.333v-600M18938.177 7237.333v600M19013.177 7357.334a75.009 75.009 0 0 1 75-75" style="stroke-width:var(--lw-2)"/><path d="M19088.177 7282.334a74.999 74.999 0 1 1-75 75M19013.177 7597.33a75.009 75.009 0 0 1 75-75M19538.177 7237.333h-600" style="stroke-width:var(--lw-2)"/><circle cx="19388.175" cy="7357.333" r="49.999" style="stroke-width:var(--lw-2)"/><path d="M19313.177 7597.33a75.009 75.009 0 0 1 75-75M18938.177 7837.333h600M19069.189 7747.381h10.019M19079.208 7772.437h-10.019M19538.177 7717.332h-600M18992.934 7747.381h10.019M18992.934 7772.437v-25.056M19002.953 7772.437h-10.019M19002.953 7747.381v25.056M19033.566 7747.381h10.019M19033.566 7772.437v-25.056M19043.585 7772.437h-10.019M19043.585 7747.381v25.056M19051.378 7747.381h10.019M19051.378 7772.437v-25.056M19061.397 7772.437h-10.019M19061.397 7747.381v25.056M19069.189 7772.437v-25.056" style="stroke-width:var(--lw-2)"/><circle cx="19473.577" cy="7777.333" r="23.26" style="stroke-width:var(--lw-2)"/><circle cx="19385.822" cy="7777.333" r="23.26" style="stroke-width:var(--lw-2)"/><circle cx="19122.557" cy="7777.333" r="23.26" style="stroke-width:var(--lw-2)"/><circle cx="19210.312" cy="7777.333" r="23.26" style="stroke-width:var(--lw-2)"/><circle cx="19298.067" cy="7777.333" r="23.26" style="stroke-width:var(--lw-2)"/><path style="stroke-width:var(--lw-2)" d="M19079.208 7747.381v25.056M19538.177 7837.333h600v-600h-600ZM17638.177 9937.333v-900h1400v900ZM18238.177 10187.333v-250h-400v250ZM17838.177 10187.333v100h400v-100M18238.177 8787.333v250h-400v-250ZM17838.177 8787.333v-100h400v100M19288.177 9287.333h-250v400h250ZM19288.177 9687.333h100v-400h-100M17388.177 9287.333h250v400h-250ZM17388.177 9687.333h-100v-400h100M18438.177 10187.333v-250h400v250ZM18838.177 10187.333v100h-400v-100M18438.177 8787.333v250h400v-250ZM18838.177 8787.333v-100h-400v100M17038.177 8137.333h-400M16838.177 8337.333v-400M16979.599 8278.754l-282.843-282.842M16696.756 8278.754l282.842-282.842M20138.177 8437.333h-600v-600h600ZM18638.177 12937.333v-600h-200v800h1600v-2800h-800v200h600v2400Z"/><path d="M18638.177 12337.333h600v-1200M19238.177 10537.333h-222.222v600h822.222M19238.177 11737.333h600M19838.177 12337.333h-600v600" style="stroke-width:var(--lw-2)"/><path d="M18438.177 12037.333h500v-600h-500ZM16838.177 12837.333v-2200h-300v2200Z" style="stroke-width:var(--lw-2)"/><path d="M16734.73 10979.372v1494.89h-60.038v-1494.89ZM16674.692 11129.592v1215.482h-54.036v-1215.482Z" style="stroke-width:var(--lw-2)"/><path d="m17335.12 11127.443-660.428 609.89 390.253 342.5M16763.177 12687.333h-175v-150h175ZM16763.177 10766.302h-175v150h175ZM17350.606 12877.782l-220.183-201.246M17116.897 12375.516l275.994-301.965M17573.503 12065.435l346.001 316.244M17927.62 12562.29l-275.994 301.965M17350.606 12877.782l-220.183-201.246a213.068 213.068 0 0 0-13.526-301.02l275.994-301.965a127.841 127.841 0 0 0 180.612-8.115l346.001 316.243a127.841 127.841 0 0 0 8.116 180.612l-275.994 301.964a213.068 213.068 0 0 0-301.02 13.527" style="stroke-width:var(--lw-2)"/><path d="m17789.623 12713.273-15.727-14.375a63.92 63.92 0 0 1-90.306 4.058l-94.873 103.8a127.841 127.841 0 0 0-180.612 8.117l-220.183-201.246a127.841 127.841 0 0 0-8.116-180.612l94.873-103.8a63.92 63.92 0 0 1-4.058-90.306l-15.727-14.375" style="stroke-width:var(--lw-2)"/><path d="M12338.177 5037.333h-400M12338.177 5937.333h-400" style="stroke-width:var(--lw-6)"/><path d="m10788.177 11499.833 50-12.5" style="stroke-width:var(--lw-2)"/><path d="m10838.177 11487.333 1100-275" style="stroke-width:var(--lw-5)"/><path d="m16438.177 8137.333-229.29-70.71-70.71-829.29M12088.177 8137.333h100v50h-100ZM12088.177 9037.333h100v-50h-100ZM12188.177 8187.333h800v50h-800Z" style="stroke-width:var(--lw-2)"/><path d="M12988.177 8187.333a800 800 0 0 1-800 800" style="stroke-width:var(--lw-1);stroke-dasharray:.3175,.1588;stroke-dashoffset:.014"/><path d="M15638.177 9337.333v-100h-50v100ZM14838.177 9337.333v-100h50v100ZM15588.177 9237.333v-700h-50v700Z" style="stroke-width:var(--lw-2)"/><path d="M14888.177 9237.333a700 700 0 0 1 700-700" style="stroke-width:var(--lw-1);stroke-dasharray:.3175,.1588;stroke-dashoffset:.2107"/><path d="M15638.177 10337.333v100h-50v-100ZM14838.177 10337.333v100h50v-100ZM15588.177 10437.333v700h-50v-700Z" style="stroke-width:var(--lw-2)"/><path d="M15588.177 11137.333a700 700 0 0 1-700-700" style="stroke-width:var(--lw-1);stroke-dasharray:.3175,.1588;stroke-dashoffset:.2107"/><path d="M11938.177 4937.333h-120v-4570h120M11938.177 13237.333v470" style="stroke-width:var(--lw-6)"/><path d="M9358.177 437.333h2460" style="stroke-width:var(--lw-5)"/><path d="M9358.177 737.333h2460M9358.177 1037.333h2460" style="stroke-width:var(--lw-2)"/><circle cx="10588.177" cy="437.333" r="75" style="stroke-width:var(--lw-3)"/><path d="m10438.177 737.333 150 300 150-300M10588.177 437.333v600" style="stroke-width:var(--lw-3)"/><path d="M11938.177 13587.333v-100h-2700v100Z" style="stroke-width:var(--lw-2)"/><path d="M10138.177 13487.333v100h-70v-100ZM9238.177 13487.333v100h70v-100ZM10068.177 13537.333h-760M10138.177 2687.333v-100h50v100ZM11038.177 2687.333v-100h-50v100ZM10988.177 2587.333v-800h-50v800Z" style="stroke-width:var(--lw-2)"/><path d="M10188.177 2587.333a800 800 0 0 1 800-800" style="stroke-width:var(--lw-1);stroke-dasharray:.3175,.1588;stroke-dashoffset:.014"/><path d="M11818.177 2587.333v100h-780v-100Z" style="stroke-width:var(--lw-2)"/><path d="M11818.177 2687.333v-100h-70v100ZM11038.177 2687.333v-100h70v100ZM11748.177 2637.333h-640" style="stroke-width:var(--lw-2)"/><path d="M15738.177 13237.333v470M13938.177 13237.333v470M16638.177 13237.333v470M18438.177 13237.333v470M20138.177 10337.333h470M20138.177 8537.333h470M12338.177 9437.333h-200v800h200" style="stroke-width:var(--lw-6)"/><path d="M9238.177 13707.333h2700" style="stroke-width:var(--lw-5)"/><path d="M11938.177 13237.333h-2700M11038.177 13487.333v100h-70v-100ZM10138.177 13487.333v100h70v-100ZM10968.177 13537.333h-760M11938.177 13487.333v100h-70v-100ZM11038.177 13487.333v100h70v-100ZM11868.177 13537.333h-760M15738.177 13587.333v-100h-1800v100Z" style="stroke-width:var(--lw-2)"/><path d="M14838.177 13487.333v100h-70v-100ZM13938.177 13487.333v100h70v-100ZM14768.177 13537.333h-760" style="stroke-width:var(--lw-2)"/><path d="M13938.177 13707.333h1800" style="stroke-width:var(--lw-5)"/><path d="M15738.177 13487.333v100h-70v-100ZM14838.177 13487.333v100h70v-100ZM15668.177 13537.333h-760M18438.177 13587.333v-100h-1800v100Z" style="stroke-width:var(--lw-2)"/><path d="M17538.177 13487.333v100h-70v-100ZM16638.177 13487.333v100h70v-100ZM17468.177 13537.333h-760M18438.177 13487.333v100h-70v-100ZM17538.177 13487.333v100h70v-100ZM18368.177 13537.333h-760M20488.177 8537.333h-100v1800h100Z" style="stroke-width:var(--lw-2)"/><path d="M20388.177 9437.333h100v70h-100ZM20388.177 10337.333h100v-70h-100ZM20438.177 9507.333v760" style="stroke-width:var(--lw-2)"/><path d="M20608.177 10337.333v-1800" style="stroke-width:var(--lw-5)"/><path d="M20388.177 8537.333h100v70h-100ZM20388.177 9437.333h100v-70h-100ZM20438.177 8607.333v760" style="stroke-width:var(--lw-2)"/><path d="M16638.177 13707.333v500h1800v-500" style="stroke-width:var(--lw-5)"/><path d="M16688.177 13587.333v570h1700v-570M12538.177 10237.333h-400v-800h400ZM12138.177 10237.333l400-800M12138.177 9437.333l400 800M14138.177 9037.333h200v-900h-200ZM10138.177 2587.333v100h-780v-100Z" style="stroke-width:var(--lw-2)"/><path d="M10138.177 2687.333v-100h-70v100ZM9358.177 2687.333v-100h70v100ZM10068.177 2637.333h-640M10138.177 4887.333v-100h50v100ZM11038.177 4887.333v-100h-50v100ZM10988.177 4787.333v-800h-50v800Z" style="stroke-width:var(--lw-2)"/><path d="M10188.177 4787.333a800 800 0 0 1 800-800" style="stroke-width:var(--lw-1);stroke-dasharray:.3175,.1588;stroke-dashoffset:.014"/><path d="M11818.177 4787.333v100h-780v-100Z" style="stroke-width:var(--lw-2)"/><path d="M11818.177 4887.333v-100h-70v100ZM11038.177 4887.333v-100h70v100ZM11748.177 4837.333h-640M10138.177 4787.333v100h-780v-100Z" style="stroke-width:var(--lw-2)"/><path d="M10138.177 4887.333v-100h-70v100ZM9358.177 4887.333v-100h70v100ZM10068.177 4837.333h-640" style="stroke-width:var(--lw-2)"/><path d="M12338.177 837.333h1600M15738.177 837.333h900M18438.177 837.333h1700v2900M20138.177 5537.333v1300M15738.177 367.333h900" style="stroke-width:var(--lw-6)"/><path d="M18438.177 367.333h2170v3370M12338.177 837.333v3000M12338.177 4637.333v400M12338.177 5937.333v900M12338.177 6837.333h7800" style="stroke-width:var(--lw-6)"/><path d="M16538.177 837.333v2900M16538.177 4737.333v2100M16438.177 837.333v2800M16438.177 4837.333v1000M16438.177 5937.333v900M12338.177 3637.333h2500M15638.177 3637.333h800M12338.177 3737.333h2500M15638.177 3737.333h900M16538.177 4737.333h-900M14838.177 4737.333h-500M16438.177 4837.333h-800M14838.177 4837.333h-400M14438.177 4837.333v1000M14438.177 5937.333v900M14338.177 4737.333v2100M14838.177 4737.333v100M15638.177 4737.333v100M14838.177 3637.333v100M15638.177 3637.333v100M16438.177 5837.333h-400M14838.177 5837.333h-400M16438.177 5937.333h-300M14838.177 5937.333h-400M14838.177 5937.333v-100M16038.177 5837.333v1000M16138.177 5937.333v900" style="stroke-width:var(--lw-5)"/><path d="M16038.177 5837.333h-1200M16038.177 5887.333h-1200M14838.177 5837.333v-1000M16388.177 5154.833h-367.5M16213.177 5194.833h-192.5M16020.677 5519.833h367.5M16020.677 5479.833h192.5M16438.177 5469.833v-265M16438.177 5204.833a50 50 0 0 0-50-50M16388.177 5519.833a50 50 0 0 0 50-50M16253.177 5469.833v-265M16213.177 5479.833v-285M16253.177 5469.833a50 50 0 0 0 50 50M16020.677 5154.833a182.5 182.5 0 0 0 0 365" style="stroke-width:var(--lw-2)"/><path d="M16020.677 5194.833a142.5 142.5 0 0 0 0 285M16388.177 5154.833h-85M16303.177 5154.833a50 50 0 0 0-50 50M16303.177 5519.833h85M16186.302 5375.105h-71.584v-75.544h71.584Z" style="stroke-width:var(--lw-2)"/><circle cx="16343.549" cy="5337.333" r="21.351" style="stroke-width:var(--lw-2)"/><path style="stroke-width:var(--lw-2)" d="M14637.899 5352.569v-30.472M14788.177 5237.333v200M14788.177 5437.333a100 100 0 0 1-100 100M14638.177 5537.333a100 100 0 0 1-100-100M14538.177 5322.097v-84.764M14508.177 5352.569h129.722M14637.899 5322.097h-129.722M14508.177 5322.097v30.472M14688.177 5537.333h-50M14538.177 5437.333v-84.764M14688.177 5137.333h-50M14688.177 5137.333a100 100 0 0 1 100 100M14538.177 5237.333a100 100 0 0 1 100-100M14488.177 4837.333v1000"/><circle cx="15888.177" cy="6687.333" r="50" style="stroke-width:var(--lw-2)"/><path d="M12338.177 6237.333h1000v600h-1000ZM12338.177 6237.333l1000 600M13338.177 6237.333l-1000 600M14338.177 6237.333h-1000v600h1000ZM14338.177 6237.333l-1000 600M13338.177 6237.333l1000 600M16438.177 3637.333v-700h-600v700ZM16438.177 3637.333l-600-700M16438.177 2937.333l-600 700M16438.177 1537.333v-700h-600v700ZM16438.177 1537.333l-600-700M16438.177 837.333l-600 700M15838.177 1537.333h600v1400h-600Z" style="stroke-width:var(--lw-2)"/><path d="M16224.103 1679.372v1094.89h60.039v-1094.89ZM16284.142 1829.592v815.482h54.035v-815.482Z" style="stroke-width:var(--lw-2)"/><path d="m15953.927 1932.388 330.215 304.945-195.127 171.25M14188.177 2987.333v-1500h-1850v1500Z" style="stroke-width:var(--lw-2)"/><path d="M14238.177 3037.333v-1600h-1900v1600Z" style="stroke-width:var(--lw-2)"/><path d="M12388.177 2858.916h387.832v-558.168h-387.832ZM12388.177 1615.75h387.832v558.168h-387.832ZM12738.177 912.333v450h-400v-450ZM12738.177 3562.333v-450h-400v450ZM16538.177 5637.333h600v600h-600ZM17138.177 6237.333h600v600h-600ZM17738.177 6237.333h600v600h-600ZM18338.177 6237.333h600v600h-600Z" style="stroke-width:var(--lw-2)"/><path d="M18031.575 6687.333h-93.398a100 100 0 0 1-100-100v-150a100 100 0 0 1 100-100h200a100 100 0 0 1 100 100v150a100 100 0 0 1-100 100h-76.13" style="stroke-width:var(--lw-2)"/><path d="M18031.575 6543.658h30.472v204.722h-30.472ZM19388.177 6552.336a74.999 74.999 0 1 0-75-75M19088.177 6552.336a74.999 74.999 0 1 0-75-75M19538.177 6237.333v600M18938.177 6837.333v-600M19013.177 6717.332a75.009 75.009 0 0 0 75 75" style="stroke-width:var(--lw-2)"/><path d="M19088.177 6792.332a74.999 74.999 0 1 0-75-75M19013.177 6477.336a75.009 75.009 0 0 0 75 75M19538.177 6837.333h-600" style="stroke-width:var(--lw-2)"/><circle cx="19388.175" cy="6717.333" r="49.999" style="stroke-width:var(--lw-2)"/><path d="M19313.177 6477.336a75.009 75.009 0 0 0 75 75M18938.177 6237.333h600M19069.189 6327.286h10.019M19079.208 6302.229h-10.019M19538.177 6357.334h-600M18992.934 6327.286h10.019M18992.934 6302.229v25.057M19002.953 6302.229h-10.019M19002.953 6327.286v-25.057M19033.566 6327.286h10.019M19033.566 6302.229v25.057M19043.585 6302.229h-10.019M19043.585 6327.286v-25.057M19051.378 6327.286h10.019M19051.378 6302.229v25.057M19061.397 6302.229h-10.019M19061.397 6327.286v-25.057M19069.189 6302.229v25.057" style="stroke-width:var(--lw-2)"/><circle cx="19473.577" cy="6297.334" r="23.26" style="stroke-width:var(--lw-2)"/><circle cx="19385.822" cy="6297.334" r="23.26" style="stroke-width:var(--lw-2)"/><circle cx="19122.557" cy="6297.334" r="23.26" style="stroke-width:var(--lw-2)"/><circle cx="19210.312" cy="6297.334" r="23.26" style="stroke-width:var(--lw-2)"/><circle cx="19298.067" cy="6297.334" r="23.26" style="stroke-width:var(--lw-2)"/><path style="stroke-width:var(--lw-2)" d="M19079.208 6327.286v-25.057M19538.177 6237.333h600v600h-600ZM17638.177 4137.333v900h1400v-900Z"/><path d="M18238.177 3887.333v250h-400v-250ZM17838.177 3887.333v-100h400v100M18238.177 5287.333v-250h-400v250ZM17838.177 5287.333v100h400v-100M19288.177 4787.333h-250v-400h250ZM19288.177 4387.333h100v400h-100M17388.177 4787.333h250v-400h-250ZM17388.177 4387.333h-100v400h100M18438.177 3887.333v250h400v-250ZM18838.177 3887.333v-100h-400v100M18438.177 5287.333v-250h400v250ZM18838.177 5287.333v100h-400v-100M17038.177 5937.333h-400M16838.177 5737.333v400M16979.599 5795.912l-282.843 282.842M16696.756 5795.912l282.842 282.842M20138.177 5637.333h-600v600h600ZM18638.177 1137.333v600h-200v-800h1600v2800h-800v-200h600v-2400Z" style="stroke-width:var(--lw-2)"/><path d="M18638.177 1737.333h600v1200M19238.177 3537.333h-222.222v-600h822.222M19238.177 2337.333h600M19838.177 1737.333h-600v-600" style="stroke-width:var(--lw-2)"/><path d="M18438.177 2037.333h500v600h-500ZM16838.177 1237.333v2200h-300v-2200Z" style="stroke-width:var(--lw-2)"/><path d="M16734.73 3095.294v-1494.89h-60.038v1494.89ZM16674.692 2945.074V1729.592h-54.036v1215.482Z" style="stroke-width:var(--lw-2)"/><path d="m17335.12 2947.224-660.428-609.89 390.253-342.5M16763.177 1387.333h-175v150h175ZM16763.177 3308.365h-175v-150h175ZM17350.606 1196.884l-220.183 201.246M17116.897 1699.15l275.994 301.965M17573.503 2009.23l346.001-316.242M17927.62 1512.376l-275.994-301.965M17350.606 1196.884l-220.183 201.246a213.068 213.068 0 0 0-13.526 301.02l275.994 301.965a127.841 127.841 0 0 0 180.612 8.116l346.001-316.243a127.841 127.841 0 0 0 8.116-180.612l-275.994-301.965a213.068 213.068 0 0 0-301.02-13.527" style="stroke-width:var(--lw-2)"/><path d="m17789.623 1361.393-15.727 14.375a63.92 63.92 0 0 1-90.306-4.058l-94.873-103.8a127.841 127.841 0 0 0-180.612-8.117l-220.183 201.246a127.841 127.841 0 0 0-8.116 180.612l94.873 103.8a63.92 63.92 0 0 1-4.058 90.307l-15.727 14.374M12088.177 5937.333h100v-50h-100ZM12088.177 5037.333h100v50h-100ZM12188.177 5887.333h800v-50h-800Z" style="stroke-width:var(--lw-2)"/><path d="M12188.177 5087.333a800 800 0 0 1 800 800" style="stroke-width:var(--lw-1);stroke-dasharray:.3175,.1588;stroke-dashoffset:.014"/><path d="M15638.177 4737.333v100h-50v-100ZM14838.177 4737.333v100h50v-100ZM15588.177 4837.333v700h-50v-700Z" style="stroke-width:var(--lw-2)"/><path d="M15588.177 5537.333a700 700 0 0 1-700-700" style="stroke-width:var(--lw-1);stroke-dasharray:.3175,.1588;stroke-dashoffset:.2107"/><path d="M15638.177 3737.333v-100h-50v100ZM14838.177 3737.333v-100h50v100ZM15588.177 3637.333v-700h-50v700Z" style="stroke-width:var(--lw-2)"/><path d="M14888.177 3637.333a700 700 0 0 1 700-700" style="stroke-width:var(--lw-1);stroke-dasharray:.3175,.1588;stroke-dashoffset:.2107"/><path d="M15738.177 837.333v-470M13938.177 837.333v-470M16638.177 837.333v-470M18438.177 837.333v-470M20138.177 3737.333h470M20138.177 5537.333h470M12338.177 4637.333h-200v-800h200" style="stroke-width:var(--lw-6)"/><path d="M15738.177 487.333v100h-1800v-100Z" style="stroke-width:var(--lw-2)"/><path d="M14838.177 587.333v-100h-70v100ZM13938.177 587.333v-100h70v100ZM14768.177 537.333h-760" style="stroke-width:var(--lw-2)"/><path d="M18438.177 367.333h-1800" style="stroke-width:var(--lw-5)"/><path d="M15738.177 587.333v-100h-70v100ZM14838.177 587.333v-100h70v100ZM15668.177 537.333h-760M18438.177 487.333v100h-1800v-100Z" style="stroke-width:var(--lw-2)"/><path d="M17538.177 587.333v-100h-70v100ZM16638.177 587.333v-100h70v100ZM17468.177 537.333h-760M18438.177 587.333v-100h-70v100ZM17538.177 587.333v-100h70v100ZM18368.177 537.333h-760M20488.177 5537.333h-100v-1800h100Z" style="stroke-width:var(--lw-2)"/><path d="M20388.177 4637.333h100v-70h-100ZM20388.177 3737.333h100v70h-100ZM20438.177 4567.333v-760M20388.177 5537.333h100v-70h-100ZM20388.177 4637.333h100v70h-100ZM20438.177 5467.333v-760" style="stroke-width:var(--lw-2)"/><path d="M15738.177 367.333v-500h-1800v500" style="stroke-width:var(--lw-5)"/><path d="M15688.177 487.333v-570h-1700v570M12538.177 3837.333h-400v800h400ZM12138.177 3837.333l400 800M12138.177 4637.333l400-800M14138.177 5037.333h200v900h-200Z" style="stroke-width:var(--lw-2)"/><path d="M11938.177 367.333h2000M20608.177 8537.333v-3000" style="stroke-width:var(--lw-6)"/><path d="m16438.177 6837.333-229.29-70.71-70.71-829.29" style="stroke-width:var(--lw-2)"/><path d="M20608.177 5537.333h500v-1800h-500" style="stroke-width:var(--lw-5)"/><path d="M20488.177 5487.333h570v-1700h-570" style="stroke-width:var(--lw-2)"/><path d="M8838.177 13237.333h-1600M5438.177 13237.333h-900M2738.177 13237.333h-1700v-2900M1038.177 8537.333v-1300M9238.177 13707.333h-2000M5438.177 13707.333h-900" style="stroke-width:var(--lw-6)"/><path d="M2738.177 13707.333h-2170v-3370M9238.177 13237.333v-4200M9238.177 8137.333v-2200M9238.177 5037.333v-100M8838.177 13237.333v-3000M8838.177 9437.333v-400M8838.177 8137.333v-900M8838.177 7237.333h-7800" style="stroke-width:var(--lw-6)"/><path d="M4638.177 13237.333v-2900M4638.177 9337.333v-2100M4738.177 13237.333v-2800M4738.177 9237.333v-1000M4738.177 8137.333v-900M8838.177 10437.333h-2500M5538.177 10437.333h-800M8838.177 10337.333h-2500M5538.177 10337.333h-900M4638.177 9337.333h900M6338.177 9337.333h500M4738.177 9237.333h800M6338.177 9237.333h400M6738.177 9237.333v-1000M6738.177 8137.333v-900M6838.177 9337.333v-2100" style="stroke-width:var(--lw-5)"/><path d="M8838.177 9037.333h400M8838.177 8137.333h400" style="stroke-width:var(--lw-6)"/><path d="M6338.177 9337.333v-100M5538.177 9337.333v-100M6338.177 10437.333v-100M5538.177 10437.333v-100M4738.177 8237.333h400M6338.177 8237.333h400M4738.177 8137.333h300M6338.177 8137.333h400M6338.177 8137.333v100M5138.177 8237.333v-1000M5038.177 8137.333v-900" style="stroke-width:var(--lw-5)"/><path d="M5138.177 8237.333h1200M5138.177 8187.333h1200M6338.177 8237.333v1000M4788.177 8919.833h367.5M4963.177 8879.833h192.5M5155.677 8554.833h-367.5M5155.677 8594.833h-192.5M4738.177 8604.833v265M4738.177 8869.833a50 50 0 0 0 50 50M4788.177 8554.833a50 50 0 0 0-50 50M4923.177 8604.833v265M4963.177 8594.833v285M4923.177 8604.833a50 50 0 0 0-50-50M5155.677 8919.833a182.5 182.5 0 0 0 0-365" style="stroke-width:var(--lw-2)"/><path d="M5155.677 8879.833a142.5 142.5 0 0 0 0-285M4788.177 8919.833h85M4873.177 8919.833a50 50 0 0 0 50-50M4873.177 8554.833h-85M4990.052 8699.561h71.584v75.544h-71.584Z" style="stroke-width:var(--lw-2)"/><circle cx="4832.805" cy="8737.333" r="21.351" style="stroke-width:var(--lw-2)"/><path style="stroke-width:var(--lw-2)" d="M6538.455 8722.097v30.472M6388.177 8837.333v-200M6388.177 8637.333a100 100 0 0 1 100-100M6538.177 8537.333a100 100 0 0 1 100 100M6638.177 8752.569v84.764M6668.177 8722.097h-129.722M6538.455 8752.569h129.722M6668.177 8752.569v-30.472M6488.177 8537.333h50M6638.177 8637.333v84.764M6488.177 8937.333h50M6488.177 8937.333a100 100 0 0 1-100-100M6638.177 8837.333a100 100 0 0 1-100 100M6688.177 9237.333v-1000"/><circle cx="5288.177" cy="7387.333" r="50" style="stroke-width:var(--lw-2)"/><path d="M8838.177 7837.333h-1000v-600h1000ZM8838.177 7837.333l-1000-600M7838.177 7837.333l1000-600M6838.177 7837.333h1000v-600h-1000ZM6838.177 7837.333l1000-600M7838.177 7837.333l-1000-600M4738.177 10437.333v700h600v-700ZM4738.177 10437.333l600 700M4738.177 11137.333l600-700M4738.177 12537.333v700h600v-700ZM4738.177 12537.333l600 700M4738.177 13237.333l600-700M5338.177 12537.333h-600v-1400h600Z" style="stroke-width:var(--lw-2)"/><path d="M4952.251 12395.294v-1094.89h-60.039v1094.89ZM4892.212 12245.074v-815.482h-54.035v815.482Z" style="stroke-width:var(--lw-2)"/><path d="m5222.427 12142.278-330.215-304.945 195.127-171.25M6988.177 11087.333v1500h1850v-1500Z" style="stroke-width:var(--lw-2)"/><path d="M6938.177 11037.333v1600h1900v-1600Z" style="stroke-width:var(--lw-2)"/><path d="M8788.177 11215.75h-387.832v558.168h387.832ZM8788.177 12458.916h-387.832v-558.168h387.832ZM8438.177 13162.333v-450h400v450ZM8438.177 10512.333v450h400v-450ZM4638.177 8437.333h-600v-600h600ZM4038.177 7837.333h-600v-600h600ZM3438.177 7837.333h-600v-600h600ZM2838.177 7837.333h-600v-600h600Z" style="stroke-width:var(--lw-2)"/><path d="M3144.78 7387.333h93.397a100 100 0 0 1 100 100v150a100 100 0 0 1-100 100h-200a100 100 0 0 1-100-100v-150a100 100 0 0 1 100-100h76.13" style="stroke-width:var(--lw-2)"/><path d="M3144.78 7531.008h-30.473v-204.722h30.472ZM1788.177 7522.33a74.999 74.999 0 1 0 75 75M2088.177 7522.33a74.999 74.999 0 1 0 75 75M1638.177 7837.333v-600M2238.177 7237.333v600M2163.177 7357.334a75.009 75.009 0 0 0-75-75" style="stroke-width:var(--lw-2)"/><path d="M2088.177 7282.334a74.999 74.999 0 1 0 75 75M2163.177 7597.33a75.009 75.009 0 0 0-75-75M1638.177 7237.333h600" style="stroke-width:var(--lw-2)"/><circle cx="1788.179" cy="7357.333" r="49.999" style="stroke-width:var(--lw-2)"/><path d="M1863.177 7597.33a75.009 75.009 0 0 0-75-75M2238.177 7837.333h-600M2107.165 7747.381h-10.019M2097.146 7772.437h10.019M1638.177 7717.332h600M2183.42 7747.381h-10.019M2183.42 7772.437v-25.056M2173.401 7772.437h10.019M2173.401 7747.381v25.056M2142.788 7747.381h-10.019M2142.788 7772.437v-25.056M2132.769 7772.437h10.019M2132.769 7747.381v25.056M2124.977 7747.381h-10.019M2124.977 7772.437v-25.056M2114.958 7772.437h10.019M2114.958 7747.381v25.056M2107.165 7772.437v-25.056" style="stroke-width:var(--lw-2)"/><circle cx="1702.777" cy="7777.333" r="23.26" style="stroke-width:var(--lw-2)"/><circle cx="1790.532" cy="7777.333" r="23.26" style="stroke-width:var(--lw-2)"/><circle cx="2053.797" cy="7777.333" r="23.26" style="stroke-width:var(--lw-2)"/><circle cx="1966.042" cy="7777.333" r="23.26" style="stroke-width:var(--lw-2)"/><circle cx="1878.287" cy="7777.333" r="23.26" style="stroke-width:var(--lw-2)"/><path style="stroke-width:var(--lw-2)" d="M2097.146 7747.381v25.056M1638.177 7837.333h-600v-600h600ZM3538.177 9937.333v-900h-1400v900ZM2938.177 10187.333v-250h400v250ZM3338.177 10187.333v100h-400v-100M2938.177 8787.333v250h400v-250ZM3338.177 8787.333v-100h-400v100M1888.177 9287.333h250v400h-250Z"/><path d="M1888.177 9687.333h-100v-400h100M3788.177 9287.333h-250v400h250ZM3788.177 9687.333h100v-400h-100M2738.177 10187.333v-250h-400v250ZM2338.177 10187.333v100h400v-100M2738.177 8787.333v250h-400v-250ZM2338.177 8787.333v-100h400v100M4138.177 8137.333h400M4338.177 8337.333v-400M4196.756 8278.754l282.842-282.842M4479.599 8278.754l-282.843-282.842M1038.177 8437.333h600v-600h-600ZM2538.177 12937.333v-600h200v800h-1600v-2800h800v200h-600v2400Z" style="stroke-width:var(--lw-2)"/><path d="M2538.177 12337.333h-600v-1200M1938.177 10537.333H2160.4v600h-822.222M1938.177 11737.333h-600M1338.177 12337.333h600v600" style="stroke-width:var(--lw-2)"/><path d="M2738.177 12037.333h-500v-600h500ZM4338.177 12837.333v-2200h300v2200Z" style="stroke-width:var(--lw-2)"/><path d="M4441.624 10979.372v1494.89h60.039v-1494.89ZM4501.663 11129.592v1215.482h54.035v-1215.482Z" style="stroke-width:var(--lw-2)"/><path d="m3841.234 11127.443 660.429 609.89-390.254 342.5M4413.177 12687.333h175v-150h-175ZM4413.177 10766.302h175v150h-175ZM3825.748 12877.782l220.183-201.246M4059.457 12375.516l-275.993-301.965M3602.852 12065.435l-346.002 316.244M3248.734 12562.29l275.994 301.965M3825.748 12877.782l220.183-201.246a213.068 213.068 0 0 0 13.526-301.02l-275.993-301.965a127.841 127.841 0 0 0-180.612-8.115l-346.002 316.243a127.841 127.841 0 0 0-8.116 180.612l275.994 301.964a213.068 213.068 0 0 0 301.02 13.527" style="stroke-width:var(--lw-2)"/><path d="m3386.731 12713.273 15.727-14.375a63.92 63.92 0 0 1 90.307 4.058l94.872 103.8a127.841 127.841 0 0 0 180.612 8.117l220.183-201.246a127.841 127.841 0 0 0 8.116-180.612l-94.873-103.8a63.92 63.92 0 0 1 4.058-90.306l15.727-14.375" style="stroke-width:var(--lw-2)"/><path d="M8838.177 5037.333h400M8838.177 5937.333h400" style="stroke-width:var(--lw-6)"/><path d="m5038.177 8137.333-229.29-70.71-70.71-829.29M9088.177 8137.333h-100v50h100ZM9088.177 9037.333h-100v-50h100ZM8988.177 8187.333h-800v50h800Z" style="stroke-width:var(--lw-2)"/><path d="M8988.177 8987.333a800 800 0 0 1-800-800" style="stroke-width:var(--lw-1);stroke-dasharray:.3175,.1588;stroke-dashoffset:.014"/><path d="M5538.177 9337.333v-100h50v100ZM6338.177 9337.333v-100h-50v100ZM5588.177 9237.333v-700h50v700Z" style="stroke-width:var(--lw-2)"/><path d="M5588.177 8537.333a700 700 0 0 1 700 700" style="stroke-width:var(--lw-1);stroke-dasharray:.3175,.1588;stroke-dashoffset:.2107"/><path d="M5538.177 10337.333v100h50v-100ZM6338.177 10337.333v100h-50v-100ZM5588.177 10437.333v700h50v-700Z" style="stroke-width:var(--lw-2)"/><path d="M6288.177 10437.333a700 700 0 0 1-700 700" style="stroke-width:var(--lw-1);stroke-dasharray:.3175,.1588;stroke-dashoffset:.2107"/><path d="M9238.177 4937.333h120v-4570h-120M9238.177 13237.333v470M5438.177 13237.333v470M7238.177 13237.333v470M4538.177 13237.333v470M2738.177 13237.333v470M1038.177 10337.333h-470M1038.177 8537.333h-470M8838.177 9437.333h200v800h-200" style="stroke-width:var(--lw-6)"/><path d="M5438.177 13587.333v-100h1800v100Z" style="stroke-width:var(--lw-2)"/><path d="M6338.177 13487.333v100h70v-100ZM7238.177 13487.333v100h-70v-100ZM6408.177 13537.333h760" style="stroke-width:var(--lw-2)"/><path d="M2738.177 13707.333h1800" style="stroke-width:var(--lw-5)"/><path d="M5438.177 13487.333v100h70v-100ZM6338.177 13487.333v100h-70v-100ZM5508.177 13537.333h760M2738.177 13587.333v-100h1800v100Z" style="stroke-width:var(--lw-2)"/><path d="M3638.177 13487.333v100h70v-100ZM4538.177 13487.333v100h-70v-100ZM3708.177 13537.333h760M2738.177 13487.333v100h70v-100ZM3638.177 13487.333v100h-70v-100ZM2808.177 13537.333h760M688.177 8537.333h100v1800h-100Z" style="stroke-width:var(--lw-2)"/><path d="M788.177 9437.333h-100v70h100ZM788.177 10337.333h-100v-70h100ZM738.177 9507.333v760" style="stroke-width:var(--lw-2)"/><path d="M568.177 3737.333v1800" style="stroke-width:var(--lw-5)"/><path d="M788.177 8537.333h-100v70h100ZM788.177 9437.333h-100v-70h100ZM738.177 8607.333v760" style="stroke-width:var(--lw-2)"/><path d="M5438.177 13707.333v500h1800v-500" style="stroke-width:var(--lw-5)"/><path d="M5488.177 13587.333v570h1700v-570M8638.177 10237.333h400v-800h-400ZM9038.177 10237.333l-400-800M9038.177 9437.333l-400 800M7038.177 9037.333h-200v-900h200Z" style="stroke-width:var(--lw-2)"/><path d="M8838.177 837.333h-1600M5438.177 837.333h-900M2738.177 837.333h-1700v2900M1038.177 5537.333v1300M5438.177 367.333h-900" style="stroke-width:var(--lw-6)"/><path d="M2738.177 367.333h-2170v3370M8838.177 837.333v3000M8838.177 4637.333v400M8838.177 5937.333v900M8838.177 6837.333h-7800" style="stroke-width:var(--lw-6)"/><path d="M4638.177 837.333v2900M4638.177 4737.333v2100M4738.177 837.333v2800M4738.177 4837.333v1000M4738.177 5937.333v900M8838.177 3637.333h-2500M5538.177 3637.333h-800M8838.177 3737.333h-2500M5538.177 3737.333h-900M4638.177 4737.333h900M6338.177 4737.333h500M4738.177 4837.333h800M6338.177 4837.333h400M6738.177 4837.333v1000M6738.177 5937.333v900M6838.177 4737.333v2100M6338.177 4737.333v100M5538.177 4737.333v100M6338.177 3637.333v100M5538.177 3637.333v100M4738.177 5837.333h400M6338.177 5837.333h400M4738.177 5937.333h300M6338.177 5937.333h400M6338.177 5937.333v-100M5138.177 5837.333v1000M5038.177 5937.333v900" style="stroke-width:var(--lw-5)"/><path d="M5138.177 5837.333h1200M5138.177 5887.333h1200M6338.177 5837.333v-1000M4788.177 5154.833h367.5M4963.177 5194.833h192.5M5155.677 5519.833h-367.5M5155.677 5479.833h-192.5M4738.177 5469.833v-265M4738.177 5204.833a50 50 0 0 1 50-50M4788.177 5519.833a50 50 0 0 1-50-50M4923.177 5469.833v-265M4963.177 5479.833v-285M4923.177 5469.833a50 50 0 0 1-50 50M5155.677 5154.833a182.5 182.5 0 0 1 0 365" style="stroke-width:var(--lw-2)"/><path d="M5155.677 5194.833a142.5 142.5 0 0 1 0 285M4788.177 5154.833h85M4873.177 5154.833a50 50 0 0 1 50 50M4873.177 5519.833h-85M4990.052 5375.105h71.584v-75.544h-71.584Z" style="stroke-width:var(--lw-2)"/><circle cx="4832.805" cy="5337.333" r="21.351" style="stroke-width:var(--lw-2)"/><path style="stroke-width:var(--lw-2)" d="M6538.455 5352.569v-30.472M6388.177 5237.333v200M6488.177 5537.333a100 100 0 0 1-100-100M6638.177 5437.333a100 100 0 0 1-100 100M6638.177 5322.097v-84.764M6668.177 5352.569h-129.722M6538.455 5322.097h129.722M6668.177 5322.097v30.472M6488.177 5537.333h50M6638.177 5437.333v-84.764M6488.177 5137.333h50M6388.177 5237.333a100 100 0 0 1 100-100M6538.177 5137.333a100 100 0 0 1 100 100M6688.177 4837.333v1000"/><circle cx="5288.177" cy="6687.333" r="50" style="stroke-width:var(--lw-2)"/><path d="M8838.177 6237.333h-1000v600h1000ZM8838.177 6237.333l-1000 600M7838.177 6237.333l1000 600M6838.177 6237.333h1000v600h-1000ZM6838.177 6237.333l1000 600M7838.177 6237.333l-1000 600M4738.177 3637.333v-700h600v700ZM4738.177 3637.333l600-700M4738.177 2937.333l600 700M4738.177 1537.333v-700h600v700ZM4738.177 1537.333l600-700M4738.177 837.333l600 700M5338.177 1537.333h-600v1400h600Z" style="stroke-width:var(--lw-2)"/><path d="M4952.251 1679.372v1094.89h-60.039v-1094.89ZM4892.212 1829.592v815.482h-54.035v-815.482Z" style="stroke-width:var(--lw-2)"/><path d="m5222.427 1932.388-330.215 304.945 195.127 171.25M6988.177 2987.333v-1500h1850v1500Z" style="stroke-width:var(--lw-2)"/><path d="M6938.177 3037.333v-1600h1900v1600Z" style="stroke-width:var(--lw-2)"/><path d="M8788.177 2858.916h-387.832v-558.168h387.832ZM8788.177 1615.75h-387.832v558.168h387.832ZM8438.177 912.333v450h400v-450ZM8438.177 3562.333v-450h400v450ZM4638.177 5637.333h-600v600h600ZM4038.177 6237.333h-600v600h600ZM3438.177 6237.333h-600v600h600ZM2838.177 6237.333h-600v600h600Z" style="stroke-width:var(--lw-2)"/><path d="M3144.78 6687.333h93.397a100 100 0 0 0 100-100v-150a100 100 0 0 0-100-100h-200a100 100 0 0 0-100 100v150a100 100 0 0 0 100 100h76.13" style="stroke-width:var(--lw-2)"/><path d="M3144.78 6543.658h-30.473v204.722h30.472ZM1788.177 6552.336a74.999 74.999 0 1 1 75-75M2088.177 6552.336a74.999 74.999 0 1 1 75-75M1638.177 6237.333v600M2238.177 6837.333v-600M2163.177 6717.332a75.009 75.009 0 0 1-75 75" style="stroke-width:var(--lw-2)"/><path d="M2088.177 6792.332a74.999 74.999 0 1 1 75-75M2163.177 6477.336a75.009 75.009 0 0 1-75 75M1638.177 6837.333h600" style="stroke-width:var(--lw-2)"/><circle cx="1788.179" cy="6717.333" r="49.999" style="stroke-width:var(--lw-2)"/><path d="M1863.177 6477.336a75.009 75.009 0 0 1-75 75M2238.177 6237.333h-600M2107.165 6327.286h-10.019M2097.146 6302.229h10.019M1638.177 6357.334h600M2183.42 6327.286h-10.019M2183.42 6302.229v25.057M2173.401 6302.229h10.019M2173.401 6327.286v-25.057M2142.788 6327.286h-10.019M2142.788 6302.229v25.057M2132.769 6302.229h10.019M2132.769 6327.286v-25.057M2124.977 6327.286h-10.019M2124.977 6302.229v25.057M2114.958 6302.229h10.019M2114.958 6327.286v-25.057M2107.165 6302.229v25.057" style="stroke-width:var(--lw-2)"/><circle cx="1702.777" cy="6297.334" r="23.26" style="stroke-width:var(--lw-2)"/><circle cx="1790.532" cy="6297.334" r="23.26" style="stroke-width:var(--lw-2)"/><circle cx="2053.797" cy="6297.334" r="23.26" style="stroke-width:var(--lw-2)"/><circle cx="1966.042" cy="6297.334" r="23.26" style="stroke-width:var(--lw-2)"/><circle cx="1878.287" cy="6297.334" r="23.26" style="stroke-width:var(--lw-2)"/><path style="stroke-width:var(--lw-2)" d="M2097.146 6327.286v-25.057M1638.177 6237.333h-600v600h600ZM3538.177 4137.333v900h-1400v-900Z"/><path d="M2938.177 3887.333v250h400v-250ZM3338.177 3887.333v-100h-400v100M2938.177 5287.333v-250h400v250ZM3338.177 5287.333v100h-400v-100M1888.177 4787.333h250v-400h-250ZM1888.177 4387.333h-100v400h100M3788.177 4787.333h-250v-400h250ZM3788.177 4387.333h100v400h-100M2738.177 3887.333v250h-400v-250ZM2338.177 3887.333v-100h400v100M2738.177 5287.333v-250h-400v250ZM2338.177 5287.333v100h400v-100M4138.177 5937.333h400M4338.177 5737.333v400M4196.756 5795.912l282.842 282.842M4479.599 5795.912l-282.843 282.842M1038.177 5637.333h600v600h-600ZM2538.177 1137.333v600h200v-800h-1600v2800h800v-200h-600v-2400Z" style="stroke-width:var(--lw-2)"/><path d="M2538.177 1737.333h-600v1200M1938.177 3537.333H2160.4v-600h-822.222M1938.177 2337.333h-600M1338.177 1737.333h600v-600" style="stroke-width:var(--lw-2)"/><path d="M2738.177 2037.333h-500v600h500ZM4338.177 1237.333v2200h300v-2200Z" style="stroke-width:var(--lw-2)"/><path d="M4441.624 3095.294v-1494.89h60.039v1494.89ZM4501.663 2945.074V1729.592h54.035v1215.482Z" style="stroke-width:var(--lw-2)"/><path d="m3841.234 2947.224 660.429-609.89-390.254-342.5M4413.177 1387.333h175v150h-175ZM4413.177 3308.365h175v-150h-175ZM3825.748 1196.884l220.183 201.246M4059.457 1699.15l-275.993 301.965M3602.852 2009.23l-346.002-316.242M3248.734 1512.376l275.994-301.965M3825.748 1196.884l220.183 201.246a213.068 213.068 0 0 0 13.526 301.02l-275.993 301.965a127.841 127.841 0 0 0-180.612 8.116l-346.002-316.243a127.841 127.841 0 0 0-8.116-180.612l275.994-301.965a213.068 213.068 0 0 0 301.02-13.527" style="stroke-width:var(--lw-2)"/><path d="m3386.731 1361.393 15.727 14.375a63.92 63.92 0 0 1 90.307-4.058l94.872-103.8a127.841 127.841 0 0 0 180.612-8.117l220.183 201.246a127.841 127.841 0 0 0 8.116 180.612l-94.873 103.8a63.92 63.92 0 0 1 4.058 90.307l15.727 14.374M9088.177 5937.333h-100v-50h100ZM9088.177 5037.333h-100v50h100ZM8988.177 5887.333h-800v-50h800Z" style="stroke-width:var(--lw-2)"/><path d="M8188.177 5887.333a800 800 0 0 1 800-800" style="stroke-width:var(--lw-1);stroke-dasharray:.3175,.1588;stroke-dashoffset:.014"/><path d="M5538.177 4737.333v100h50v-100ZM6338.177 4737.333v100h-50v-100ZM5588.177 4837.333v700h50v-700Z" style="stroke-width:var(--lw-2)"/><path d="M6288.177 4837.333a700 700 0 0 1-700 700" style="stroke-width:var(--lw-1);stroke-dasharray:.3175,.1588;stroke-dashoffset:.2107"/><path d="M5538.177 3737.333v-100h50v100ZM6338.177 3737.333v-100h-50v100ZM5588.177 3637.333v-700h50v700Z" style="stroke-width:var(--lw-2)"/><path d="M5588.177 2937.333a700 700 0 0 1 700 700" style="stroke-width:var(--lw-1);stroke-dasharray:.3175,.1588;stroke-dashoffset:.2107"/><path d="M5438.177 837.333v-470M7238.177 837.333v-470M4538.177 837.333v-470M2738.177 837.333v-470M1038.177 3737.333h-470M1038.177 5537.333h-470M8838.177 4637.333h200v-800h-200" style="stroke-width:var(--lw-6)"/><path d="M5438.177 487.333v100h1800v-100Z" style="stroke-width:var(--lw-2)"/><path d="M6338.177 587.333v-100h70v100ZM7238.177 587.333v-100h-70v100ZM6408.177 537.333h760" style="stroke-width:var(--lw-2)"/><path d="M7238.177 367.333h-1800" style="stroke-width:var(--lw-5)"/><path d="M5438.177 587.333v-100h70v100ZM6338.177 587.333v-100h-70v100ZM5508.177 537.333h760M2738.177 487.333v100h1800v-100Z" style="stroke-width:var(--lw-2)"/><path d="M3638.177 587.333v-100h70v100ZM4538.177 587.333v-100h-70v100ZM3708.177 537.333h760M2738.177 587.333v-100h70v100ZM3638.177 587.333v-100h-70v100ZM2808.177 537.333h760M688.177 5537.333h100v-1800h-100Z" style="stroke-width:var(--lw-2)"/><path d="M788.177 4637.333h-100v-70h100ZM788.177 3737.333h-100v70h100ZM738.177 4567.333v-760M788.177 5537.333h-100v-70h100ZM788.177 4637.333h-100v70h100ZM738.177 5467.333v-760" style="stroke-width:var(--lw-2)"/><path d="M4538.177 367.333v-500h-1800v500" style="stroke-width:var(--lw-5)"/><path d="M4488.177 487.333v-570h-1700v570M8638.177 3837.333h400v800h-400ZM9038.177 3837.333l-400 800M9038.177 4637.333l-400-800M7038.177 5037.333h-200v900h200Z" style="stroke-width:var(--lw-2)"/><path d="M9238.177 367.333h-2000M568.177 8537.333v-3000" style="stroke-width:var(--lw-6)"/><path d="m5038.177 6837.333-229.29-70.71-70.71-829.29" style="stroke-width:var(--lw-2)"/><path d="M568.177 8537.333h-500v1800h500" style="stroke-width:var(--lw-5)"/><path d="M688.177 8587.333h-570v1700h570" style="stroke-width:var(--lw-2)"/><text dx="0" dy="200" fill="var(--text-color)" font-family="Oswald" font-size="var(--dxf-big-font)" text-anchor="middle" transform="matrix(1 0 0 -1 10588.177 1555.769)">3.7</text><text dx="0" dy="200" fill="var(--text-color)" font-family="Oswald" font-size="var(--dxf-big-font)" text-anchor="middle" transform="matrix(1 0 0 -1 10588.177 3606.515)">4.9</text><text dx="0" dy="200" fill="var(--text-color)" font-family="Oswald" font-size="var(--dxf-big-font)" text-anchor="middle" transform="matrix(1 0 0 -1 10588.177 7463.261)">22.4</text><text dx="0" dy="200" fill="var(--text-color)" font-family="Oswald" font-size="var(--dxf-big-font)" text-anchor="middle" transform="matrix(1 0 0 -1 13304.09 9170.352)">6.2</text><text dx="0" dy="200" fill="var(--text-color)" font-family="Oswald" font-size="var(--dxf-big-font)" text-anchor="middle" transform="matrix(1 0 0 -1 15222.222 7839.251)">3.6</text><text dx="0" dy="200" fill="var(--text-color)" font-family="Oswald" font-size="var(--dxf-big-font)" text-anchor="middle" transform="matrix(1 0 0 -1 14957.93 11968.89)">11.5</text><text dx="0" dy="200" fill="var(--text-color)" font-family="Oswald" font-size="var(--dxf-big-font)" text-anchor="middle" transform="matrix(1 0 0 -1 18185.632 10835.691)">21.6</text><text dx="0" dy="200" fill="var(--text-color)" font-family="Oswald" font-size="var(--dxf-big-font)" text-anchor="middle" transform="matrix(1 0 0 -1 13304.09 5104.561)">6.2</text><text dx="0" dy="200" fill="var(--text-color)" font-family="Oswald" font-size="var(--dxf-big-font)" text-anchor="middle" transform="matrix(1 0 0 -1 15222.222 6435.662)">3.6</text><text dx="0" dy="200" fill="var(--text-color)" font-family="Oswald" font-size="var(--dxf-big-font)" text-anchor="middle" transform="matrix(1 0 0 -1 14957.93 2309.662)">11.5</text><text dx="0" dy="200" fill="var(--text-color)" font-family="Oswald" font-size="var(--dxf-big-font)" text-anchor="middle" transform="matrix(1 0 0 -1 18185.632 3439.222)">21.6</text><text dx="0" dy="200" fill="var(--text-color)" font-family="Oswald" font-size="var(--dxf-big-font)" text-anchor="middle" transform="matrix(1 0 0 -1 15308.328 9957.614)">2.2</text><text dx="0" dy="200" fill="var(--text-color)" font-family="Oswald" font-size="var(--dxf-big-font)" text-anchor="middle" transform="matrix(1 0 0 -1 15308.328 4313.413)">2.2</text><text dx="0" dy="200" fill="var(--text-color)" font-family="Oswald" font-size="var(--dxf-big-font)" text-anchor="middle" transform="matrix(1 0 0 -1 7872.263 9170.352)">6.2</text><text dx="0" dy="200" fill="var(--text-color)" font-family="Oswald" font-size="var(--dxf-big-font)" text-anchor="middle" transform="matrix(1 0 0 -1 5954.132 7839.251)">3.6</text><text dx="0" dy="200" fill="var(--text-color)" font-family="Oswald" font-size="var(--dxf-big-font)" text-anchor="middle" transform="matrix(1 0 0 -1 6218.425 11968.89)">11.5</text><text dx="0" dy="200" fill="var(--text-color)" font-family="Oswald" font-size="var(--dxf-big-font)" text-anchor="middle" transform="matrix(1 0 0 -1 2990.722 10835.691)">21.6</text><text dx="0" dy="200" fill="var(--text-color)" font-family="Oswald" font-size="var(--dxf-big-font)" text-anchor="middle" transform="matrix(1 0 0 -1 7872.263 5104.561)">6.2</text><text dx="0" dy="200" fill="var(--text-color)" font-family="Oswald" font-size="var(--dxf-big-font)" text-anchor="middle" transform="matrix(1 0 0 -1 5954.132 6435.662)">3.6</text><text dx="0" dy="200" fill="var(--text-color)" font-family="Oswald" font-size="var(--dxf-big-font)" text-anchor="middle" transform="matrix(1 0 0 -1 6218.425 2309.662)">11.5</text><text dx="0" dy="200" fill="var(--text-color)" font-family="Oswald" font-size="var(--dxf-big-font)" text-anchor="middle" transform="matrix(1 0 0 -1 2990.722 3439.222)">21.6</text><text dx="0" dy="200" fill="var(--text-color)" font-family="Oswald" font-size="var(--dxf-big-font)" text-anchor="middle" transform="matrix(1 0 0 -1 5868.027 9957.614)">2.2</text><text dx="0" dy="200" fill="var(--text-color)" font-family="Oswald" font-size="var(--dxf-big-font)" text-anchor="middle" transform="matrix(1 0 0 -1 5868.027 4313.413)">2.2</text><path d="M-31.823 14307.333h21240v-14540h-21240Z" style="stroke-width:var(--lw-1);stroke:transparent"/></g></svg>