<svg xmlns="http://www.w3.org/2000/svg" class="svg-drawing" height="14062.5mm" version="1.1" viewBox="1438.5748 -14374.9942 24080.5927 14362.5" width="23780.5927mm">
    <g transform="scale(1,-1)">
        
        <path d="M5238.5748,8014.9942 L5238.5748,1574.9942 L4738.5748,1574.9942 L4738.5748,14074.9942 L5238.5748,14074.9942 L5238.5748,8134.9942" style="stroke-width:var(--lw-6);" />
        
        <path d="M9738.5748,3074.9942 L9738.5748,1574.9942 L9238.5748,1574.9942" style="stroke-width:var(--lw-6);" />
        
        <path d="M9238.5748,14074.9942 L9738.5748,14074.9942 L9738.5748,13074.9942" style="stroke-width:var(--lw-6);" />
        
        <path d="M4738.5748,3074.9942 L1738.5748,3074.9942 L1738.5748,13074.9942 L4738.5748,13074.9942" style="stroke-width:var(--lw-5);" />
        
        <path d="M9738.5748,13074.9942 L10638.5748,13074.9942" style="stroke-width:var(--lw-6);" />
        
        <path d="M11638.5748,13074.9942 L12838.5748,13074.9942" style="stroke-width:var(--lw-6);" />
        
        <path d="M9358.5748,12574.9942 L10638.5748,12574.9942" style="stroke-width:var(--lw-6);" />
        
        <path d="M11638.5748,12574.9942 L12638.5748,12574.9942" style="stroke-width:var(--lw-6);" />
        
        <path d="M12638.5748,12574.9942 L12638.5748,9824.9942" style="stroke-width:var(--lw-6);" />
        
        <path d="M12638.5748,9574.9942 L12638.5748,6574.9942" style="stroke-width:var(--lw-6);" />
        
        <path d="M12638.5748,6324.9942 L12638.5748,5494.9942" style="stroke-width:var(--lw-6);" />
        
        <path d="M12638.5748,5374.9942 L12638.5748,3574.9942" style="stroke-width:var(--lw-6);" />
        
        <path d="M12638.5748,3074.9942 L12638.5748,1574.9942 L12838.5748,1574.9942" style="stroke-width:var(--lw-1);" />
        
        <path d="M6038.5748,3074.9942 L7238.5748,3074.9942" style="stroke-width:var(--lw-6);" />
        
        <path d="M9738.5748,3074.9942 L11138.5748,3074.9942" style="stroke-width:var(--lw-6);" />
        
        <path d="M11638.5748,3074.9942 L12838.5748,3074.9942" style="stroke-width:var(--lw-6);" />
        
        <path d="M6038.5748,3574.9942 L7238.5748,3574.9942" style="stroke-width:var(--lw-6);" />
        
        <path d="M9358.5748,3574.9942 L11138.5748,3574.9942" style="stroke-width:var(--lw-6);" />
        
        <path d="M11638.5748,3574.9942 L12638.5748,3574.9942" style="stroke-width:var(--lw-6);" />
        
        <path d="M10638.5748,9574.9942 L10638.5748,6574.9942" style="stroke-width:var(--lw-5);" />
        
        <path d="M10688.5748,7574.9942 L11638.5748,7574.9942" style="stroke-width:var(--lw-1);" />
        
        <path d="M11688.5748,7574.9942 L12638.5748,7574.9942" style="stroke-width:var(--lw-1);" />
        
        <path d="M10688.5748,8574.9942 L11638.5748,8574.9942" style="stroke-width:var(--lw-1);" />
        
        <path d="M11688.5748,8574.9942 L12638.5748,8574.9942" style="stroke-width:var(--lw-1);" />
        
        <path d="M11638.5748,9574.9942 L11638.5748,8624.9942" style="stroke-width:var(--lw-1);" />
        
        <path d="M11638.5748,8574.9942 L11638.5748,7574.9942" style="stroke-width:var(--lw-1);" />
        
        <path d="M11638.5748,7524.9942 L11638.5748,6574.9942" style="stroke-width:var(--lw-1);" />
        
        <path d="M10888.5748,9574.9942 L10888.5748,8624.9942" style="stroke-width:var(--lw-1);" />
        
        <path d="M10888.5748,7524.9942 L10888.5748,6574.9942" style="stroke-width:var(--lw-1);" />
        
        <path d="M11138.5748,9574.9942 L11138.5748,8624.9942" style="stroke-width:var(--lw-1);" />
        
        <path d="M11138.5748,7524.9942 L11138.5748,6574.9942" style="stroke-width:var(--lw-1);" />
        
        <path d="M11388.5748,9574.9942 L11388.5748,8624.9942" style="stroke-width:var(--lw-1);" />
        
        <path d="M11388.5748,7524.9942 L11388.5748,6574.9942" style="stroke-width:var(--lw-1);" />
        
        <path d="M11688.5748,8074.9942 L12638.5748,8074.9942" style="stroke-width:var(--lw-1);" />
        
        <path d="M11688.5748,8324.9942 L12638.5748,8324.9942" style="stroke-width:var(--lw-1);" />
        
        <path d="M11688.5748,7824.9942 L12638.5748,7824.9942" style="stroke-width:var(--lw-1);" />
        
        <path d="M11688.5748,8624.9942 L12638.5748,9574.9942" style="stroke-width:var(--lw-1);" />
        
        <path d="M11688.5748,7524.9942 L12638.5748,6574.9942" style="stroke-width:var(--lw-1);" />
        
        <path d="M10688.5748,8624.9942 L11688.5748,8624.9942 L11688.5748,7524.9942" style="stroke-width:var(--lw-1);" />
        
        <path d="M11688.5748,7524.9942 L10638.5748,7524.9942" style="stroke-width:var(--lw-1);" />
        
        <path d="M10688.5748,7574.9942 L10688.5748,9574.9942" style="stroke-width:var(--lw-1);" />
        
        <path d="M10888.5748,7199.9942 L10638.5748,7074.9942 L10888.5748,6949.9942" style="stroke-width:var(--lw-4);" />
        
        <path d="M10688.5748,9074.9942 L12138.5748,9074.9942 L12138.5748,7074.9942 L10638.5748,7074.9942" style="stroke-width:var(--lw-4);" />
        
        <path d="M12638.5748,6574.9942 L10638.5748,6574.9942" style="stroke-width:var(--lw-6);" />
        
        <path d="M9838.5748,6574.9942 L9358.5748,6574.9942" style="stroke-width:var(--lw-6);" />
        
        <path d="M12638.5748,6324.9942 L10858.5748,6324.9942" style="stroke-width:var(--lw-6);" />
        
        <path d="M10738.5748,6324.9942 L10638.5748,6324.9942" style="stroke-width:var(--lw-6);" />
        
        <path d="M9838.5748,6324.9942 L9358.5748,6324.9942" style="stroke-width:var(--lw-6);" />
        
        <path d="M12638.5748,9574.9942 L10638.5748,9574.9942" style="stroke-width:var(--lw-6);" />
        
        <path d="M9838.5748,9574.9942 L9358.5748,9574.9942" style="stroke-width:var(--lw-6);" />
        
        <path d="M12638.5748,9824.9942 L10638.5748,9824.9942" style="stroke-width:var(--lw-6);" />
        
        <path d="M9838.5748,9824.9942 L9358.5748,9824.9942" style="stroke-width:var(--lw-6);" />
        
        <path d="M9238.5748,14074.9942 L9238.5748,9474.9942" style="stroke-width:var(--lw-6);" />
        
        <path d="M9238.5748,8674.9942 L9238.5748,8134.9942" style="stroke-width:var(--lw-6);" />
        
        <path d="M9238.5748,8014.9942 L9238.5748,7474.9942" style="stroke-width:var(--lw-6);" />
        
        <path d="M9238.5748,6674.9942 L9238.5748,1574.9942" style="stroke-width:var(--lw-6);" />
        
        <path d="M9358.5748,12574.9942 L9358.5748,9824.9942" style="stroke-width:var(--lw-6);" />
        
        <path d="M9358.5748,9574.9942 L9358.5748,9474.9942" style="stroke-width:var(--lw-6);" />
        
        <path d="M9358.5748,8674.9942 L9358.5748,7474.9942" style="stroke-width:var(--lw-6);" />
        
        <path d="M9358.5748,6674.9942 L9358.5748,6574.9942" style="stroke-width:var(--lw-6);" />
        
        <path d="M9358.5748,6324.9942 L9358.5748,3574.9942" style="stroke-width:var(--lw-6);" />
        
        <path d="M10638.5748,6574.9942 L10638.5748,6324.9942" style="stroke-width:var(--lw-6);" />
        
        <path d="M9838.5748,6574.9942 L9838.5748,6324.9942" style="stroke-width:var(--lw-6);" />
        
        <path d="M10638.5748,9824.9942 L10638.5748,9574.9942" style="stroke-width:var(--lw-6);" />
        
        <path d="M9838.5748,9824.9942 L9838.5748,9574.9942" style="stroke-width:var(--lw-6);" />
        
        <path d="M9238.5748,8014.9942 L5238.5748,8014.9942" style="stroke-width:var(--lw-6);" />
        
        <path d="M9238.5748,8134.9942 L5238.5748,8134.9942" style="stroke-width:var(--lw-6);" />
        
        <path d="M9238.5748,9474.9942 L9358.5748,9474.9942" style="stroke-width:var(--lw-6);" />
        
        <path d="M9238.5748,8674.9942 L9358.5748,8674.9942" style="stroke-width:var(--lw-6);" />
        
        <path d="M9238.5748,6674.9942 L9358.5748,6674.9942" style="stroke-width:var(--lw-6);" />
        
        <path d="M9238.5748,7474.9942 L9358.5748,7474.9942" style="stroke-width:var(--lw-6);" />
        
        <path d="M10858.5748,6324.9942 L10858.5748,5374.9942" style="stroke-width:var(--lw-6);" />
        
        <path d="M10738.5748,6324.9942 L10738.5748,5374.9942" style="stroke-width:var(--lw-6);" />
        
        <path d="M10858.5748,5374.9942 L10738.5748,5374.9942" style="stroke-width:var(--lw-6);" />
        
        <path d="M11638.5748,12574.9942 L11638.5748,13074.9942" style="stroke-width:var(--lw-6);" />
        
        <path d="M10638.5748,12574.9942 L10638.5748,13074.9942" style="stroke-width:var(--lw-6);" />
        
        <path d="M11138.5748,3074.9942 L11138.5748,3574.9942" style="stroke-width:var(--lw-6);" />
        
        <path d="M11638.5748,3074.9942 L11638.5748,3574.9942" style="stroke-width:var(--lw-6);" />
        
        <path d="M6038.5748,3074.9942 L6038.5748,3574.9942" style="stroke-width:var(--lw-6);" />
        
        <path d="M7238.5748,3074.9942 L7238.5748,3574.9942" style="stroke-width:var(--lw-6);" />
        
        <path d="M6038.5748,13074.9942 L7238.5748,13074.9942" style="stroke-width:var(--lw-6);" />
        
        <path d="M6038.5748,12574.9942 L7238.5748,12574.9942" style="stroke-width:var(--lw-6);" />
        
        <path d="M6038.5748,13074.9942 L6038.5748,12574.9942" style="stroke-width:var(--lw-6);" />
        
        <path d="M7238.5748,13074.9942 L7238.5748,12574.9942" style="stroke-width:var(--lw-6);" />
        
        <path d="M5238.5748,13974.9942 L9238.5748,13974.9942" style="stroke-width:var(--lw-5);" />
        
        <path d="M5238.5748,13924.9942 L9238.5748,13924.9942" style="stroke-width:var(--lw-1);" />
        
        <path d="M5238.5748,1674.9942 L9238.5748,1674.9942" style="stroke-width:var(--lw-5);" />
        
        <path d="M5238.5748,1724.9942 L9238.5748,1724.9942" style="stroke-width:var(--lw-1);" />
        
        <path d="M10638.5748,13074.9942 L11638.5748,13074.9942" style="stroke-width:var(--lw-5);" />
        
        <path d="M10638.5748,12954.9942 L10718.5748,12954.9942 L10718.5748,12874.9942 L10638.5748,12874.9942 Z" style="stroke-width:var(--lw-1);" />
        
        <path d="M11638.5748,12874.9942 L10638.5748,12874.9942 L10638.5748,12954.9942 L11638.5748,12954.9942 Z" style="stroke-width:var(--lw-1);" />
        
        <path d="M11638.5748,12954.9942 L11558.5748,12954.9942 L11558.5748,12874.9942 L11638.5748,12874.9942 Z" style="stroke-width:var(--lw-1);" />
        
        <path d="M10718.5748,12914.9942 L11558.5748,12914.9942" style="stroke-width:var(--lw-1);" />
        
        <path d="M9838.5748,12574.9942 L9838.5748,9824.9942" style="stroke-width:var(--lw-3);" />
        
        <path d="M9838.5748,11674.9942 L9358.5748,11674.9942" style="stroke-width:var(--lw-3);" />
        
        <path d="M9838.5748,11674.9942 L9358.5748,12574.9942" style="stroke-width:var(--lw-3);" />
        
        <path d="M9358.5748,11674.9942 L9838.5748,12574.9942" style="stroke-width:var(--lw-3);" />
        
        <path d="M9838.5748,10724.9942 L9358.5748,10724.9942" style="stroke-width:var(--lw-3);" />
        
        <path d="M9838.5748,10724.9942 L9358.5748,9824.9942" style="stroke-width:var(--lw-3);" />
        
        <path d="M9358.5748,10724.9942 L9838.5748,9824.9942" style="stroke-width:var(--lw-3);" />
        
        <path d="M10988.5748,8205.8391 L11288.5748,8205.8391 L11288.5748,7905.8391 L10988.5748,7905.8391 Z" style="stroke-width:var(--lw-3);" />
        
        <path d="M10638.5748,9574.9942 L10588.5748,9574.9942 L10588.5748,9624.9942 L10638.5748,9624.9942 Z" style="stroke-width:var(--lw-1);" />
        
        <path d="M9888.5748,9574.9942 L9838.5748,9574.9942 L9838.5748,9624.9942 L9888.5748,9624.9942 Z" style="stroke-width:var(--lw-1);" />
        
        <path d="M9938.5748,9624.9942 L9888.5748,9624.9942 L9888.5748,10324.9942 L9938.5748,10324.9942 Z" style="stroke-width:var(--lw-1);" />
        
        <path d="M10588.5748,9624.9942 A700,700 0 0,1 9888.5748,10324.9942" style="stroke-width:var(--lw-1);stroke-dasharray:0.3175,0.1588;stroke-dashoffset:0.2107" />
        
        <path d="M10638.5748,6574.9942 L10588.5748,6574.9942 L10588.5748,6524.9942 L10638.5748,6524.9942 Z" style="stroke-width:var(--lw-1);" />
        
        <path d="M9888.5748,6574.9942 L9838.5748,6574.9942 L9838.5748,6524.9942 L9888.5748,6524.9942 Z" style="stroke-width:var(--lw-1);" />
        
        <path d="M9938.5748,6524.9942 L9888.5748,6524.9942 L9888.5748,5824.9942 L9938.5748,5824.9942 Z" style="stroke-width:var(--lw-1);" />
        
        <path d="M9888.5748,5824.9942 A700,700 0 0,1 10588.5748,6524.9942" style="stroke-width:var(--lw-1);stroke-dasharray:0.3175,0.1588;stroke-dashoffset:0.2107" />
        
        <path d="M9358.5748,6674.9942 L9358.5748,6724.9942 L9308.5748,6724.9942 L9308.5748,6674.9942 Z" style="stroke-width:var(--lw-1);" />
        
        <path d="M9358.5748,7424.9942 L9358.5748,7474.9942 L9308.5748,7474.9942 L9308.5748,7424.9942 Z" style="stroke-width:var(--lw-1);" />
        
        <path d="M9308.5748,7374.9942 L9308.5748,7424.9942 L8608.5748,7424.9942 L8608.5748,7374.9942 Z" style="stroke-width:var(--lw-1);" />
        
        <path d="M8608.5748,7424.9942 A700,700 0 0,1 9308.5748,6724.9942" style="stroke-width:var(--lw-1);stroke-dasharray:0.3175,0.1588;stroke-dashoffset:0.2107" />
        
        <path d="M9358.5748,9474.9942 L9358.5748,9424.9942 L9308.5748,9424.9942 L9308.5748,9474.9942 Z" style="stroke-width:var(--lw-1);" />
        
        <path d="M9358.5748,8724.9942 L9358.5748,8674.9942 L9308.5748,8674.9942 L9308.5748,8724.9942 Z" style="stroke-width:var(--lw-1);" />
        
        <path d="M9308.5748,8774.9942 L9308.5748,8724.9942 L8608.5748,8724.9942 L8608.5748,8774.9942 Z" style="stroke-width:var(--lw-1);" />
        
        <path d="M9308.5748,9424.9942 A700,700 0 0,1 8608.5748,8724.9942" style="stroke-width:var(--lw-1);stroke-dasharray:0.3175,0.1588;stroke-dashoffset:0.2107" />
        
        <path d="M9238.5748,8634.9942 L5238.5748,8634.9942" style="stroke-width:var(--lw-3);" />
        
        <path d="M6238.5748,8634.9942 L6238.5748,8134.9942" style="stroke-width:var(--lw-3);" />
        
        <path d="M7238.5748,8634.9942 L7238.5748,8134.9942" style="stroke-width:var(--lw-3);" />
        
        <path d="M8238.5748,8634.9942 L8238.5748,8134.9942" style="stroke-width:var(--lw-3);" />
        
        <path d="M9238.5748,8634.9942 L8238.5748,8134.9942" style="stroke-width:var(--lw-3);" />
        
        <path d="M9238.5748,8134.9942 L8238.5748,8634.9942" style="stroke-width:var(--lw-3);" />
        
        <path d="M8238.5748,8634.9942 L7238.5748,8134.9942" style="stroke-width:var(--lw-3);" />
        
        <path d="M8238.5748,8134.9942 L7238.5748,8634.9942" style="stroke-width:var(--lw-3);" />
        
        <path d="M7238.5748,8634.9942 L6238.5748,8134.9942" style="stroke-width:var(--lw-3);" />
        
        <path d="M7238.5748,8134.9942 L6238.5748,8634.9942" style="stroke-width:var(--lw-3);" />
        
        <path d="M6238.5748,8634.9942 L5238.5748,8134.9942" style="stroke-width:var(--lw-3);" />
        
        <path d="M6238.5748,8134.9942 L5238.5748,8634.9942" style="stroke-width:var(--lw-3);" />
        
        <path d="M9238.5748,7514.9942 L5238.5748,7514.9942" style="stroke-width:var(--lw-3);" />
        
        <path d="M6238.5748,7514.9942 L6238.5748,8014.9942" style="stroke-width:var(--lw-3);" />
        
        <path d="M7238.5748,7514.9942 L7238.5748,8014.9942" style="stroke-width:var(--lw-3);" />
        
        <path d="M8238.5748,7514.9942 L8238.5748,8014.9942" style="stroke-width:var(--lw-3);" />
        
        <path d="M9238.5748,7514.9942 L8238.5748,8014.9942" style="stroke-width:var(--lw-3);" />
        
        <path d="M9238.5748,8014.9942 L8238.5748,7514.9942" style="stroke-width:var(--lw-3);" />
        
        <path d="M8238.5748,7514.9942 L7238.5748,8014.9942" style="stroke-width:var(--lw-3);" />
        
        <path d="M8238.5748,8014.9942 L7238.5748,7514.9942" style="stroke-width:var(--lw-3);" />
        
        <path d="M7238.5748,7514.9942 L6238.5748,8014.9942" style="stroke-width:var(--lw-3);" />
        
        <path d="M7238.5748,8014.9942 L6238.5748,7514.9942" style="stroke-width:var(--lw-3);" />
        
        <path d="M6238.5748,7514.9942 L5238.5748,8014.9942" style="stroke-width:var(--lw-3);" />
        
        <path d="M6238.5748,8014.9942 L5238.5748,7514.9942" style="stroke-width:var(--lw-3);" />
        
        <path d="M9838.5748,10724.9942 L9358.5748,11674.9942" style="stroke-width:var(--lw-3);" />
        
        <path d="M9358.5748,10724.9942 L9838.5748,11674.9942" style="stroke-width:var(--lw-3);" />
        
        <path d="M12464.576,10424.9942 L12464.576,10037.1621 L11806.4083,10037.1621 L11806.4083,10424.9942 Z" style="stroke-width:var(--lw-3);" />
        
        <path d="M12000.5871,10519.7211 L12608.5748,11058.6988 L12000.5871,11058.6988 Z" style="stroke-width:var(--lw-3);" />
        
        <line style="stroke-width:var(--lw-3);" x1="11668.5748" x2="11668.5748" y1="12044.9942" y2="10004.9942" />
        
        <line style="stroke-width:var(--lw-3);" x1="12608.5748" x2="12608.5748" y1="12044.9942" y2="10004.9942" />
        
        <line style="stroke-width:var(--lw-3);" x1="12608.5748" x2="11668.5748" y1="10004.9942" y2="10004.9942" />
        
        <line style="stroke-width:var(--lw-3);" x1="11668.5748" x2="12608.5748" y1="12044.9942" y2="12044.9942" />
        
        <path d="M12000.5871,10519.7211 L11668.5748,10519.7211" style="stroke-width:var(--lw-3);" />
        
        <path d="M11638.5748,12074.9942 L12638.5748,12074.9942 L12638.5748,9824.9942 L11638.5748,9824.9942 Z" style="stroke-width:var(--lw-3);" />
        
        <path d="M12638.5748,12074.9942 L9838.5748,12074.9942" style="stroke-width:var(--lw-3);" />
        
        <path d="M10638.5748,12574.9942 L11638.5748,12574.9942" style="stroke-width:var(--lw-3);" />
        
        <path d="M10938.5748,12074.9942 L10938.5748,11774.9942 L11388.5748,11774.9942 L11388.5748,12074.9942" style="stroke-width:var(--lw-3);" />
        
        <path d="M10938.5748,12074.9942 L10938.5748,11824.9942 L11388.5748,11824.9942 L11388.5748,12074.9942" style="stroke-width:var(--lw-3);" />
        
        <path d="M12588.5748,12424.9942 L12588.5748,12374.9942 L11688.5748,12374.9942 L11688.5748,12424.9942 Z" style="stroke-width:var(--lw-3);" />
        
        <path d="M12488.5748,12474.9942 L12488.5748,12424.9942 L11788.5748,12424.9942 L11788.5748,12474.9942 Z" style="stroke-width:var(--lw-3);" />
        
        <path d="M11891.0874,12177.5068 L12138.5748,12424.9942 L12456.7728,12106.7961" style="stroke-width:var(--lw-3);" />
        
        <path d="M11038.5748,10174.9942 L11038.5748,9824.9942 L11538.5748,9824.9942 L11538.5748,10174.9942 Z" style="stroke-width:var(--lw-3);" />
        
        <path d="M9808.5748,6324.9942 L9808.5748,3574.9942" style="stroke-width:var(--lw-3);" />
        
        <path d="M12638.5748,5374.9942 L11738.5748,5374.9942 L11738.5748,5494.9942 L12638.5748,5494.9942" style="stroke-width:var(--lw-6);" />
        
        <g>
            
            <line style="stroke-width:var(--lw-3);" x1="11910.5736" x2="11983.0962" y1="3993.6881" y2="4987.9942" />
            
            <line style="stroke-width:var(--lw-3);" x1="12467.5748" x2="12467.5748" y1="3990.0686" y2="4987.9942" />
            
            <path d="M11972.7964,4141.4962 A233.072,233.072 0 0,1 12418.9915,4146.0965" style="stroke-width:var(--lw-3);" />
            
            <line style="stroke-width:var(--lw-3);" x1="12503.5748" x2="12503.5748" y1="3799.9942" y2="5149.9942" />
            
            <line style="stroke-width:var(--lw-3);" x1="11873.5748" x2="11873.5748" y1="3799.9942" y2="5149.9942" />
            
            <path d="M11913.4035,3963.8411 A284.8838,284.8838 0 0,1 12464.8575,3968.1206" style="stroke-width:var(--lw-3);" />
            
            <line style="stroke-width:var(--lw-3);" x1="11963.5748" x2="12413.5748" y1="3709.9942" y2="3709.9942" />
            
            <path d="M11873.5748,3799.9942 A90,90 0 0,1 11963.5748,3709.9942" style="stroke-width:var(--lw-3);" />
            
            <path d="M11910.5736,3993.6881 A90,90 0 0,1 11913.4035,3963.8411" style="stroke-width:var(--lw-3);" />
            
            <path d="M12413.5748,3709.9942 A90,90 0 0,1 12503.5748,3799.9942" style="stroke-width:var(--lw-3);" />
            
            <path d="M12464.8575,3968.1206 A90,90 0 0,1 12467.5748,3990.0686" style="stroke-width:var(--lw-3);" />
            
            <path d="M12411.1797,5006.1438 A212.7854,212.7854 0 0,1 12036.4548,5000.5004" style="stroke-width:var(--lw-3);" />
            
            <path d="M12467.5748,4987.9942 A245.2386,245.2386 0 0,1 11983.0962,4987.9942" style="stroke-width:var(--lw-3);" />
            
            <line style="stroke-width:var(--lw-3);" x1="11963.5748" x2="12413.5748" y1="5239.9942" y2="5239.9942" />
            
            <path d="M12224.5748,5194.9942 A277.4233,277.4233 0 0,1 11909.5748,4924.9942" style="stroke-width:var(--lw-3);" />
            
            <line style="stroke-width:var(--lw-3);" x1="11968.9148" x2="12026.5825" y1="4174.962" y2="4965.6022" />
            
            <path d="M11968.9148,4174.962 A90,90 0 0,1 11972.7964,4141.4962" style="stroke-width:var(--lw-3);" />
            
            <line style="stroke-width:var(--lw-3);" x1="11909.5748" x2="11909.5748" y1="4707.9809" y2="4924.9942" />
            
            <line style="stroke-width:var(--lw-3);" x1="11910.2124" x2="11962.0901" y1="4699.9942" y2="4699.9942" />
            
            <path d="M11909.5748,4708.749 A55.1471,55.1471 0 0,1 11950.8365,4654.9942" style="stroke-width:var(--lw-3);" />
            
            <line style="stroke-width:var(--lw-3);" x1="11950.8365" x2="11958.8079" y1="4654.9942" y2="4654.9942" />
            
            <line style="stroke-width:var(--lw-3);" x1="11909.5748" x2="11965.3723" y1="4744.9942" y2="4744.9942" />
            
            <line style="stroke-width:var(--lw-3);" x1="11909.5748" x2="11968.6545" y1="4789.9942" y2="4789.9942" />
            
            <line style="stroke-width:var(--lw-3);" x1="11909.5748" x2="11971.9367" y1="4834.9942" y2="4834.9942" />
            
            <line style="stroke-width:var(--lw-3);" x1="11909.5748" x2="11978.5011" y1="4924.9942" y2="4924.9942" />
            
            <line style="stroke-width:var(--lw-3);" x1="11909.5748" x2="11975.2189" y1="4879.9942" y2="4879.9942" />
            
            <path d="M12036.4548,5000.5004 A90,90 0 0,1 12026.5825,4965.6022" style="stroke-width:var(--lw-3);" />
            
            <circle cx="12224.5748" cy="4987.9942" r="22.5" style="stroke-width:var(--lw-3);" />
            
            <circle cx="12224.5748" cy="4987.9942" r="18" style="stroke-width:var(--lw-3);" />
            
            <path d="M11963.5748,5239.9942 A90,90 0 0,1 11873.5748,5149.9942" style="stroke-width:var(--lw-3);" />
            
            <path d="M12253.8315,5165.2061 A28.2361,4.7487 360 0 1 12197.3593,5165.2061" style="stroke-width:var(--lw-3);" />
            
            <line style="stroke-width:var(--lw-3);" x1="12253.8315" x2="12253.8315" y1="5160.9815" y2="5165.2061" />
            
            <line style="stroke-width:var(--lw-3);" x1="12197.3593" x2="12197.3593" y1="5160.9815" y2="5165.2061" />
            
            <ellipse rx="28.2361" ry="4.7487" style="stroke-width:var(--lw-3);" transform="translate(12225.5954 5160.9815) rotate(360)" />
            
            <line style="stroke-width:var(--lw-3);" x1="12422.5748" x2="12422.5748" y1="4171.2389" y2="4962.3116" />
            
            <path d="M12418.9915,4146.0965 A90,90 0 0,1 12422.5748,4171.2389" style="stroke-width:var(--lw-3);" />
            
            <path d="M12422.5748,4962.3116 A90,90 0 0,1 12411.1797,5006.1438" style="stroke-width:var(--lw-3);" />
            
            <path d="M12503.5748,5149.9942 A90,90 0 0,1 12413.5748,5239.9942" style="stroke-width:var(--lw-3);" />
        </g>
        
        <path d="M11738.5748,5374.9942 L11738.5748,3574.9942" style="stroke-width:var(--lw-3);" />
        
        <path d="M12453.5748,5494.9942 L12453.5748,6324.9942" style="stroke-width:var(--lw-3);" />
        
        <g>
            
            <line style="stroke-width:var(--lw-3);" x1="12588.5748" x2="12221.0748" y1="5727.4942" y2="5727.4942" />
            
            <line style="stroke-width:var(--lw-3);" x1="12413.5748" x2="12221.0748" y1="5767.4942" y2="5767.4942" />
            
            <line style="stroke-width:var(--lw-3);" x1="12221.0748" x2="12588.5748" y1="6092.4942" y2="6092.4942" />
            
            <line style="stroke-width:var(--lw-3);" x1="12221.0748" x2="12413.5748" y1="6052.4942" y2="6052.4942" />
            
            <line style="stroke-width:var(--lw-3);" x1="12638.5748" x2="12638.5748" y1="6042.4942" y2="5777.4942" />
            
            <path d="M12638.5748,5777.4942 A50,50 0 0,0 12588.5748,5727.4942" style="stroke-width:var(--lw-3);" />
            
            <path d="M12588.5748,6092.4942 A50,50 0 0,0 12638.5748,6042.4942" style="stroke-width:var(--lw-3);" />
            
            <line style="stroke-width:var(--lw-3);" x1="12453.5748" x2="12453.5748" y1="6042.4942" y2="5777.4942" />
            
            <line style="stroke-width:var(--lw-3);" x1="12413.5748" x2="12413.5748" y1="6052.4942" y2="5767.4942" />
            
            <path d="M12453.5748,6042.4942 A50,50 0 0,0 12503.5748,6092.4942" style="stroke-width:var(--lw-3);" />
            
            <path d="M12221.0748,5727.4942 A182.5,182.5 0 0,0 12221.0748,6092.4942" style="stroke-width:var(--lw-3);" />
            
            <path d="M12221.0748,5767.4942 A142.5,142.5 0 0,0 12221.0748,6052.4942" style="stroke-width:var(--lw-3);" />
            
            <line style="stroke-width:var(--lw-3);" x1="12588.5748" x2="12503.5748" y1="5727.4942" y2="5727.4942" />
            
            <path d="M12503.5748,5727.4942 A50,50 0 0,0 12453.5748,5777.4942" style="stroke-width:var(--lw-3);" />
            
            <line style="stroke-width:var(--lw-3);" x1="12503.5748" x2="12588.5748" y1="6092.4942" y2="6092.4942" />
            
            <path d="M12386.6994,5947.7661 L12315.1155,5947.7661 L12315.1155,5872.2223 L12386.6994,5872.2223 Z" style="stroke-width:var(--lw-3);" />
            
            <circle cx="12543.9468" cy="5909.9942" r="21.3514" style="stroke-width:var(--lw-3);" />
        </g>
        
        <path d="M9808.5748,5374.9942 L9358.5748,5374.9942" style="stroke-width:var(--lw-3);" />
        
        <path d="M9358.5748,6324.9942 L9808.5748,5374.9942" style="stroke-width:var(--lw-3);" />
        
        <path d="M9808.5748,6324.9942 L9358.5748,5374.9942" style="stroke-width:var(--lw-3);" />
        
        <line style="stroke-width:var(--lw-3);" x1="9577.25" x2="9577.25" y1="4868.392" y2="4898.8642" />
        
        <line style="stroke-width:var(--lw-3);" x1="9758.5748" x2="9758.5748" y1="5024.9942" y2="4724.9942" />
        
        <path d="M9658.5748,4624.9942 A100,100 0 0,1 9758.5748,4724.9942" style="stroke-width:var(--lw-3);" />
        
        <path d="M9483.5748,4724.9942 A100,100 0 0,1 9583.5748,4624.9942" style="stroke-width:var(--lw-3);" />
        
        <line style="stroke-width:var(--lw-3);" x1="9483.5748" x2="9483.5748" y1="4898.8642" y2="5024.9942" />
        
        <line style="stroke-width:var(--lw-3);" x1="9422.528" x2="9577.25" y1="4868.3921" y2="4868.392" />
        
        <line style="stroke-width:var(--lw-3);" x1="9577.25" x2="9422.528" y1="4898.8642" y2="4898.8643" />
        
        <line style="stroke-width:var(--lw-3);" x1="9422.528" x2="9422.528" y1="4898.8643" y2="4868.3921" />
        
        <line style="stroke-width:var(--lw-3);" x1="9658.5748" x2="9583.5748" y1="4624.9942" y2="4624.9942" />
        
        <line style="stroke-width:var(--lw-3);" x1="9483.5748" x2="9483.5748" y1="4724.9942" y2="4868.392" />
        
        <line style="stroke-width:var(--lw-3);" x1="9658.5748" x2="9583.5748" y1="5124.9942" y2="5124.9942" />
        
        <path d="M9758.5748,5024.9942 A100,100 0 0,1 9658.5748,5124.9942" style="stroke-width:var(--lw-3);" />
        
        <path d="M9583.5748,5124.9942 A100,100 0 0,1 9483.5748,5024.9942" style="stroke-width:var(--lw-3);" />
        
        <line style="stroke-width:var(--lw-3);" x1="9577.25" x2="9577.25" y1="4081.5963" y2="4051.1241" />
        
        <line style="stroke-width:var(--lw-3);" x1="9758.5748" x2="9758.5748" y1="3924.9942" y2="4224.9942" />
        
        <path d="M9758.5748,4224.9942 A100,100 0 0,1 9658.5748,4324.9942" style="stroke-width:var(--lw-3);" />
        
        <path d="M9583.5748,4324.9942 A100,100 0 0,1 9483.5748,4224.9942" style="stroke-width:var(--lw-3);" />
        
        <line style="stroke-width:var(--lw-3);" x1="9483.5748" x2="9483.5748" y1="4051.1241" y2="3924.9942" />
        
        <line style="stroke-width:var(--lw-3);" x1="9422.528" x2="9577.25" y1="4081.5963" y2="4081.5963" />
        
        <line style="stroke-width:var(--lw-3);" x1="9577.25" x2="9422.528" y1="4051.1241" y2="4051.1241" />
        
        <line style="stroke-width:var(--lw-3);" x1="9422.528" x2="9422.528" y1="4051.1241" y2="4081.5963" />
        
        <line style="stroke-width:var(--lw-3);" x1="9658.5748" x2="9583.5748" y1="4324.9942" y2="4324.9942" />
        
        <line style="stroke-width:var(--lw-3);" x1="9483.5748" x2="9483.5748" y1="4224.9942" y2="4081.5963" />
        
        <line style="stroke-width:var(--lw-3);" x1="9658.5748" x2="9583.5748" y1="3824.9942" y2="3824.9942" />
        
        <path d="M9658.5748,3824.9942 A100,100 0 0,1 9758.5748,3924.9942" style="stroke-width:var(--lw-3);" />
        
        <path d="M9483.5748,3924.9942 A100,100 0 0,1 9583.5748,3824.9942" style="stroke-width:var(--lw-3);" />
        
        <path d="M9408.5748,5374.9942 L9408.5748,3574.9942" style="stroke-width:var(--lw-3);" />
        
        <path d="M7188.5748,6374.9942 L7188.5748,4874.9942 L5338.5748,4874.9942 L5338.5748,6374.9942 Z" style="stroke-width:var(--lw-3);" />
        
        <path d="M7238.5748,6424.9942 L7238.5748,4824.9942 L5238.5748,4824.9942 L5238.5748,6424.9942 Z" style="stroke-width:var(--lw-3);" />
        
        <path d="M5638.5748,6974.9942 L5638.5748,6474.9942 L5238.5748,6474.9942 L5238.5748,6974.9942 Z" style="stroke-width:var(--lw-3);" />
        
        <path d="M7238.5748,6424.9942 L7238.5748,4824.9942 L5338.5748,4824.9942 L5338.5748,6424.9942 Z" style="stroke-width:var(--lw-3);" />
        
        <path d="M5638.5748,4274.9942 L5638.5748,4774.9942 L5238.5748,4774.9942 L5238.5748,4274.9942 Z" style="stroke-width:var(--lw-3);" />
        
        <path d="M5388.5748,6296.5771 L5776.4068,6296.5771 L5776.4068,5738.4095 L5388.5748,5738.4095 Z" style="stroke-width:var(--lw-3);" />
        
        <path d="M5388.5748,4953.4112 L5776.4068,4953.4112 L5776.4068,5511.5789 L5388.5748,5511.5789 Z" style="stroke-width:var(--lw-3);" />
        
        <path d="M9238.5748,6424.9942 L8788.5748,6424.9942 L8788.5748,3574.9942 L9238.5748,3574.9942 Z" style="stroke-width:var(--lw-3);" />
        
        <path d="M8992.0212,4917.0332 L8992.0212,6311.9236 L9052.0603,6311.9236 L9052.0603,4917.0332 Z" style="stroke-width:var(--lw-3);" />
        
        <path d="M9052.0603,5067.2532 L9052.0603,6182.7352 L9106.0955,6182.7352 L9106.0955,5067.2532 Z" style="stroke-width:var(--lw-3);" />
        
        <path d="M8391.6313,5015.1038 L9052.0603,5624.9942 L8661.8067,5967.4941" style="stroke-width:var(--lw-3);" />
        
        <path d="M8788.5748,4324.9942 L8488.5748,4324.9942 L8488.5748,3874.9942 L8788.5748,3874.9942" style="stroke-width:var(--lw-3);" />
        
        <path d="M8788.5748,4324.9942 L8538.5748,4324.9942 L8538.5748,3874.9942 L8788.5748,3874.9942" style="stroke-width:var(--lw-3);" />
        
        <path d="M11638.5748,3074.9942 L11138.5748,3074.9942" style="stroke-width:var(--lw-5);" />
        
        <path d="M11638.5748,3194.9942 L11558.5748,3194.9942 L11558.5748,3274.9942 L11638.5748,3274.9942 Z" style="stroke-width:var(--lw-1);" />
        
        <path d="M11138.5748,3274.9942 L11638.5748,3274.9942 L11638.5748,3194.9942 L11138.5748,3194.9942 Z" style="stroke-width:var(--lw-1);" />
        
        <path d="M11138.5748,3194.9942 L11218.5748,3194.9942 L11218.5748,3274.9942 L11138.5748,3274.9942 Z" style="stroke-width:var(--lw-1);" />
        
        <path d="M11558.5748,3234.9942 L11218.5748,3234.9942" style="stroke-width:var(--lw-1);" />
        
        <path d="M6038.5748,3194.9942 L5958.5748,3194.9942 L5958.5748,3274.9942 L6038.5748,3274.9942 Z" style="stroke-width:var(--lw-1);" />
        
        <path d="M5238.5748,3274.9942 L6038.5748,3274.9942 L6038.5748,3194.9942 L5238.5748,3194.9942 Z" style="stroke-width:var(--lw-1);" />
        
        <path d="M5238.5748,3194.9942 L5318.5748,3194.9942 L5318.5748,3274.9942 L5238.5748,3274.9942 Z" style="stroke-width:var(--lw-1);" />
        
        <path d="M5958.5748,3234.9942 L5318.5748,3234.9942" style="stroke-width:var(--lw-1);" />
        
        <path d="M9238.5748,3194.9942 L9158.5748,3194.9942 L9158.5748,3274.9942 L9238.5748,3274.9942 Z" style="stroke-width:var(--lw-1);" />
        
        <path d="M8138.5748,3274.9942 L9238.5748,3274.9942 L9238.5748,3194.9942 L8138.5748,3194.9942 Z" style="stroke-width:var(--lw-1);" />
        
        <path d="M8138.5748,3194.9942 L8218.5748,3194.9942 L8218.5748,3274.9942 L8138.5748,3274.9942 Z" style="stroke-width:var(--lw-1);" />
        
        <path d="M9158.5748,3234.9942 L8218.5748,3234.9942" style="stroke-width:var(--lw-1);" />
        
        <path d="M8138.5748,3194.9942 L8088.5748,3194.9942 L8088.5748,3274.9942 L8138.5748,3274.9942 Z" style="stroke-width:var(--lw-1);" />
        
        <path d="M7288.5748,3194.9942 L7238.5748,3194.9942 L7238.5748,3274.9942 L7288.5748,3274.9942 Z" style="stroke-width:var(--lw-1);" />
        
        <path d="M7338.5748,3274.9942 L7288.5748,3274.9942 L7288.5748,4074.9942 L7338.5748,4074.9942 Z" style="stroke-width:var(--lw-1);" />
        
        <path d="M8088.5748,3274.9942 A800,800 0 0,1 7288.5748,4074.9942" style="stroke-width:var(--lw-1);stroke-dasharray:0.3175,0.1588;stroke-dashoffset:0.014" />
        
        <path d="M7188.5748,9774.9942 L7188.5748,11274.9942 L5338.5748,11274.9942 L5338.5748,9774.9942 Z" style="stroke-width:var(--lw-3);" />
        
        <path d="M7238.5748,9724.9942 L7238.5748,11324.9942 L5238.5748,11324.9942 L5238.5748,9724.9942 Z" style="stroke-width:var(--lw-3);" />
        
        <path d="M5638.5748,9174.9942 L5638.5748,9674.9942 L5238.5748,9674.9942 L5238.5748,9174.9942 Z" style="stroke-width:var(--lw-3);" />
        
        <path d="M7238.5748,9724.9942 L7238.5748,11324.9942 L5338.5748,11324.9942 L5338.5748,9724.9942 Z" style="stroke-width:var(--lw-3);" />
        
        <path d="M5638.5748,11874.9942 L5638.5748,11374.9942 L5238.5748,11374.9942 L5238.5748,11874.9942 Z" style="stroke-width:var(--lw-3);" />
        
        <path d="M5388.5748,9853.4112 L5776.4068,9853.4112 L5776.4068,10411.5789 L5388.5748,10411.5789 Z" style="stroke-width:var(--lw-3);" />
        
        <path d="M5388.5748,11196.5771 L5776.4068,11196.5771 L5776.4068,10638.4095 L5388.5748,10638.4095 Z" style="stroke-width:var(--lw-3);" />
        
        <path d="M9238.5748,9724.9942 L8788.5748,9724.9942 L8788.5748,12574.9942 L9238.5748,12574.9942 Z" style="stroke-width:var(--lw-3);" />
        
        <path d="M8992.0212,11232.9551 L8992.0212,9838.0648 L9052.0603,9838.0648 L9052.0603,11232.9551 Z" style="stroke-width:var(--lw-3);" />
        
        <path d="M9052.0603,11082.7352 L9052.0603,9967.2532 L9106.0955,9967.2532 L9106.0955,11082.7352 Z" style="stroke-width:var(--lw-3);" />
        
        <path d="M8391.6313,11134.8846 L9052.0603,10524.9942 L8661.8067,10182.4942" style="stroke-width:var(--lw-3);" />
        
        <path d="M8788.5748,11824.9942 L8488.5748,11824.9942 L8488.5748,12274.9942 L8788.5748,12274.9942" style="stroke-width:var(--lw-3);" />
        
        <path d="M8788.5748,11824.9942 L8538.5748,11824.9942 L8538.5748,12274.9942 L8788.5748,12274.9942" style="stroke-width:var(--lw-3);" />
        
        <path d="M6038.5748,12954.9942 L5958.5748,12954.9942 L5958.5748,12874.9942 L6038.5748,12874.9942 Z" style="stroke-width:var(--lw-1);" />
        
        <path d="M5238.5748,12874.9942 L6038.5748,12874.9942 L6038.5748,12954.9942 L5238.5748,12954.9942 Z" style="stroke-width:var(--lw-1);" />
        
        <path d="M5238.5748,12954.9942 L5318.5748,12954.9942 L5318.5748,12874.9942 L5238.5748,12874.9942 Z" style="stroke-width:var(--lw-1);" />
        
        <path d="M5958.5748,12914.9942 L5318.5748,12914.9942" style="stroke-width:var(--lw-1);" />
        
        <path d="M9238.5748,12954.9942 L9158.5748,12954.9942 L9158.5748,12874.9942 L9238.5748,12874.9942 Z" style="stroke-width:var(--lw-1);" />
        
        <path d="M8138.5748,12874.9942 L9238.5748,12874.9942 L9238.5748,12954.9942 L8138.5748,12954.9942 Z" style="stroke-width:var(--lw-1);" />
        
        <path d="M8138.5748,12954.9942 L8218.5748,12954.9942 L8218.5748,12874.9942 L8138.5748,12874.9942 Z" style="stroke-width:var(--lw-1);" />
        
        <path d="M9158.5748,12914.9942 L8218.5748,12914.9942" style="stroke-width:var(--lw-1);" />
        
        <path d="M8138.5748,12954.9942 L8088.5748,12954.9942 L8088.5748,12874.9942 L8138.5748,12874.9942 Z" style="stroke-width:var(--lw-1);" />
        
        <path d="M7288.5748,12954.9942 L7238.5748,12954.9942 L7238.5748,12874.9942 L7288.5748,12874.9942 Z" style="stroke-width:var(--lw-1);" />
        
        <path d="M7338.5748,12874.9942 L7288.5748,12874.9942 L7288.5748,12074.9942 L7338.5748,12074.9942 Z" style="stroke-width:var(--lw-1);" />
        
        <path d="M7288.5748,12074.9942 A800,800 0 0,1 8088.5748,12874.9942" style="stroke-width:var(--lw-1);stroke-dasharray:0.3175,0.1588;stroke-dashoffset:0.014" />
        
        <g>
            
            <path d="M9115.7019,2527.6636 L8935.3303,2765.2479" style="stroke-width:var(--lw-3);" />
            
            <path d="M8636.7905,2806.1141 L8310.9606,2558.7474" style="stroke-width:var(--lw-3);" />
            
            <path d="M8286.4409,2379.6235 L8569.8818,2006.2768" style="stroke-width:var(--lw-3);" />
            
            <path d="M8749.0058,1981.757 L9074.8356,2229.1237" style="stroke-width:var(--lw-3);" />
            
            <path d="M9115.7019,2527.6636 L8935.3303,2765.2479 A213.068,213.068 0 0 0 8636.7905,2806.1141 L8310.9606,2558.7474 A127.841,127.841 0 0 0 8286.4409,2379.6235 L8569.8818,2006.2768 A127.841,127.841 0 0 0 8749.0058,1981.757 L9074.8356,2229.1237 A213.068,213.068 0 0 0 9115.7019,2527.6636" style="stroke-width:var(--lw-3);" />
            
            <path d="M8911.9207,2105.4404 L8899.037,2122.4107 A63.9205,63.9205 0 0 1 8911.2969,2211.9726 L9023.3009,2297.0049 A127.841,127.841 0 0 0 9047.8206,2476.1289 L8867.4491,2713.7131 A127.841,127.841 0 0 0 8688.3252,2738.2329 L8576.3212,2653.2006 A63.9205,63.9205 0 0 1 8486.7592,2665.4604 L8473.8755,2682.4308" style="stroke-width:var(--lw-3);" />
        </g>
        
        <g>
            
            <path d="M5955.7594,2520.5008 L5883.6876,2231.0429" style="stroke-width:var(--lw-3);" />
            
            <path d="M6038.9634,1972.8075 L6435.9341,1873.9662" style="stroke-width:var(--lw-3);" />
            
            <path d="M6590.8754,1967.1317 L6704.131,2421.994" style="stroke-width:var(--lw-3);" />
            
            <path d="M6610.9656,2576.9352 L6213.9948,2675.7765" style="stroke-width:var(--lw-3);" />
            
            <path d="M5955.7594,2520.5008 L5883.6876,2231.0429 A213.068,213.068 0 0 0 6038.9634,1972.8075 L6435.9341,1873.9662 A127.841,127.841 0 0 0 6590.8754,1967.1317 L6704.131,2421.994 A127.841,127.841 0 0 0 6610.9656,2576.9352 L6213.9948,2675.7765 A213.068,213.068 0 0 0 5955.7594,2520.5008" style="stroke-width:var(--lw-3);" />
            
            <path d="M6412.4802,2626.3559 L6407.3322,2605.6803 A63.9205,63.9205 0 0 1 6329.8616,2559.0976 L6193.4029,2593.0743 A127.841,127.841 0 0 0 6038.4616,2499.9088 L5966.3899,2210.451 A127.841,127.841 0 0 0 6059.5553,2055.5097 L6196.014,2021.533 A63.9205,63.9205 0 0 1 6242.5968,1944.0624 L6237.4488,1923.3869" style="stroke-width:var(--lw-3);" />
        </g>
        
        <text dx="0" dy="200" fill="var(--text-color)" font-size="var(--dxf-big-font)" line-height="1.1" text-anchor="middle" transform="translate(9984.5103,8123.8902) translate(0,100) scale(1,-1)" x="0" y="0">3.8</text>
        
        <text dx="0" dy="200" fill="var(--text-color)" font-size="var(--dxf-big-font)" line-height="1.1" text-anchor="middle" transform="translate(10768.0453,11096.3894) translate(0,100) scale(1,-1)" x="0" y="0">9.0</text>
        
        <text dx="0" dy="200" fill="var(--text-color)" font-size="var(--dxf-big-font)" line-height="1.1" text-anchor="middle" transform="translate(10793.1804,4717.0091) translate(0,100) scale(1,-1)" x="0" y="0">9.0</text>
        
        <text dx="0" dy="200" fill="var(--text-color)" font-size="var(--dxf-big-font)" line-height="1.1" text-anchor="middle" transform="translate(7943.446,6680.4302) translate(0,100) scale(1,-1)" x="0" y="0">17.8</text>
        
        <text dx="0" dy="200" fill="var(--text-color)" font-size="var(--dxf-big-font)" line-height="1.1" text-anchor="middle" transform="translate(7943.446,9297.4383) translate(0,100) scale(1,-1)" x="0" y="0">17.8</text>
        
        <text dx="0" dy="200" fill="var(--text-color)" font-size="var(--dxf-big-font)" line-height="1.1" text-anchor="middle" transform="translate(7803.3014,13615.1639) translate(0,100) scale(1,-1)" x="0" y="0">3.6</text>
        
        <text dx="0" dy="200" fill="var(--text-color)" font-size="var(--dxf-big-font)" line-height="1.1" text-anchor="middle" transform="translate(7803.3014,2258.8664) translate(0,100) scale(1,-1)" x="0" y="0">5.6</text>
        
        <path d="M20438.5748,8014.9942 L20438.5748,1574.9942 L20938.5748,1574.9942 L20938.5748,14074.9942 L20438.5748,14074.9942 L20438.5748,8134.9942" style="stroke-width:var(--lw-6);" />
        
        <path d="M15938.5748,3074.9942 L15938.5748,1574.9942 L16438.5748,1574.9942" style="stroke-width:var(--lw-6);" />
        
        <path d="M16438.5748,14074.9942 L15938.5748,14074.9942 L15938.5748,13074.9942" style="stroke-width:var(--lw-6);" />
        
        <path d="M20938.5748,3074.9942 L23938.5748,3074.9942 L23938.5748,13074.9942 L20938.5748,13074.9942" style="stroke-width:var(--lw-5);" />
        
        <path d="M15938.5748,13074.9942 L15038.5748,13074.9942" style="stroke-width:var(--lw-6);" />
        
        <path d="M14038.5748,13074.9942 L12838.5748,13074.9942" style="stroke-width:var(--lw-6);" />
        
        <path d="M16318.5748,12574.9942 L15038.5748,12574.9942" style="stroke-width:var(--lw-6);" />
        
        <path d="M14038.5748,12574.9942 L13038.5748,12574.9942" style="stroke-width:var(--lw-6);" />
        
        <path d="M13038.5748,12574.9942 L13038.5748,9824.9942" style="stroke-width:var(--lw-6);" />
        
        <path d="M13038.5748,9574.9942 L13038.5748,6574.9942" style="stroke-width:var(--lw-6);" />
        
        <path d="M13038.5748,6324.9942 L13038.5748,5494.9942" style="stroke-width:var(--lw-6);" />
        
        <path d="M13038.5748,5374.9942 L13038.5748,3574.9942" style="stroke-width:var(--lw-6);" />
        
        <path d="M13038.5748,3074.9942 L13038.5748,1574.9942 L12838.5748,1574.9942" style="stroke-width:var(--lw-1);" />
        
        <path d="M19638.5748,3074.9942 L18438.5748,3074.9942" style="stroke-width:var(--lw-6);" />
        
        <path d="M15938.5748,3074.9942 L14538.5748,3074.9942" style="stroke-width:var(--lw-6);" />
        
        <path d="M14038.5748,3074.9942 L12838.5748,3074.9942" style="stroke-width:var(--lw-6);" />
        
        <path d="M19638.5748,3574.9942 L18438.5748,3574.9942" style="stroke-width:var(--lw-6);" />
        
        <path d="M16318.5748,3574.9942 L14538.5748,3574.9942" style="stroke-width:var(--lw-6);" />
        
        <path d="M14038.5748,3574.9942 L13038.5748,3574.9942" style="stroke-width:var(--lw-6);" />
        
        <path d="M15038.5748,9574.9942 L15038.5748,6574.9942" style="stroke-width:var(--lw-5);" />
        
        <path d="M14988.5748,7574.9942 L14038.5748,7574.9942" style="stroke-width:var(--lw-1);" />
        
        <path d="M13988.5748,7574.9942 L13038.5748,7574.9942" style="stroke-width:var(--lw-1);" />
        
        <path d="M14988.5748,8574.9942 L14038.5748,8574.9942" style="stroke-width:var(--lw-1);" />
        
        <path d="M13988.5748,8574.9942 L13038.5748,8574.9942" style="stroke-width:var(--lw-1);" />
        
        <path d="M14038.5748,9574.9942 L14038.5748,8624.9942" style="stroke-width:var(--lw-1);" />
        
        <path d="M14038.5748,8574.9942 L14038.5748,7574.9942" style="stroke-width:var(--lw-1);" />
        
        <path d="M14038.5748,7524.9942 L14038.5748,6574.9942" style="stroke-width:var(--lw-1);" />
        
        <path d="M14788.5748,9574.9942 L14788.5748,8624.9942" style="stroke-width:var(--lw-1);" />
        
        <path d="M14788.5748,7524.9942 L14788.5748,6574.9942" style="stroke-width:var(--lw-1);" />
        
        <path d="M14538.5748,9574.9942 L14538.5748,8624.9942" style="stroke-width:var(--lw-1);" />
        
        <path d="M14538.5748,7524.9942 L14538.5748,6574.9942" style="stroke-width:var(--lw-1);" />
        
        <path d="M14288.5748,9574.9942 L14288.5748,8624.9942" style="stroke-width:var(--lw-1);" />
        
        <path d="M14288.5748,7524.9942 L14288.5748,6574.9942" style="stroke-width:var(--lw-1);" />
        
        <path d="M13988.5748,8074.9942 L13038.5748,8074.9942" style="stroke-width:var(--lw-1);" />
        
        <path d="M13988.5748,8324.9942 L13038.5748,8324.9942" style="stroke-width:var(--lw-1);" />
        
        <path d="M13988.5748,7824.9942 L13038.5748,7824.9942" style="stroke-width:var(--lw-1);" />
        
        <path d="M13988.5748,8624.9942 L13038.5748,9574.9942" style="stroke-width:var(--lw-1);" />
        
        <path d="M13988.5748,7524.9942 L13038.5748,6574.9942" style="stroke-width:var(--lw-1);" />
        
        <path d="M14988.5748,8624.9942 L13988.5748,8624.9942 L13988.5748,7524.9942" style="stroke-width:var(--lw-1);" />
        
        <path d="M13988.5748,7524.9942 L15038.5748,7524.9942" style="stroke-width:var(--lw-1);" />
        
        <path d="M14988.5748,7574.9942 L14988.5748,9574.9942" style="stroke-width:var(--lw-1);" />
        
        <path d="M14788.5748,7199.9942 L15038.5748,7074.9942 L14788.5748,6949.9942" style="stroke-width:var(--lw-4);" />
        
        <path d="M14988.5748,9074.9942 L13538.5748,9074.9942 L13538.5748,7074.9942 L15038.5748,7074.9942" style="stroke-width:var(--lw-4);" />
        
        <path d="M13038.5748,6574.9942 L15038.5748,6574.9942" style="stroke-width:var(--lw-6);" />
        
        <path d="M15838.5748,6574.9942 L16318.5748,6574.9942" style="stroke-width:var(--lw-6);" />
        
        <path d="M13038.5748,6324.9942 L14818.5748,6324.9942" style="stroke-width:var(--lw-6);" />
        
        <path d="M14938.5748,6324.9942 L15038.5748,6324.9942" style="stroke-width:var(--lw-6);" />
        
        <path d="M15838.5748,6324.9942 L16318.5748,6324.9942" style="stroke-width:var(--lw-6);" />
        
        <path d="M13038.5748,9574.9942 L15038.5748,9574.9942" style="stroke-width:var(--lw-6);" />
        
        <path d="M15838.5748,9574.9942 L16318.5748,9574.9942" style="stroke-width:var(--lw-6);" />
        
        <path d="M13038.5748,9824.9942 L15038.5748,9824.9942" style="stroke-width:var(--lw-6);" />
        
        <path d="M15838.5748,9824.9942 L16318.5748,9824.9942" style="stroke-width:var(--lw-6);" />
        
        <path d="M16438.5748,14074.9942 L16438.5748,9474.9942" style="stroke-width:var(--lw-6);" />
        
        <path d="M16438.5748,8674.9942 L16438.5748,8134.9942" style="stroke-width:var(--lw-6);" />
        
        <path d="M16438.5748,8014.9942 L16438.5748,7474.9942" style="stroke-width:var(--lw-6);" />
        
        <path d="M16438.5748,6674.9942 L16438.5748,1574.9942" style="stroke-width:var(--lw-6);" />
        
        <path d="M16318.5748,12574.9942 L16318.5748,9824.9942" style="stroke-width:var(--lw-6);" />
        
        <path d="M16318.5748,9574.9942 L16318.5748,9474.9942" style="stroke-width:var(--lw-6);" />
        
        <path d="M16318.5748,8674.9942 L16318.5748,7474.9942" style="stroke-width:var(--lw-6);" />
        
        <path d="M16318.5748,6674.9942 L16318.5748,6574.9942" style="stroke-width:var(--lw-6);" />
        
        <path d="M16318.5748,6324.9942 L16318.5748,3574.9942" style="stroke-width:var(--lw-6);" />
        
        <path d="M15038.5748,6574.9942 L15038.5748,6324.9942" style="stroke-width:var(--lw-6);" />
        
        <path d="M15838.5748,6574.9942 L15838.5748,6324.9942" style="stroke-width:var(--lw-6);" />
        
        <path d="M15038.5748,9824.9942 L15038.5748,9574.9942" style="stroke-width:var(--lw-6);" />
        
        <path d="M15838.5748,9824.9942 L15838.5748,9574.9942" style="stroke-width:var(--lw-6);" />
        
        <path d="M16438.5748,8014.9942 L20438.5748,8014.9942" style="stroke-width:var(--lw-6);" />
        
        <path d="M16438.5748,8134.9942 L20438.5748,8134.9942" style="stroke-width:var(--lw-6);" />
        
        <path d="M16438.5748,9474.9942 L16318.5748,9474.9942" style="stroke-width:var(--lw-6);" />
        
        <path d="M16438.5748,8674.9942 L16318.5748,8674.9942" style="stroke-width:var(--lw-6);" />
        
        <path d="M16438.5748,6674.9942 L16318.5748,6674.9942" style="stroke-width:var(--lw-6);" />
        
        <path d="M16438.5748,7474.9942 L16318.5748,7474.9942" style="stroke-width:var(--lw-6);" />
        
        <path d="M14818.5748,6324.9942 L14818.5748,5374.9942" style="stroke-width:var(--lw-6);" />
        
        <path d="M14938.5748,6324.9942 L14938.5748,5374.9942" style="stroke-width:var(--lw-6);" />
        
        <path d="M14818.5748,5374.9942 L14938.5748,5374.9942" style="stroke-width:var(--lw-6);" />
        
        <path d="M14038.5748,12574.9942 L14038.5748,13074.9942" style="stroke-width:var(--lw-6);" />
        
        <path d="M15038.5748,12574.9942 L15038.5748,13074.9942" style="stroke-width:var(--lw-6);" />
        
        <path d="M14538.5748,3074.9942 L14538.5748,3574.9942" style="stroke-width:var(--lw-6);" />
        
        <path d="M14038.5748,3074.9942 L14038.5748,3574.9942" style="stroke-width:var(--lw-6);" />
        
        <path d="M19638.5748,3074.9942 L19638.5748,3574.9942" style="stroke-width:var(--lw-6);" />
        
        <path d="M18438.5748,3074.9942 L18438.5748,3574.9942" style="stroke-width:var(--lw-6);" />
        
        <path d="M19638.5748,13074.9942 L18438.5748,13074.9942" style="stroke-width:var(--lw-6);" />
        
        <path d="M19638.5748,12574.9942 L18438.5748,12574.9942" style="stroke-width:var(--lw-6);" />
        
        <path d="M19638.5748,13074.9942 L19638.5748,12574.9942" style="stroke-width:var(--lw-6);" />
        
        <path d="M18438.5748,13074.9942 L18438.5748,12574.9942" style="stroke-width:var(--lw-6);" />
        
        <path d="M20438.5748,13974.9942 L16438.5748,13974.9942" style="stroke-width:var(--lw-5);" />
        
        <path d="M20438.5748,13924.9942 L16438.5748,13924.9942" style="stroke-width:var(--lw-1);" />
        
        <path d="M20438.5748,1674.9942 L16438.5748,1674.9942" style="stroke-width:var(--lw-5);" />
        
        <path d="M20438.5748,1724.9942 L16438.5748,1724.9942" style="stroke-width:var(--lw-1);" />
        
        <path d="M15038.5748,13074.9942 L14038.5748,13074.9942" style="stroke-width:var(--lw-5);" />
        
        <path d="M15038.5748,12954.9942 L14958.5748,12954.9942 L14958.5748,12874.9942 L15038.5748,12874.9942 Z" style="stroke-width:var(--lw-1);" />
        
        <path d="M14038.5748,12874.9942 L15038.5748,12874.9942 L15038.5748,12954.9942 L14038.5748,12954.9942 Z" style="stroke-width:var(--lw-1);" />
        
        <path d="M14038.5748,12954.9942 L14118.5748,12954.9942 L14118.5748,12874.9942 L14038.5748,12874.9942 Z" style="stroke-width:var(--lw-1);" />
        
        <path d="M14958.5748,12914.9942 L14118.5748,12914.9942" style="stroke-width:var(--lw-1);" />
        
        <path d="M15838.5748,12574.9942 L15838.5748,9824.9942" style="stroke-width:var(--lw-3);" />
        
        <path d="M15838.5748,11674.9942 L16318.5748,11674.9942" style="stroke-width:var(--lw-3);" />
        
        <path d="M15838.5748,11674.9942 L16318.5748,12574.9942" style="stroke-width:var(--lw-3);" />
        
        <path d="M16318.5748,11674.9942 L15838.5748,12574.9942" style="stroke-width:var(--lw-3);" />
        
        <path d="M15838.5748,10724.9942 L16318.5748,10724.9942" style="stroke-width:var(--lw-3);" />
        
        <path d="M15838.5748,10724.9942 L16318.5748,9824.9942" style="stroke-width:var(--lw-3);" />
        
        <path d="M16318.5748,10724.9942 L15838.5748,9824.9942" style="stroke-width:var(--lw-3);" />
        
        <path d="M14688.5748,8205.8391 L14388.5748,8205.8391 L14388.5748,7905.8391 L14688.5748,7905.8391 Z" style="stroke-width:var(--lw-3);" />
        
        <path d="M15038.5748,9574.9942 L15088.5748,9574.9942 L15088.5748,9624.9942 L15038.5748,9624.9942 Z" style="stroke-width:var(--lw-1);" />
        
        <path d="M15788.5748,9574.9942 L15838.5748,9574.9942 L15838.5748,9624.9942 L15788.5748,9624.9942 Z" style="stroke-width:var(--lw-1);" />
        
        <path d="M15738.5748,9624.9942 L15788.5748,9624.9942 L15788.5748,10324.9942 L15738.5748,10324.9942 Z" style="stroke-width:var(--lw-1);" />
        
        <path d="M15788.5748,10324.9942 A700,700 0 0,1 15088.5748,9624.9942" style="stroke-width:var(--lw-1);stroke-dasharray:0.3175,0.1588;stroke-dashoffset:0.2107" />
        
        <path d="M15038.5748,6574.9942 L15088.5748,6574.9942 L15088.5748,6524.9942 L15038.5748,6524.9942 Z" style="stroke-width:var(--lw-1);" />
        
        <path d="M15788.5748,6574.9942 L15838.5748,6574.9942 L15838.5748,6524.9942 L15788.5748,6524.9942 Z" style="stroke-width:var(--lw-1);" />
        
        <path d="M15738.5748,6524.9942 L15788.5748,6524.9942 L15788.5748,5824.9942 L15738.5748,5824.9942 Z" style="stroke-width:var(--lw-1);" />
        
        <path d="M15088.5748,6524.9942 A700,700 0 0,1 15788.5748,5824.9942" style="stroke-width:var(--lw-1);stroke-dasharray:0.3175,0.1588;stroke-dashoffset:0.2107" />
        
        <path d="M16318.5748,6674.9942 L16318.5748,6724.9942 L16368.5748,6724.9942 L16368.5748,6674.9942 Z" style="stroke-width:var(--lw-1);" />
        
        <path d="M16318.5748,7424.9942 L16318.5748,7474.9942 L16368.5748,7474.9942 L16368.5748,7424.9942 Z" style="stroke-width:var(--lw-1);" />
        
        <path d="M16368.5748,7374.9942 L16368.5748,7424.9942 L17068.5748,7424.9942 L17068.5748,7374.9942 Z" style="stroke-width:var(--lw-1);" />
        
        <path d="M16368.5748,6724.9942 A700,700 0 0,1 17068.5748,7424.9942" style="stroke-width:var(--lw-1);stroke-dasharray:0.3175,0.1588;stroke-dashoffset:0.2107" />
        
        <path d="M16318.5748,9474.9942 L16318.5748,9424.9942 L16368.5748,9424.9942 L16368.5748,9474.9942 Z" style="stroke-width:var(--lw-1);" />
        
        <path d="M16318.5748,8724.9942 L16318.5748,8674.9942 L16368.5748,8674.9942 L16368.5748,8724.9942 Z" style="stroke-width:var(--lw-1);" />
        
        <path d="M16368.5748,8774.9942 L16368.5748,8724.9942 L17068.5748,8724.9942 L17068.5748,8774.9942 Z" style="stroke-width:var(--lw-1);" />
        
        <path d="M17068.5748,8724.9942 A700,700 0 0,1 16368.5748,9424.9942" style="stroke-width:var(--lw-1);stroke-dasharray:0.3175,0.1588;stroke-dashoffset:0.2107" />
        
        <path d="M16438.5748,8634.9942 L20438.5748,8634.9942" style="stroke-width:var(--lw-3);" />
        
        <path d="M19438.5748,8634.9942 L19438.5748,8134.9942" style="stroke-width:var(--lw-3);" />
        
        <path d="M18438.5748,8634.9942 L18438.5748,8134.9942" style="stroke-width:var(--lw-3);" />
        
        <path d="M17438.5748,8634.9942 L17438.5748,8134.9942" style="stroke-width:var(--lw-3);" />
        
        <path d="M16438.5748,8634.9942 L17438.5748,8134.9942" style="stroke-width:var(--lw-3);" />
        
        <path d="M16438.5748,8134.9942 L17438.5748,8634.9942" style="stroke-width:var(--lw-3);" />
        
        <path d="M17438.5748,8634.9942 L18438.5748,8134.9942" style="stroke-width:var(--lw-3);" />
        
        <path d="M17438.5748,8134.9942 L18438.5748,8634.9942" style="stroke-width:var(--lw-3);" />
        
        <path d="M18438.5748,8634.9942 L19438.5748,8134.9942" style="stroke-width:var(--lw-3);" />
        
        <path d="M18438.5748,8134.9942 L19438.5748,8634.9942" style="stroke-width:var(--lw-3);" />
        
        <path d="M19438.5748,8634.9942 L20438.5748,8134.9942" style="stroke-width:var(--lw-3);" />
        
        <path d="M19438.5748,8134.9942 L20438.5748,8634.9942" style="stroke-width:var(--lw-3);" />
        
        <path d="M16438.5748,7514.9942 L20438.5748,7514.9942" style="stroke-width:var(--lw-3);" />
        
        <path d="M19438.5748,7514.9942 L19438.5748,8014.9942" style="stroke-width:var(--lw-3);" />
        
        <path d="M18438.5748,7514.9942 L18438.5748,8014.9942" style="stroke-width:var(--lw-3);" />
        
        <path d="M17438.5748,7514.9942 L17438.5748,8014.9942" style="stroke-width:var(--lw-3);" />
        
        <path d="M16438.5748,7514.9942 L17438.5748,8014.9942" style="stroke-width:var(--lw-3);" />
        
        <path d="M16438.5748,8014.9942 L17438.5748,7514.9942" style="stroke-width:var(--lw-3);" />
        
        <path d="M17438.5748,7514.9942 L18438.5748,8014.9942" style="stroke-width:var(--lw-3);" />
        
        <path d="M17438.5748,8014.9942 L18438.5748,7514.9942" style="stroke-width:var(--lw-3);" />
        
        <path d="M18438.5748,7514.9942 L19438.5748,8014.9942" style="stroke-width:var(--lw-3);" />
        
        <path d="M18438.5748,8014.9942 L19438.5748,7514.9942" style="stroke-width:var(--lw-3);" />
        
        <path d="M19438.5748,7514.9942 L20438.5748,8014.9942" style="stroke-width:var(--lw-3);" />
        
        <path d="M19438.5748,8014.9942 L20438.5748,7514.9942" style="stroke-width:var(--lw-3);" />
        
        <path d="M15838.5748,10724.9942 L16318.5748,11674.9942" style="stroke-width:var(--lw-3);" />
        
        <path d="M16318.5748,10724.9942 L15838.5748,11674.9942" style="stroke-width:var(--lw-3);" />
        
        <path d="M13212.5735,10424.9942 L13212.5735,10037.1621 L13870.7412,10037.1621 L13870.7412,10424.9942 Z" style="stroke-width:var(--lw-3);" />
        
        <path d="M13676.5624,10519.7211 L13068.5748,11058.6988 L13676.5624,11058.6988 Z" style="stroke-width:var(--lw-3);" />
        
        <line style="stroke-width:var(--lw-3);" x1="14008.5748" x2="14008.5748" y1="12044.9942" y2="10004.9942" />
        
        <line style="stroke-width:var(--lw-3);" x1="13068.5748" x2="13068.5748" y1="12044.9942" y2="10004.9942" />
        
        <line style="stroke-width:var(--lw-3);" x1="13068.5748" x2="14008.5748" y1="10004.9942" y2="10004.9942" />
        
        <line style="stroke-width:var(--lw-3);" x1="14008.5748" x2="13068.5748" y1="12044.9942" y2="12044.9942" />
        
        <path d="M13676.5624,10519.7211 L14008.5748,10519.7211" style="stroke-width:var(--lw-3);" />
        
        <path d="M14038.5748,12074.9942 L13038.5748,12074.9942 L13038.5748,9824.9942 L14038.5748,9824.9942 Z" style="stroke-width:var(--lw-3);" />
        
        <path d="M13038.5748,12074.9942 L15838.5748,12074.9942" style="stroke-width:var(--lw-3);" />
        
        <path d="M15038.5748,12574.9942 L14038.5748,12574.9942" style="stroke-width:var(--lw-3);" />
        
        <path d="M14738.5748,12074.9942 L14738.5748,11774.9942 L14288.5748,11774.9942 L14288.5748,12074.9942" style="stroke-width:var(--lw-3);" />
        
        <path d="M14738.5748,12074.9942 L14738.5748,11824.9942 L14288.5748,11824.9942 L14288.5748,12074.9942" style="stroke-width:var(--lw-3);" />
        
        <path d="M13088.5748,12424.9942 L13088.5748,12374.9942 L13988.5748,12374.9942 L13988.5748,12424.9942 Z" style="stroke-width:var(--lw-3);" />
        
        <path d="M13188.5748,12474.9942 L13188.5748,12424.9942 L13888.5748,12424.9942 L13888.5748,12474.9942 Z" style="stroke-width:var(--lw-3);" />
        
        <path d="M13786.0621,12177.5068 L13538.5748,12424.9942 L13220.3767,12106.7961" style="stroke-width:var(--lw-3);" />
        
        <path d="M14638.5748,10174.9942 L14638.5748,9824.9942 L14138.5748,9824.9942 L14138.5748,10174.9942 Z" style="stroke-width:var(--lw-3);" />
        
        <path d="M15868.5748,6324.9942 L15868.5748,3574.9942" style="stroke-width:var(--lw-3);" />
        
        <path d="M13038.5748,5374.9942 L13938.5748,5374.9942 L13938.5748,5494.9942 L13038.5748,5494.9942" style="stroke-width:var(--lw-6);" />
        
        <g>
            
            <line style="stroke-width:var(--lw-3);" x1="13766.5759" x2="13694.0533" y1="3993.6881" y2="4987.9942" />
            
            <line style="stroke-width:var(--lw-3);" x1="13209.5748" x2="13209.5748" y1="3990.0686" y2="4987.9942" />
            
            <path d="M13704.3531,4141.4962 A233.072,233.072 0 0,0 13258.158,4146.0965" style="stroke-width:var(--lw-3);" />
            
            <line style="stroke-width:var(--lw-3);" x1="13173.5748" x2="13173.5748" y1="3799.9942" y2="5149.9942" />
            
            <line style="stroke-width:var(--lw-3);" x1="13803.5748" x2="13803.5748" y1="3799.9942" y2="5149.9942" />
            
            <path d="M13763.746,3963.8411 A284.8838,284.8838 0 0,0 13212.292,3968.1206" style="stroke-width:var(--lw-3);" />
            
            <line style="stroke-width:var(--lw-3);" x1="13713.5748" x2="13263.5748" y1="3709.9942" y2="3709.9942" />
            
            <path d="M13803.5748,3799.9942 A90,90 0 0,0 13713.5748,3709.9942" style="stroke-width:var(--lw-3);" />
            
            <path d="M13766.5759,3993.6881 A90,90 0 0,0 13763.746,3963.8411" style="stroke-width:var(--lw-3);" />
            
            <path d="M13263.5748,3709.9942 A90,90 0 0,0 13173.5748,3799.9942" style="stroke-width:var(--lw-3);" />
            
            <path d="M13212.292,3968.1206 A90,90 0 0,0 13209.5748,3990.0686" style="stroke-width:var(--lw-3);" />
            
            <path d="M13265.9698,5006.1438 A212.7854,212.7854 0 0,0 13640.6947,5000.5004" style="stroke-width:var(--lw-3);" />
            
            <path d="M13209.5748,4987.9942 A245.2386,245.2386 0 0,0 13694.0533,4987.9942" style="stroke-width:var(--lw-3);" />
            
            <line style="stroke-width:var(--lw-3);" x1="13713.5748" x2="13263.5748" y1="5239.9942" y2="5239.9942" />
            
            <path d="M13452.5748,5194.9942 A277.4233,277.4233 0 0,0 13767.5748,4924.9942" style="stroke-width:var(--lw-3);" />
            
            <line style="stroke-width:var(--lw-3);" x1="13708.2347" x2="13650.567" y1="4174.962" y2="4965.6022" />
            
            <path d="M13708.2347,4174.962 A90,90 0 0,0 13704.3531,4141.4962" style="stroke-width:var(--lw-3);" />
            
            <line style="stroke-width:var(--lw-3);" x1="13767.5748" x2="13767.5748" y1="4707.9809" y2="4924.9942" />
            
            <line style="stroke-width:var(--lw-3);" x1="13766.9371" x2="13715.0594" y1="4699.9942" y2="4699.9942" />
            
            <path d="M13767.5748,4708.749 A55.1471,55.1471 0 0,0 13726.3131,4654.9942" style="stroke-width:var(--lw-3);" />
            
            <line style="stroke-width:var(--lw-3);" x1="13726.3131" x2="13718.3417" y1="4654.9942" y2="4654.9942" />
            
            <line style="stroke-width:var(--lw-3);" x1="13767.5748" x2="13711.7772" y1="4744.9942" y2="4744.9942" />
            
            <line style="stroke-width:var(--lw-3);" x1="13767.5748" x2="13708.495" y1="4789.9942" y2="4789.9942" />
            
            <line style="stroke-width:var(--lw-3);" x1="13767.5748" x2="13705.2128" y1="4834.9942" y2="4834.9942" />
            
            <line style="stroke-width:var(--lw-3);" x1="13767.5748" x2="13698.6484" y1="4924.9942" y2="4924.9942" />
            
            <line style="stroke-width:var(--lw-3);" x1="13767.5748" x2="13701.9306" y1="4879.9942" y2="4879.9942" />
            
            <path d="M13640.6947,5000.5004 A90,90 0 0,0 13650.567,4965.6022" style="stroke-width:var(--lw-3);" />
            
            <circle cx="13452.5748" cy="4987.9942" r="22.5" style="stroke-width:var(--lw-3);" />
            
            <circle cx="13452.5748" cy="4987.9942" r="18" style="stroke-width:var(--lw-3);" />
            
            <path d="M13713.5748,5239.9942 A90,90 0 0,0 13803.5748,5149.9942" style="stroke-width:var(--lw-3);" />
            
            <path d="M13423.318,5165.2061 A28.2361,4.7487 360 0 1 13479.7902,5165.2061" style="stroke-width:var(--lw-3);" />
            
            <line style="stroke-width:var(--lw-3);" x1="13423.318" x2="13423.318" y1="5160.9815" y2="5165.2061" />
            
            <line style="stroke-width:var(--lw-3);" x1="13479.7902" x2="13479.7902" y1="5160.9815" y2="5165.2061" />
            
            <ellipse rx="28.2361" ry="4.7487" style="stroke-width:var(--lw-3);" transform="translate(13451.5541 5160.9815) rotate(360)" />
            
            <line style="stroke-width:var(--lw-3);" x1="13254.5748" x2="13254.5748" y1="4171.2389" y2="4962.3116" />
            
            <path d="M13258.158,4146.0965 A90,90 0 0,0 13254.5748,4171.2389" style="stroke-width:var(--lw-3);" />
            
            <path d="M13254.5748,4962.3116 A90,90 0 0,0 13265.9698,5006.1438" style="stroke-width:var(--lw-3);" />
            
            <path d="M13173.5748,5149.9942 A90,90 0 0,0 13263.5748,5239.9942" style="stroke-width:var(--lw-3);" />
        </g>
        
        <path d="M13938.5748,5374.9942 L13938.5748,3574.9942" style="stroke-width:var(--lw-3);" />
        
        <path d="M13223.5748,5494.9942 L13223.5748,6324.9942" style="stroke-width:var(--lw-3);" />
        
        <g>
            
            <line style="stroke-width:var(--lw-3);" x1="13088.5748" x2="13456.0748" y1="5727.4942" y2="5727.4942" />
            
            <line style="stroke-width:var(--lw-3);" x1="13263.5748" x2="13456.0748" y1="5767.4942" y2="5767.4942" />
            
            <line style="stroke-width:var(--lw-3);" x1="13456.0748" x2="13088.5748" y1="6092.4942" y2="6092.4942" />
            
            <line style="stroke-width:var(--lw-3);" x1="13456.0748" x2="13263.5748" y1="6052.4942" y2="6052.4942" />
            
            <line style="stroke-width:var(--lw-3);" x1="13038.5748" x2="13038.5748" y1="6042.4942" y2="5777.4942" />
            
            <path d="M13038.5748,5777.4942 A50,50 0 0,1 13088.5748,5727.4942" style="stroke-width:var(--lw-3);" />
            
            <path d="M13088.5748,6092.4942 A50,50 0 0,1 13038.5748,6042.4942" style="stroke-width:var(--lw-3);" />
            
            <line style="stroke-width:var(--lw-3);" x1="13223.5748" x2="13223.5748" y1="6042.4942" y2="5777.4942" />
            
            <line style="stroke-width:var(--lw-3);" x1="13263.5748" x2="13263.5748" y1="6052.4942" y2="5767.4942" />
            
            <path d="M13223.5748,6042.4942 A50,50 0 0,1 13173.5748,6092.4942" style="stroke-width:var(--lw-3);" />
            
            <path d="M13456.0748,5727.4942 A182.5,182.5 0 0,1 13456.0748,6092.4942" style="stroke-width:var(--lw-3);" />
            
            <path d="M13456.0748,5767.4942 A142.5,142.5 0 0,1 13456.0748,6052.4942" style="stroke-width:var(--lw-3);" />
            
            <line style="stroke-width:var(--lw-3);" x1="13088.5748" x2="13173.5748" y1="5727.4942" y2="5727.4942" />
            
            <path d="M13173.5748,5727.4942 A50,50 0 0,1 13223.5748,5777.4942" style="stroke-width:var(--lw-3);" />
            
            <line style="stroke-width:var(--lw-3);" x1="13173.5748" x2="13088.5748" y1="6092.4942" y2="6092.4942" />
            
            <path d="M13290.4501,5947.7661 L13362.034,5947.7661 L13362.034,5872.2223 L13290.4501,5872.2223 Z" style="stroke-width:var(--lw-3);" />
            
            <circle cx="13133.2027" cy="5909.9942" r="21.3514" style="stroke-width:var(--lw-3);" />
        </g>
        
        <path d="M15868.5748,5374.9942 L16318.5748,5374.9942" style="stroke-width:var(--lw-3);" />
        
        <path d="M16318.5748,6324.9942 L15868.5748,5374.9942" style="stroke-width:var(--lw-3);" />
        
        <path d="M15868.5748,6324.9942 L16318.5748,5374.9942" style="stroke-width:var(--lw-3);" />
        
        <line style="stroke-width:var(--lw-3);" x1="16099.8995" x2="16099.8995" y1="4868.392" y2="4898.8642" />
        
        <line style="stroke-width:var(--lw-3);" x1="15918.5748" x2="15918.5748" y1="5024.9942" y2="4724.9942" />
        
        <path d="M15918.5748,4724.9942 A100,100 0 0,1 16018.5748,4624.9942" style="stroke-width:var(--lw-3);" />
        
        <path d="M16093.5748,4624.9942 A100,100 0 0,1 16193.5748,4724.9942" style="stroke-width:var(--lw-3);" />
        
        <line style="stroke-width:var(--lw-3);" x1="16193.5748" x2="16193.5748" y1="4898.8642" y2="5024.9942" />
        
        <line style="stroke-width:var(--lw-3);" x1="16254.6215" x2="16099.8995" y1="4868.3921" y2="4868.392" />
        
        <line style="stroke-width:var(--lw-3);" x1="16099.8995" x2="16254.6215" y1="4898.8642" y2="4898.8643" />
        
        <line style="stroke-width:var(--lw-3);" x1="16254.6215" x2="16254.6215" y1="4898.8643" y2="4868.3921" />
        
        <line style="stroke-width:var(--lw-3);" x1="16018.5748" x2="16093.5748" y1="4624.9942" y2="4624.9942" />
        
        <line style="stroke-width:var(--lw-3);" x1="16193.5748" x2="16193.5748" y1="4724.9942" y2="4868.392" />
        
        <line style="stroke-width:var(--lw-3);" x1="16018.5748" x2="16093.5748" y1="5124.9942" y2="5124.9942" />
        
        <path d="M16018.5748,5124.9942 A100,100 0 0,1 15918.5748,5024.9942" style="stroke-width:var(--lw-3);" />
        
        <path d="M16193.5748,5024.9942 A100,100 0 0,1 16093.5748,5124.9942" style="stroke-width:var(--lw-3);" />
        
        <line style="stroke-width:var(--lw-3);" x1="16099.8995" x2="16099.8995" y1="4081.5963" y2="4051.1241" />
        
        <line style="stroke-width:var(--lw-3);" x1="15918.5748" x2="15918.5748" y1="3924.9942" y2="4224.9942" />
        
        <path d="M16018.5748,4324.9942 A100,100 0 0,1 15918.5748,4224.9942" style="stroke-width:var(--lw-3);" />
        
        <path d="M16193.5748,4224.9942 A100,100 0 0,1 16093.5748,4324.9942" style="stroke-width:var(--lw-3);" />
        
        <line style="stroke-width:var(--lw-3);" x1="16193.5748" x2="16193.5748" y1="4051.1241" y2="3924.9942" />
        
        <line style="stroke-width:var(--lw-3);" x1="16254.6215" x2="16099.8995" y1="4081.5963" y2="4081.5963" />
        
        <line style="stroke-width:var(--lw-3);" x1="16099.8995" x2="16254.6215" y1="4051.1241" y2="4051.1241" />
        
        <line style="stroke-width:var(--lw-3);" x1="16254.6215" x2="16254.6215" y1="4051.1241" y2="4081.5963" />
        
        <line style="stroke-width:var(--lw-3);" x1="16018.5748" x2="16093.5748" y1="4324.9942" y2="4324.9942" />
        
        <line style="stroke-width:var(--lw-3);" x1="16193.5748" x2="16193.5748" y1="4224.9942" y2="4081.5963" />
        
        <line style="stroke-width:var(--lw-3);" x1="16018.5748" x2="16093.5748" y1="3824.9942" y2="3824.9942" />
        
        <path d="M15918.5748,3924.9942 A100,100 0 0,1 16018.5748,3824.9942" style="stroke-width:var(--lw-3);" />
        
        <path d="M16093.5748,3824.9942 A100,100 0 0,1 16193.5748,3924.9942" style="stroke-width:var(--lw-3);" />
        
        <path d="M16268.5748,5374.9942 L16268.5748,3574.9942" style="stroke-width:var(--lw-3);" />
        
        <path d="M18488.5748,6374.9942 L18488.5748,4874.9942 L20338.5748,4874.9942 L20338.5748,6374.9942 Z" style="stroke-width:var(--lw-3);" />
        
        <path d="M18438.5748,6424.9942 L18438.5748,4824.9942 L20438.5748,4824.9942 L20438.5748,6424.9942 Z" style="stroke-width:var(--lw-3);" />
        
        <path d="M20038.5748,6974.9942 L20038.5748,6474.9942 L20438.5748,6474.9942 L20438.5748,6974.9942 Z" style="stroke-width:var(--lw-3);" />
        
        <path d="M18438.5748,6424.9942 L18438.5748,4824.9942 L20338.5748,4824.9942 L20338.5748,6424.9942 Z" style="stroke-width:var(--lw-3);" />
        
        <path d="M20038.5748,4274.9942 L20038.5748,4774.9942 L20438.5748,4774.9942 L20438.5748,4274.9942 Z" style="stroke-width:var(--lw-3);" />
        
        <path d="M20288.5748,6296.5771 L19900.7427,6296.5771 L19900.7427,5738.4095 L20288.5748,5738.4095 Z" style="stroke-width:var(--lw-3);" />
        
        <path d="M20288.5748,4953.4112 L19900.7427,4953.4112 L19900.7427,5511.5789 L20288.5748,5511.5789 Z" style="stroke-width:var(--lw-3);" />
        
        <path d="M16438.5748,6424.9942 L16888.5748,6424.9942 L16888.5748,3574.9942 L16438.5748,3574.9942 Z" style="stroke-width:var(--lw-3);" />
        
        <path d="M16685.1283,4917.0332 L16685.1283,6311.9236 L16625.0892,6311.9236 L16625.0892,4917.0332 Z" style="stroke-width:var(--lw-3);" />
        
        <path d="M16625.0892,5067.2532 L16625.0892,6182.7352 L16571.054,6182.7352 L16571.054,5067.2532 Z" style="stroke-width:var(--lw-3);" />
        
        <path d="M17285.5182,5015.1038 L16625.0892,5624.9942 L17015.3428,5967.4941" style="stroke-width:var(--lw-3);" />
        
        <path d="M16888.5748,4324.9942 L17188.5748,4324.9942 L17188.5748,3874.9942 L16888.5748,3874.9942" style="stroke-width:var(--lw-3);" />
        
        <path d="M16888.5748,4324.9942 L17138.5748,4324.9942 L17138.5748,3874.9942 L16888.5748,3874.9942" style="stroke-width:var(--lw-3);" />
        
        <path d="M14038.5748,3074.9942 L14538.5748,3074.9942" style="stroke-width:var(--lw-5);" />
        
        <path d="M14038.5748,3194.9942 L14118.5748,3194.9942 L14118.5748,3274.9942 L14038.5748,3274.9942 Z" style="stroke-width:var(--lw-1);" />
        
        <path d="M14538.5748,3274.9942 L14038.5748,3274.9942 L14038.5748,3194.9942 L14538.5748,3194.9942 Z" style="stroke-width:var(--lw-1);" />
        
        <path d="M14538.5748,3194.9942 L14458.5748,3194.9942 L14458.5748,3274.9942 L14538.5748,3274.9942 Z" style="stroke-width:var(--lw-1);" />
        
        <path d="M14118.5748,3234.9942 L14458.5748,3234.9942" style="stroke-width:var(--lw-1);" />
        
        <path d="M19638.5748,3194.9942 L19718.5748,3194.9942 L19718.5748,3274.9942 L19638.5748,3274.9942 Z" style="stroke-width:var(--lw-1);" />
        
        <path d="M20438.5748,3274.9942 L19638.5748,3274.9942 L19638.5748,3194.9942 L20438.5748,3194.9942 Z" style="stroke-width:var(--lw-1);" />
        
        <path d="M20438.5748,3194.9942 L20358.5748,3194.9942 L20358.5748,3274.9942 L20438.5748,3274.9942 Z" style="stroke-width:var(--lw-1);" />
        
        <path d="M19718.5748,3234.9942 L20358.5748,3234.9942" style="stroke-width:var(--lw-1);" />
        
        <path d="M16438.5748,3194.9942 L16518.5748,3194.9942 L16518.5748,3274.9942 L16438.5748,3274.9942 Z" style="stroke-width:var(--lw-1);" />
        
        <path d="M17538.5748,3274.9942 L16438.5748,3274.9942 L16438.5748,3194.9942 L17538.5748,3194.9942 Z" style="stroke-width:var(--lw-1);" />
        
        <path d="M17538.5748,3194.9942 L17458.5748,3194.9942 L17458.5748,3274.9942 L17538.5748,3274.9942 Z" style="stroke-width:var(--lw-1);" />
        
        <path d="M16518.5748,3234.9942 L17458.5748,3234.9942" style="stroke-width:var(--lw-1);" />
        
        <path d="M17538.5748,3194.9942 L17588.5748,3194.9942 L17588.5748,3274.9942 L17538.5748,3274.9942 Z" style="stroke-width:var(--lw-1);" />
        
        <path d="M18388.5748,3194.9942 L18438.5748,3194.9942 L18438.5748,3274.9942 L18388.5748,3274.9942 Z" style="stroke-width:var(--lw-1);" />
        
        <path d="M18338.5748,3274.9942 L18388.5748,3274.9942 L18388.5748,4074.9942 L18338.5748,4074.9942 Z" style="stroke-width:var(--lw-1);" />
        
        <path d="M18388.5748,4074.9942 A800,800 0 0,1 17588.5748,3274.9942" style="stroke-width:var(--lw-1);stroke-dasharray:0.3175,0.1588;stroke-dashoffset:0.014" />
        
        <path d="M18488.5748,9774.9942 L18488.5748,11274.9942 L20338.5748,11274.9942 L20338.5748,9774.9942 Z" style="stroke-width:var(--lw-3);" />
        
        <path d="M18438.5748,9724.9942 L18438.5748,11324.9942 L20438.5748,11324.9942 L20438.5748,9724.9942 Z" style="stroke-width:var(--lw-3);" />
        
        <path d="M20038.5748,9174.9942 L20038.5748,9674.9942 L20438.5748,9674.9942 L20438.5748,9174.9942 Z" style="stroke-width:var(--lw-3);" />
        
        <path d="M18438.5748,9724.9942 L18438.5748,11324.9942 L20338.5748,11324.9942 L20338.5748,9724.9942 Z" style="stroke-width:var(--lw-3);" />
        
        <path d="M20038.5748,11874.9942 L20038.5748,11374.9942 L20438.5748,11374.9942 L20438.5748,11874.9942 Z" style="stroke-width:var(--lw-3);" />
        
        <path d="M20288.5748,9853.4112 L19900.7427,9853.4112 L19900.7427,10411.5789 L20288.5748,10411.5789 Z" style="stroke-width:var(--lw-3);" />
        
        <path d="M20288.5748,11196.5771 L19900.7427,11196.5771 L19900.7427,10638.4095 L20288.5748,10638.4095 Z" style="stroke-width:var(--lw-3);" />
        
        <path d="M16438.5748,9724.9942 L16888.5748,9724.9942 L16888.5748,12574.9942 L16438.5748,12574.9942 Z" style="stroke-width:var(--lw-3);" />
        
        <path d="M16685.1283,11232.9551 L16685.1283,9838.0648 L16625.0892,9838.0648 L16625.0892,11232.9551 Z" style="stroke-width:var(--lw-3);" />
        
        <path d="M16625.0892,11082.7352 L16625.0892,9967.2532 L16571.054,9967.2532 L16571.054,11082.7352 Z" style="stroke-width:var(--lw-3);" />
        
        <path d="M17285.5182,11134.8846 L16625.0892,10524.9942 L17015.3428,10182.4942" style="stroke-width:var(--lw-3);" />
        
        <path d="M16888.5748,11824.9942 L17188.5748,11824.9942 L17188.5748,12274.9942 L16888.5748,12274.9942" style="stroke-width:var(--lw-3);" />
        
        <path d="M16888.5748,11824.9942 L17138.5748,11824.9942 L17138.5748,12274.9942 L16888.5748,12274.9942" style="stroke-width:var(--lw-3);" />
        
        <path d="M19638.5748,12954.9942 L19718.5748,12954.9942 L19718.5748,12874.9942 L19638.5748,12874.9942 Z" style="stroke-width:var(--lw-1);" />
        
        <path d="M20438.5748,12874.9942 L19638.5748,12874.9942 L19638.5748,12954.9942 L20438.5748,12954.9942 Z" style="stroke-width:var(--lw-1);" />
        
        <path d="M20438.5748,12954.9942 L20358.5748,12954.9942 L20358.5748,12874.9942 L20438.5748,12874.9942 Z" style="stroke-width:var(--lw-1);" />
        
        <path d="M19718.5748,12914.9942 L20358.5748,12914.9942" style="stroke-width:var(--lw-1);" />
        
        <path d="M16438.5748,12954.9942 L16518.5748,12954.9942 L16518.5748,12874.9942 L16438.5748,12874.9942 Z" style="stroke-width:var(--lw-1);" />
        
        <path d="M17538.5748,12874.9942 L16438.5748,12874.9942 L16438.5748,12954.9942 L17538.5748,12954.9942 Z" style="stroke-width:var(--lw-1);" />
        
        <path d="M17538.5748,12954.9942 L17458.5748,12954.9942 L17458.5748,12874.9942 L17538.5748,12874.9942 Z" style="stroke-width:var(--lw-1);" />
        
        <path d="M16518.5748,12914.9942 L17458.5748,12914.9942" style="stroke-width:var(--lw-1);" />
        
        <path d="M17538.5748,12954.9942 L17588.5748,12954.9942 L17588.5748,12874.9942 L17538.5748,12874.9942 Z" style="stroke-width:var(--lw-1);" />
        
        <path d="M18388.5748,12954.9942 L18438.5748,12954.9942 L18438.5748,12874.9942 L18388.5748,12874.9942 Z" style="stroke-width:var(--lw-1);" />
        
        <path d="M18338.5748,12874.9942 L18388.5748,12874.9942 L18388.5748,12074.9942 L18338.5748,12074.9942 Z" style="stroke-width:var(--lw-1);" />
        
        <path d="M17588.5748,12874.9942 A800,800 0 0,1 18388.5748,12074.9942" style="stroke-width:var(--lw-1);stroke-dasharray:0.3175,0.1588;stroke-dashoffset:0.014" />
        
        <g>
            
            <path d="M16561.4476,2527.6636 L16741.8192,2765.2479" style="stroke-width:var(--lw-3);" />
            
            <path d="M17040.359,2806.1141 L17366.1889,2558.7474" style="stroke-width:var(--lw-3);" />
            
            <path d="M17390.7087,2379.6235 L17107.2677,2006.2768" style="stroke-width:var(--lw-3);" />
            
            <path d="M16928.1437,1981.757 L16602.3139,2229.1237" style="stroke-width:var(--lw-3);" />
            
            <path d="M16561.4476,2527.6636 L16741.8192,2765.2479 A213.068,213.068 0 0 0 17040.359,2806.1141 L17366.1889,2558.7474 A127.841,127.841 0 0 0 17390.7087,2379.6235 L17107.2677,2006.2768 A127.841,127.841 0 0 0 16928.1437,1981.757 L16602.3139,2229.1237 A213.068,213.068 0 0 0 16561.4476,2527.6636" style="stroke-width:var(--lw-3);" />
            
            <path d="M16765.2288,2105.4404 L16778.1125,2122.4107 A63.9205,63.9205 0 0 1 16765.8526,2211.9726 L16653.8486,2297.0049 A127.841,127.841 0 0 0 16629.3289,2476.1289 L16809.7004,2713.7131 A127.841,127.841 0 0 0 16988.8243,2738.2329 L17100.8283,2653.2006 A63.9205,63.9205 0 0 1 17190.3903,2665.4604 L17203.274,2682.4308" style="stroke-width:var(--lw-3);" />
        </g>
        
        <g>
            
            <path d="M19721.3901,2520.5008 L19793.4619,2231.0429" style="stroke-width:var(--lw-3);" />
            
            <path d="M19638.1861,1972.8075 L19241.2154,1873.9662" style="stroke-width:var(--lw-3);" />
            
            <path d="M19086.2741,1967.1317 L18973.0185,2421.994" style="stroke-width:var(--lw-3);" />
            
            <path d="M19066.1839,2576.9352 L19463.1547,2675.7765" style="stroke-width:var(--lw-3);" />
            
            <path d="M19721.3901,2520.5008 L19793.4619,2231.0429 A213.068,213.068 0 0 0 19638.1861,1972.8075 L19241.2154,1873.9662 A127.841,127.841 0 0 0 19086.2741,1967.1317 L18973.0185,2421.994 A127.841,127.841 0 0 0 19066.1839,2576.9352 L19463.1547,2675.7765 A213.068,213.068 0 0 0 19721.3901,2520.5008" style="stroke-width:var(--lw-3);" />
            
            <path d="M19264.6693,2626.3559 L19269.8173,2605.6803 A63.9205,63.9205 0 0 1 19347.2879,2559.0976 L19483.7466,2593.0743 A127.841,127.841 0 0 0 19638.6879,2499.9088 L19710.7596,2210.451 A127.841,127.841 0 0 0 19617.5942,2055.5097 L19481.1355,2021.533 A63.9205,63.9205 0 0 1 19434.5528,1944.0624 L19439.7007,1923.3869" style="stroke-width:var(--lw-3);" />
        </g>
        
        <text dx="0" dy="200" fill="var(--text-color)" font-size="var(--dxf-big-font)" line-height="1.1" text-anchor="middle" transform="translate(15692.6392,8123.8902) translate(0,100) scale(1,-1)" x="0" y="0">3.8</text>
        
        <text dx="0" dy="200" fill="var(--text-color)" font-size="var(--dxf-big-font)" line-height="1.1" text-anchor="middle" transform="translate(14909.1042,11096.3894) translate(0,100) scale(1,-1)" x="0" y="0">9.0</text>
        
        <text dx="0" dy="200" fill="var(--text-color)" font-size="var(--dxf-big-font)" line-height="1.1" text-anchor="middle" transform="translate(14883.9691,4717.0091) translate(0,100) scale(1,-1)" x="0" y="0">9.0</text>
        
        <text dx="0" dy="200" fill="var(--text-color)" font-size="var(--dxf-big-font)" line-height="1.1" text-anchor="middle" transform="translate(17733.7035,6680.4302) translate(0,100) scale(1,-1)" x="0" y="0">17.8</text>
        
        <text dx="0" dy="200" fill="var(--text-color)" font-size="var(--dxf-big-font)" line-height="1.1" text-anchor="middle" transform="translate(17733.7035,9297.4383) translate(0,100) scale(1,-1)" x="0" y="0">17.8</text>
        
        <text dx="0" dy="200" fill="var(--text-color)" font-size="var(--dxf-big-font)" line-height="1.1" text-anchor="middle" transform="translate(17873.8481,13615.1639) translate(0,100) scale(1,-1)" x="0" y="0">3.6</text>
        
        <text dx="0" dy="200" fill="var(--text-color)" font-size="var(--dxf-big-font)" line-height="1.1" text-anchor="middle" transform="translate(17873.8481,2258.8664) translate(0,100) scale(1,-1)" x="0" y="0">5.6</text>
        
        <text dx="0" dy="0" fill="var(--text-color)" font-size="var(--dxf-small-font)" line-height="1.1" text-anchor="middle" transform="translate(12838.5748,168.7439) translate(0,62.5) scale(1,-1)" x="0" y="0">16200</text>
        
        <g>
            <line style="stroke-width:var(--lw-1);" x1="20938.5748" x2="4738.5748" y1="74.9942" y2="74.9942" />
            <path d="M20938.5748,74.9942 L20813.5748,54.1799 L20813.5748,95.8084 Z" style="stroke-width:var(--lw-1);fill:var(--text-color);fill-rule:evenodd;" />
            <path d="M4738.5748,74.9942 L4863.5748,95.8084 L4863.5748,54.1799 Z" style="stroke-width:var(--lw-1);fill:var(--text-color);fill-rule:evenodd;" />
            <line style="stroke-width:var(--lw-1);" x1="20938.5748" x2="20938.5748" y1="1543.7442" y2="12.4942" />
            <line style="stroke-width:var(--lw-1);" x1="4738.5748" x2="4738.5748" y1="1543.7442" y2="12.4942" />
        </g>
        
        <text dx="0" dy="0" fill="var(--text-color)" font-size="var(--dxf-small-font)" line-height="1.1" text-anchor="middle" transform="translate(25404.6035,7824.9942) rotate(90) translate(0,62.5) scale(1,-1)" x="0" y="0">12500</text>
        
        <g>
            <line style="stroke-width:var(--lw-1);" x1="25498.3532" x2="25498.3532" y1="14074.9942" y2="1574.9942" />
            <path d="M25498.3532,14074.9942 L25519.1674,13949.9942 L25477.5389,13949.9942 Z" style="stroke-width:var(--lw-1);fill:var(--text-color);fill-rule:evenodd;" />
            <path d="M25498.3532,1574.9942 L25477.5389,1699.9942 L25519.1674,1699.9942 Z" style="stroke-width:var(--lw-1);fill:var(--text-color);fill-rule:evenodd;" />
        </g>
    </g>
</svg>